<svg width="80" height="80" style="background: white;" xmlns="http://www.w3.org/2000/svg">
  <rect x="0" y="0" width="80" height="80" fill="transparent"></rect>
  <g transform="translate(0,0)">
    <g transform="translate(8,8)">
      <path d="M0,2.909C0,2.909,3.433,5.818,5.15,5.818C6.867,5.818,10.3,3.879,10.3,2.909C10.3,1.939,6.867,0,5.15,0C3.433,0,0,2.909,0,2.909" fill="transparent" stroke="black" stroke-width="2"></path>
      <path d="M5.15,23.273L5.15,64" fill="transparent" stroke="black" stroke-width="2"></path>
    </g>
    <g transform="translate(29.7,8)">
      <path d="M0,0L0,11.385" fill="transparent" stroke="black" stroke-width="2"></path>
      <path d="M0,3.253C0,3.253,8.067,1.362,11.536,0.813C14.346,0.369,16.4,0.149,19.227,0C22.68,-0.182,27.311,-0.182,30.764,0C33.591,0.149,36.396,0.096,38.455,0.813C40.034,1.364,41.567,1.919,42.3,3.253C43.28,5.035,42.3,11.385,42.3,11.385" fill="transparent" stroke="black" stroke-width="2"></path>
    </g>
    <g transform="translate(29.7,28.615000000000002)">
      <path d="M42.3,1.335C42.3,1.335,37.603,0.668,35.25,0.445C32.903,0.223,30.789,0.082,28.2,0C25.033,-0.1,20.792,-0.1,17.625,0C15.036,0.082,12.922,0.223,10.575,0.445C8.222,0.668,5.449,0.857,3.525,1.335C2.124,1.684,0.384,2.114,0,2.671C-0.187,2.941,-0.187,3.29,0,3.561C0.384,4.117,2.124,4.547,3.525,4.896C5.449,5.375,8.222,5.564,10.575,5.786C12.922,6.008,15.036,6.15,17.625,6.231C20.792,6.331,25.033,6.331,28.2,6.231C30.789,6.15,32.903,6.008,35.25,5.786C37.603,5.564,42.3,4.896,42.3,4.896" fill="transparent" stroke="black" stroke-width="2"></path>
    </g>
    <g transform="translate(29.7,44.07625)">
      <path d="M16.269,0C16.269,0,11.93,0.085,9.762,0.169C7.592,0.254,5.047,0.321,3.254,0.507C1.979,0.639,0.263,0.707,0,1.014C-0.084,1.112,-0.084,1.254,0,1.352C0.263,1.659,1.979,1.727,3.254,1.859C5.047,2.045,7.592,2.112,9.762,2.197C11.93,2.281,13.881,2.335,16.269,2.366C19.194,2.404,23.106,2.404,26.031,2.366C28.419,2.335,30.37,2.281,32.538,2.197C34.708,2.112,37.253,2.045,39.046,1.859C40.321,1.727,42.037,1.659,42.3,1.352C42.384,1.254,42.384,1.112,42.3,1.014C42.037,0.707,40.321,0.639,39.046,0.507C37.253,0.321,34.708,0.254,32.538,0.169C30.37,0.085,28.419,0.031,26.031,0C23.106,-0.038,16.269,0,16.269,0" fill="transparent" stroke="black" stroke-width="2"></path>
    </g>
    <g transform="translate(29.7,55.6721875)">
      <path d="M0,0L0,16.328" fill="transparent" stroke="black" stroke-width="2"></path>
      <path d="M0,4.665C0,4.665,0.522,2.009,0.813,1.166C0.986,0.662,1.085,0.172,1.355,0C1.569,-0.137,1.953,-0.137,2.167,0C2.437,0.172,2.576,0.658,2.709,1.166C2.929,2.006,2.922,3.157,2.98,4.665C3.086,7.415,2.98,16.328,2.98,16.328" fill="transparent" stroke="black" stroke-width="2"></path>
      <path d="M2.98,4.665C2.98,4.665,3.502,2.009,3.793,1.166C3.966,0.662,4.065,0.172,4.335,0C4.549,-0.137,4.933,-0.137,5.147,0C5.417,0.172,5.556,0.658,5.689,1.166C5.909,2.006,5.902,3.157,5.96,4.665C6.066,7.415,5.96,16.328,5.96,16.328" fill="transparent" stroke="black" stroke-width="2"></path>
    </g>
    <g transform="translate(44.89,55.6721875)">
      <path d="M0,0L0,16.328" fill="transparent" stroke="black" stroke-width="2"></path>
      <path d="M0,2.333C0,2.333,0.294,1.197,0.487,0.778C0.632,0.463,0.753,0.122,0.974,0C1.171,-0.109,1.508,-0.109,1.705,0C1.925,0.122,2.047,0.463,2.192,0.778C2.385,1.197,2.559,1.755,2.679,2.333C2.822,3.025,2.886,3.965,2.922,4.665C2.952,5.235,2.952,5.65,2.922,6.22C2.886,6.92,2.822,7.86,2.679,8.553C2.559,9.13,2.385,9.688,2.192,10.108C2.047,10.422,1.925,10.763,1.705,10.885C1.508,10.994,1.171,10.994,0.974,10.885C0.753,10.763,0.632,10.422,0.487,10.108C0.294,9.688,0,8.553,0,8.553" fill="transparent" stroke="black" stroke-width="2"></path>
    </g>
    <g transform="translate(55.523,55.6721875)">
      <path d="M0,0L0,0.758" fill="transparent" stroke="black" stroke-width="2"></path>
      <path d="M0,0.325C0,0.325,1.255,0.205,2.06,0.162C3.196,0.103,4.806,0.081,6.179,0.054C7.552,0.027,8.786,0.01,10.298,0C12.15,-0.012,16.477,0,16.477,0" fill="transparent" stroke="black" stroke-width="2"></path>
    </g>
    <g transform="translate(55.523,63.077990625)">
      <path d="M0,3.824C0,3.824,0.647,3.972,0.795,3.824C0.983,3.636,0.806,2.974,0.795,2.549C0.784,2.124,0.757,1.626,0.729,1.275C0.71,1.025,0.696,0.849,0.663,0.637C0.63,0.424,0.623,0.076,0.53,0C0.479,-0.042,0.383,-0.042,0.331,0C0.238,0.076,0.238,0.387,0.199,0.637C0.144,0.988,0.099,1.443,0.066,1.912C0.027,2.484,0.01,3.251,0,3.824C-0.008,4.291,-0.008,4.631,0,5.098C0.01,5.671,0.027,6.438,0.066,7.01C0.099,7.479,0.144,7.934,0.199,8.285C0.238,8.535,0.238,8.846,0.331,8.922C0.383,8.964,0.479,8.964,0.53,8.922C0.623,8.846,0.624,8.535,0.663,8.285C0.717,7.934,0.795,7.01,0.795,7.01" fill="transparent" stroke="black" stroke-width="2"></path>
    </g>
    <g transform="translate(62.966100000000004,63.077990625)">
      <path d="M0,0L0,-0.721" fill="transparent" stroke="black" stroke-width="2"></path>
      <path d="M0,-0.378C0,-0.378,1.725,-0.298,2.464,-0.275C3.067,-0.256,3.503,-0.247,4.106,-0.24C4.845,-0.233,5.832,-0.233,6.57,-0.24C7.173,-0.247,7.76,-0.242,8.213,-0.275C8.534,-0.298,8.927,-0.256,9.034,-0.378C9.103,-0.456,9.034,-0.721,9.034,-0.721" fill="transparent" stroke="black" stroke-width="2"></path>
    </g>
    <g transform="translate(62.966100000000004,68.26018796875)">
      <path d="M0,1.603C0,1.603,-0.585,1.711,-0.693,1.603C-0.788,1.508,-0.703,1.246,-0.693,1.069C-0.684,0.89,-0.659,0.681,-0.635,0.534C-0.618,0.429,-0.606,0.355,-0.578,0.267C-0.549,0.177,-0.521,0.039,-0.462,0C-0.417,-0.03,-0.334,-0.03,-0.289,0C-0.23,0.039,-0.207,0.161,-0.173,0.267C-0.127,0.413,-0.086,0.604,-0.058,0.801C-0.023,1.04,-0.009,1.362,0,1.603C0.007,1.799,0.007,1.941,0,2.137C-0.009,2.377,-0.023,2.699,-0.058,2.938C-0.086,3.136,-0.127,3.327,-0.173,3.473C-0.207,3.579,-0.23,3.701,-0.289,3.74C-0.334,3.77,-0.417,3.77,-0.462,3.74C-0.521,3.701,-0.544,3.579,-0.578,3.473C-0.624,3.327,-0.693,2.938,-0.693,2.938" fill="transparent" stroke="black" stroke-width="2"></path>
    </g>
    <g transform="translate(68.17627,68.26018796875)">
      <path d="M0,0L0,-1.756" fill="transparent" stroke="black" stroke-width="2"></path>
      <path d="M0,-0.502C0,-0.502,0.727,-0.21,1.043,-0.125C1.295,-0.058,1.482,-0.023,1.738,0C2.049,0.028,2.47,0.028,2.781,0C3.037,-0.023,3.296,-0.027,3.476,-0.125C3.629,-0.21,3.753,-0.321,3.824,-0.502C3.934,-0.785,3.824,-1.756,3.824,-1.756" fill="transparent" stroke="black" stroke-width="2"></path>
    </g>
    <g transform="translate(68.17627,71.8863274765625)">
      <path d="M3.824,-0.571C3.824,-0.571,3.644,-0.283,3.476,-0.19C3.235,-0.057,2.782,-0.032,2.433,0C2.087,0.031,1.737,0.031,1.39,0C1.041,-0.032,0.588,-0.057,0.348,-0.19C0.18,-0.283,0,-0.444,0,-0.571C0,-0.697,0.195,-0.858,0.348,-0.951C0.528,-1.061,0.756,-1.087,1.043,-1.141C1.489,-1.226,2.335,-1.246,2.781,-1.331C3.067,-1.386,3.296,-1.411,3.476,-1.522C3.629,-1.615,3.78,-1.789,3.824,-1.902C3.85,-1.971,3.85,-2.024,3.824,-2.092C3.78,-2.205,3.644,-2.38,3.476,-2.473C3.235,-2.606,2.782,-2.631,2.433,-2.663C2.087,-2.694,1.737,-2.694,1.39,-2.663C1.041,-2.631,0.588,-2.606,0.348,-2.473C0.18,-2.38,0,-2.092,0,-2.092" fill="transparent" stroke="black" stroke-width="2"></path>
    </g>
    <g transform="translate(68.17627,72)">
      <path d="M0,0C0,0,-0.578,0,-0.868,0C-1.157,0,-1.735,0,-1.735,0C-1.735,0,-1.157,0,-0.868,0C-0.578,0,0,0,0,0" fill="transparent" stroke="black" stroke-width="2"></path>
      <path d="M-0.868,0L-0.868,0" fill="transparent" stroke="black" stroke-width="2"></path>
    </g>
    <g transform="translate(71.823389,72)">
      <path d="M0,0L0,-2.509" fill="transparent" stroke="black" stroke-width="2"></path>
      <path d="M0,-1.195C0,-1.195,0.017,-1.021,0.029,-0.956C0.038,-0.909,0.04,-0.851,0.059,-0.836C0.07,-0.827,0.092,-0.827,0.103,-0.836C0.122,-0.851,0.124,-0.909,0.132,-0.956C0.145,-1.021,0.155,-1.107,0.162,-1.195C0.171,-1.302,0.174,-1.446,0.177,-1.553C0.178,-1.641,0.178,-1.704,0.177,-1.792C0.174,-1.899,0.171,-2.043,0.162,-2.15C0.155,-2.238,0.145,-2.324,0.132,-2.389C0.124,-2.436,0.122,-2.494,0.103,-2.509C0.092,-2.518,0.07,-2.518,0.059,-2.509C0.04,-2.494,0.038,-2.436,0.029,-2.389C0.017,-2.324,0,-2.15,0,-2.15" fill="transparent" stroke="black" stroke-width="2"></path>
    </g>
    <g transform="translate(71.823389,72)">
      <path d="M0,0C0,0,-0.817,0,-1.225,0C-1.634,0,-2.451,0,-2.451,0C-2.451,0,-1.634,0,-1.225,0C-0.817,0,0,0,0,0" fill="transparent" stroke="black" stroke-width="2"></path>
      <path d="M-1.225,0L-1.225,0" fill="transparent" stroke="black" stroke-width="2"></path>
    </g>
    <g transform="translate(72,72)">
      <path d="M0,0L0,-2.5" fill="transparent" stroke="black" stroke-width="2"></path>
    </g>
    <g transform="translate(72,72)">
      <path d="M0,0C0,0,-0.833,0,-1.25,0C-1.667,0,-2.5,0,-2.5,0C-2.5,0,-1.667,0,-1.25,0C-0.833,0,0,0,0,0" fill="transparent" stroke="black" stroke-width="2"></path>
      <path d="M-1.25,0L-1.25,0" fill="transparent" stroke="black" stroke-width="2"></path>
    </g>
    <g transform="translate(72,72)">
      <path d="M0,0C0,0,0,-1.625,0,-2.024C0,-2.191,0,-2.294,0,-2.381C0,-2.431,0,-2.5,0,-2.5C0,-2.5,0,-2.5,0,-2.5" fill="transparent" stroke="black" stroke-width="2"></path>
      <path d="M0,-0.833L0,-0.833" fill="transparent" stroke="black" stroke-width="2"></path>
    </g>
    <g transform="translate(72,72)">
      <path d="M0,0L0,0" fill="transparent" stroke="black" stroke-width="2"></path>
      <path d="M0,0C0,0,0,0,0,0C0,0,0,0,0,0C0,0,0,0,0,0C0,0,0,0,0,0C0,0,0,0,0,0" fill="transparent" stroke="black" stroke-width="2"></path>
    </g>
  </g>
</svg>