<svg width="80" height="80" style="background: white;" xmlns="http://www.w3.org/2000/svg">
  <rect x="0" y="0" width="80" height="80" fill="transparent"></rect>
  <g transform="translate(0,0)">
    <g transform="translate(8,8)">
      <path d="M0,2.909C0,2.909,5.973,5.818,8.96,5.818C11.947,5.818,17.92,3.879,17.92,2.909C17.92,1.939,11.947,0,8.96,0C5.973,0,0,2.909,0,2.909" fill="transparent" stroke="black" stroke-width="2"></path>
      <path d="M8.96,23.273L8.96,64" fill="transparent" stroke="black" stroke-width="2"></path>
    </g>
    <g transform="translate(32.32,8)">
      <path d="M0,0L0,17.92" fill="transparent" stroke="black" stroke-width="2"></path>
      <path d="M0,5.12C0,5.12,7.546,2.145,10.822,1.28C13.438,0.589,15.377,0.234,18.036,0C21.268,-0.284,25.627,-0.284,28.858,0C31.517,0.234,34.202,0.267,36.073,1.28C37.659,2.139,38.948,3.27,39.68,5.12C40.822,8.003,39.68,17.92,39.68,17.92" fill="transparent" stroke="black" stroke-width="2"></path>
    </g>
    <g transform="translate(32.32,32.32)">
      <path d="M39.68,2.12C39.68,2.12,35.28,1.061,33.067,0.707C30.871,0.356,28.884,0.13,26.453,0C23.484,-0.158,19.502,-0.158,16.533,0C14.102,0.13,12.115,0.356,9.92,0.707C7.706,1.061,5.081,1.39,3.307,2.12C1.955,2.677,0.413,3.485,0,4.24C-0.248,4.694,-0.248,5.2,0,5.654C0.413,6.41,1.955,7.218,3.307,7.774C5.081,8.504,7.706,8.834,9.92,9.188C12.115,9.539,14.102,9.765,16.533,9.894C19.502,10.053,23.484,10.053,26.453,9.894C28.884,9.765,30.871,9.539,33.067,9.188C35.28,8.834,39.68,7.774,39.68,7.774" fill="transparent" stroke="black" stroke-width="2"></path>
    </g>
    <g transform="translate(32.32,48.6144)">
      <path d="M15.262,0C15.262,0,11.19,0.162,9.157,0.323C7.12,0.484,4.724,0.618,3.052,0.968C1.845,1.22,0.315,1.505,0,1.936C-0.142,2.129,-0.142,2.388,0,2.581C0.315,3.012,1.845,3.297,3.052,3.549C4.724,3.899,7.12,4.033,9.157,4.195C11.19,4.356,13.02,4.458,15.262,4.517C18.005,4.59,21.675,4.59,24.418,4.517C26.66,4.458,28.49,4.356,30.523,4.195C32.56,4.033,34.956,3.899,36.628,3.549C37.835,3.297,39.365,3.012,39.68,2.581C39.822,2.388,39.822,2.129,39.68,1.936C39.365,1.505,37.835,1.22,36.628,0.968C34.956,0.618,32.56,0.484,30.523,0.323C28.49,0.162,26.66,0.059,24.418,0C21.675,-0.072,15.262,0,15.262,0" fill="transparent" stroke="black" stroke-width="2"></path>
    </g>
    <g transform="translate(32.32,59.531648000000004)">
      <path d="M0,0L0,12.468" fill="transparent" stroke="black" stroke-width="2"></path>
      <path d="M0,3.562C0,3.562,0.893,1.518,1.349,0.891C1.646,0.482,1.882,0.151,2.249,0C2.627,-0.156,3.219,-0.156,3.598,0C3.965,0.151,4.278,0.467,4.497,0.891C4.819,1.51,4.851,2.406,4.947,3.562C5.122,5.658,4.947,12.468,4.947,12.468" fill="transparent" stroke="black" stroke-width="2"></path>
      <path d="M4.947,3.562C4.947,3.562,5.84,1.518,6.296,0.891C6.593,0.482,6.829,0.151,7.196,0C7.574,-0.156,8.167,-0.156,8.545,0C8.912,0.151,9.225,0.467,9.445,0.891C9.766,1.51,9.798,2.406,9.894,3.562C10.07,5.658,9.894,12.468,9.894,12.468" fill="transparent" stroke="black" stroke-width="2"></path>
    </g>
    <g transform="translate(48.6144,59.531648000000004)">
      <path d="M0,0L0,12.468" fill="transparent" stroke="black" stroke-width="2"></path>
      <path d="M0,1.781C0,1.781,0.473,0.904,0.753,0.594C0.984,0.337,1.209,0.103,1.506,0C1.828,-0.112,2.313,-0.112,2.635,0C2.932,0.103,3.157,0.337,3.388,0.594C3.668,0.904,3.956,1.326,4.141,1.781C4.351,2.299,4.461,3.026,4.517,3.562C4.563,3.996,4.563,4.317,4.517,4.75C4.461,5.286,4.351,6.014,4.141,6.531C3.956,6.986,3.668,7.408,3.388,7.719C3.157,7.975,2.932,8.209,2.635,8.312C2.313,8.424,1.828,8.424,1.506,8.312C1.209,8.209,0.984,7.975,0.753,7.719C0.473,7.408,0,6.531,0,6.531" fill="transparent" stroke="black" stroke-width="2"></path>
    </g>
    <g transform="translate(59.531648000000004,59.531648000000004)">
      <path d="M0,0L0,0.915" fill="transparent" stroke="black" stroke-width="2"></path>
      <path d="M0,0.392C0,0.392,0.949,0.247,1.559,0.196C2.418,0.124,3.636,0.098,4.676,0.065C5.714,0.033,6.649,0.012,7.793,0C9.194,-0.015,12.468,0,12.468,0" fill="transparent" stroke="black" stroke-width="2"></path>
    </g>
    <g transform="translate(59.531648000000004,66.84620416)">
      <path d="M0,2.209C0,2.209,0.77,2.353,0.915,2.209C1.044,2.079,0.927,1.718,0.915,1.473C0.902,1.227,0.87,0.939,0.838,0.736C0.816,0.592,0.799,0.489,0.762,0.368C0.724,0.244,0.689,0.053,0.61,0C0.55,-0.04,0.441,-0.04,0.381,0C0.302,0.053,0.274,0.222,0.229,0.368C0.167,0.569,0.114,0.833,0.076,1.104C0.031,1.434,0.011,1.878,0,2.209C-0.009,2.479,-0.009,2.675,0,2.945C0.011,3.276,0.031,3.72,0.076,4.049C0.114,4.321,0.167,4.585,0.229,4.786C0.274,4.932,0.302,5.101,0.381,5.154C0.441,5.194,0.55,5.194,0.61,5.154C0.689,5.101,0.717,4.932,0.762,4.786C0.824,4.585,0.915,4.049,0.915,4.049" fill="transparent" stroke="black" stroke-width="2"></path>
    </g>
    <g transform="translate(66.84620416,66.84620416)">
      <path d="M0,0L0,-1.499" fill="transparent" stroke="black" stroke-width="2"></path>
      <path d="M0,-0.785C0,-0.785,0.984,-0.619,1.406,-0.571C1.749,-0.532,1.998,-0.513,2.343,-0.5C2.764,-0.484,3.327,-0.484,3.748,-0.5C4.092,-0.513,4.431,-0.506,4.685,-0.571C4.873,-0.62,5.069,-0.654,5.154,-0.785C5.253,-0.94,5.154,-1.499,5.154,-1.499" fill="transparent" stroke="black" stroke-width="2"></path>
    </g>
    <g transform="translate(66.84620416,71.7469567872)">
      <path d="M0,0.108C0,0.108,-1.432,0.176,-1.499,0.108C-1.51,0.098,-1.507,0.082,-1.499,0.072C-1.485,0.053,-1.416,0.045,-1.374,0.036C-1.333,0.027,-1.298,0.023,-1.249,0.018C-1.18,0.011,-1.091,0.003,-0.999,0C-0.887,-0.004,-0.737,-0.004,-0.625,0C-0.533,0.003,-0.458,0.009,-0.375,0.018C-0.291,0.027,-0.193,0.035,-0.125,0.054C-0.075,0.068,-0.014,0.087,0,0.108C0.007,0.12,0.007,0.133,0,0.145C-0.014,0.166,-0.075,0.185,-0.125,0.199C-0.193,0.218,-0.291,0.226,-0.375,0.235C-0.458,0.244,-0.533,0.25,-0.625,0.253C-0.737,0.257,-0.887,0.257,-0.999,0.253C-1.091,0.25,-1.166,0.244,-1.249,0.235C-1.333,0.226,-1.499,0.199,-1.499,0.199" fill="transparent" stroke="black" stroke-width="2"></path>
    </g>
    <g transform="translate(71.7469567872,71.7469567872)">
      <path d="M0,0L0,-3.116" fill="transparent" stroke="black" stroke-width="2"></path>
      <path d="M0,-0.89C0,-0.89,0.044,-0.385,0.069,-0.223C0.084,-0.128,0.083,-0.026,0.115,0C0.133,0.015,0.166,0.015,0.184,0C0.216,-0.026,0.219,-0.128,0.23,-0.223C0.249,-0.385,0.248,-0.603,0.253,-0.89C0.262,-1.416,0.253,-3.116,0.253,-3.116" fill="transparent" stroke="black" stroke-width="2"></path>
    </g>
    <g transform="translate(71.7469567872,72)">
      <path d="M0.253,-0.686C0.253,-0.686,0.252,-0.354,0.23,-0.229C0.214,-0.138,0.197,-0.027,0.161,0C0.142,0.014,0.111,0.014,0.092,0C0.056,-0.027,0.039,-0.138,0.023,-0.229C0.001,-0.354,0,-0.533,0,-0.686C0,-0.838,0.007,-1.017,0.023,-1.143C0.034,-1.233,0.043,-1.297,0.069,-1.371C0.096,-1.449,0.157,-1.522,0.184,-1.6C0.21,-1.674,0.219,-1.739,0.23,-1.829C0.246,-1.954,0.25,-2.159,0.253,-2.286C0.255,-2.375,0.255,-2.425,0.253,-2.514C0.25,-2.641,0.252,-2.846,0.23,-2.971C0.214,-3.062,0.197,-3.173,0.161,-3.2C0.142,-3.214,0.111,-3.214,0.092,-3.2C0.056,-3.173,0.039,-3.062,0.023,-2.971C0.001,-2.846,0,-2.514,0,-2.514" fill="transparent" stroke="black" stroke-width="2"></path>
    </g>
    <g transform="translate(71.7469567872,72)">
      <path d="M0,0C0,0,-1.039,0,-1.558,0C-2.078,0,-3.116,0,-3.116,0C-3.116,0,-2.078,0,-1.558,0C-1.039,0,0,0,0,0" fill="transparent" stroke="black" stroke-width="2"></path>
      <path d="M-1.558,0L-1.558,0" fill="transparent" stroke="black" stroke-width="2"></path>
    </g>
    <g transform="translate(72,72)">
      <path d="M0,0L0,-3.2" fill="transparent" stroke="black" stroke-width="2"></path>
      <path d="M0,-1.524C0,-1.524,0,-1.303,0,-1.219C0,-1.16,0,-1.067,0,-1.067C0,-1.067,0,-1.067,0,-1.067C0,-1.067,0,-1.16,0,-1.219C0,-1.303,0,-1.412,0,-1.524C0,-1.661,0,-1.844,0,-1.981C0,-2.093,0,-2.174,0,-2.286C0,-2.423,0,-2.606,0,-2.743C0,-2.855,0,-2.963,0,-3.048C0,-3.107,0,-3.2,0,-3.2C0,-3.2,0,-3.2,0,-3.2C0,-3.2,0,-3.107,0,-3.048C0,-2.963,0,-2.743,0,-2.743" fill="transparent" stroke="black" stroke-width="2"></path>
    </g>
    <g transform="translate(72,72)">
      <path d="M0,0C0,0,-1.067,0,-1.6,0C-2.133,0,-3.2,0,-3.2,0C-3.2,0,-2.133,0,-1.6,0C-1.067,0,0,0,0,0" fill="transparent" stroke="black" stroke-width="2"></path>
      <path d="M-1.6,0L-1.6,0" fill="transparent" stroke="black" stroke-width="2"></path>
    </g>
    <g transform="translate(72,72)">
      <path d="M0,0L0,-3.2" fill="transparent" stroke="black" stroke-width="2"></path>
    </g>
    <g transform="translate(72,72)">
      <path d="M0,0C0,0,-1.067,0,-1.6,0C-2.133,0,-3.2,0,-3.2,0C-3.2,0,-2.133,0,-1.6,0C-1.067,0,0,0,0,0" fill="transparent" stroke="black" stroke-width="2"></path>
      <path d="M-1.6,0L-1.6,0" fill="transparent" stroke="black" stroke-width="2"></path>
    </g>
    <g transform="translate(72,72)">
      <path d="M0,0C0,0,0,-2.08,0,-2.59C0,-2.805,0,-2.936,0,-3.048C0,-3.112,0,-3.2,0,-3.2C0,-3.2,0,-3.2,0,-3.2" fill="transparent" stroke="black" stroke-width="2"></path>
      <path d="M0,-1.067L0,-1.067" fill="transparent" stroke="black" stroke-width="2"></path>
    </g>
    <g transform="translate(72,72)">
      <path d="M0,0L0,0" fill="transparent" stroke="black" stroke-width="2"></path>
      <path d="M0,0C0,0,0,0,0,0C0,0,0,0,0,0C0,0,0,0,0,0C0,0,0,0,0,0C0,0,0,0,0,0" fill="transparent" stroke="black" stroke-width="2"></path>
    </g>
  </g>
</svg>