<svg width="160" height="80" style="background: white;" xmlns="http://www.w3.org/2000/svg">
  <g transform="translate(0,0)">
    <g transform="translate(8,8)">
      <path d="M2.688,0L2.688,64" fill="transparent" stroke="black" stroke-width="2"></path>
      <path d="M3.584,3.048L3.584,60.952" fill="transparent" stroke="black" stroke-width="2"></path>
      <path d="M4.48,0L4.48,64" fill="transparent" stroke="black" stroke-width="2"></path>
      <path d="M13.44,0L13.44,64" fill="transparent" stroke="black" stroke-width="2"></path>
      <path d="M14.336,3.048L14.336,60.952" fill="transparent" stroke="black" stroke-width="2"></path>
      <path d="M15.232,0L15.232,64" fill="transparent" stroke="black" stroke-width="2"></path>
      <path d="M0,0L7.168,0" fill="transparent" stroke="black" stroke-width="2"></path>
      <path d="M10.752,0L17.92,0" fill="transparent" stroke="black" stroke-width="2"></path>
      <path d="M4.48,30.476L13.44,30.476" fill="transparent" stroke="black" stroke-width="2"></path>
      <path d="M0,64L7.168,64" fill="transparent" stroke="black" stroke-width="2"></path>
      <path d="M10.752,64L17.92,64" fill="transparent" stroke="black" stroke-width="2"></path>
      <path d="M0.896,0L2.688,3.048" fill="transparent" stroke="black" stroke-width="2"></path>
      <path d="M1.792,0L2.688,6.095" fill="transparent" stroke="black" stroke-width="2"></path>
      <path d="M5.376,0L4.48,6.095" fill="transparent" stroke="black" stroke-width="2"></path>
      <path d="M6.272,0L4.48,3.048" fill="transparent" stroke="black" stroke-width="2"></path>
      <path d="M11.648,0L13.44,3.048" fill="transparent" stroke="black" stroke-width="2"></path>
      <path d="M12.544,0L13.44,6.095" fill="transparent" stroke="black" stroke-width="2"></path>
      <path d="M16.128,0L15.232,6.095" fill="transparent" stroke="black" stroke-width="2"></path>
      <path d="M17.024,0L15.232,3.048" fill="transparent" stroke="black" stroke-width="2"></path>
      <path d="M2.688,60.952L0.896,64" fill="transparent" stroke="black" stroke-width="2"></path>
      <path d="M2.688,57.905L1.792,64" fill="transparent" stroke="black" stroke-width="2"></path>
      <path d="M4.48,57.905L5.376,64" fill="transparent" stroke="black" stroke-width="2"></path>
      <path d="M4.48,60.952L6.272,64" fill="transparent" stroke="black" stroke-width="2"></path>
      <path d="M13.44,60.952L11.648,64" fill="transparent" stroke="black" stroke-width="2"></path>
      <path d="M13.44,57.905L12.544,64" fill="transparent" stroke="black" stroke-width="2"></path>
      <path d="M15.232,57.905L16.128,64" fill="transparent" stroke="black" stroke-width="2"></path>
      <path d="M15.232,60.952L17.024,64" fill="transparent" stroke="black" stroke-width="2"></path>
    </g>
    <g transform="translate(32.32,8)">
      <path d="M3.307,11.52C3.307,11.52,12.444,10.702,16.533,10.24C20.081,9.84,23.166,9.594,26.453,8.96C29.78,8.319,34.032,7.548,36.373,6.4C37.869,5.667,39.68,4.693,39.68,3.84C39.68,2.987,37.755,1.905,36.373,1.28C34.619,0.486,32.2,0.234,29.76,0C26.8,-0.284,23.14,-0.212,19.84,0C16.526,0.213,12.808,0.3,9.92,1.28C7.395,2.137,5.042,3.679,3.307,5.12C1.894,6.293,0.458,7.726,0,8.96C-0.325,9.837,-0.325,10.643,0,11.52C0.458,12.754,2.087,14.499,3.307,15.36C4.327,16.08,5.302,16.263,6.613,16.64C8.421,17.16,11.012,17.708,13.227,17.92C15.421,18.13,17.418,18.076,19.84,17.92C22.818,17.729,26.827,17.385,29.76,16.64C32.229,16.013,36.373,14.08,36.373,14.08" fill="transparent" stroke="black" stroke-width="2"></path>
      <path d="M9.92,2.56C9.92,2.56,7.668,4.119,6.613,5.12C5.453,6.222,3.82,7.578,3.307,8.96C2.86,10.163,2.79,11.746,3.307,12.8C3.846,13.9,6.613,15.36,6.613,15.36" fill="transparent" stroke="black" stroke-width="2"></path>
      <path d="M19.84,0C19.84,0,14.996,1.561,13.227,2.56C11.868,3.327,10.974,4.119,9.92,5.12C8.76,6.222,7.126,7.578,6.613,8.96C6.167,10.163,6.167,11.597,6.613,12.8C7.126,14.182,8.7,15.779,9.92,16.64C10.94,17.36,13.227,17.92,13.227,17.92" fill="transparent" stroke="black" stroke-width="2"></path>
    </g>
    <g transform="translate(32.32,32.32)">
      <path d="M22.674,0C22.674,0,9.812,3.863,5.669,5.183C3.267,5.948,0.618,6.21,0,7.067C-0.301,7.484,-0.311,8.114,0,8.481C0.626,9.22,3.774,9.187,5.669,9.423C7.553,9.658,9.121,9.802,11.337,9.894C14.466,10.024,18.898,10.051,22.674,9.894C26.457,9.737,30.887,9.341,34.011,8.952C36.232,8.676,39.68,8.01,39.68,8.01" fill="transparent" stroke="black" stroke-width="2"></path>
      <path d="M28.343,0C28.343,0,15.481,3.863,11.337,5.183C8.935,5.948,6.397,6.057,5.669,7.067C5.211,7.702,5.669,9.423,5.669,9.423" fill="transparent" stroke="black" stroke-width="2"></path>
      <path d="M5.669,0C5.669,0,33.832,-1.259,34.011,0C34.175,1.15,16.366,5.029,11.337,6.596C8.808,7.384,5.669,8.481,5.669,8.481" fill="transparent" stroke="black" stroke-width="2"></path>
      <path d="M11.337,0L28.343,0.471" fill="transparent" stroke="black" stroke-width="2"></path>
      <path d="M17.006,0L22.674,0.942" fill="transparent" stroke="black" stroke-width="2"></path>
    </g>
    <g transform="translate(32.32,48.6144)">
      <path d="M9.509,0C9.509,0,4.097,9.166,2.377,12.25C1.351,14.09,0.355,15.283,0,16.704C-0.289,17.86,-0.404,19.113,0,20.045C0.399,20.965,1.537,21.703,2.377,22.272C3.131,22.783,3.798,23.173,4.754,23.386C6.042,23.672,7.961,23.73,9.509,23.386C11.135,23.024,13.002,22.013,14.263,21.158C15.256,20.485,16.64,18.931,16.64,18.931" fill="transparent" stroke="black" stroke-width="2"></path>
      <path d="M11.886,0C11.886,0,6.474,9.166,4.754,12.25C3.728,14.09,2.783,15.081,2.377,16.704C1.951,18.408,2.377,22.272,2.377,22.272" fill="transparent" stroke="black" stroke-width="2"></path>
      <path d="M2.377,0C2.377,0,13.212,-1.872,14.263,0C15.566,2.32,6.834,11.949,4.754,15.59C3.661,17.505,2.377,20.045,2.377,20.045" fill="transparent" stroke="black" stroke-width="2"></path>
      <path d="M4.754,0L11.886,1.114" fill="transparent" stroke="black" stroke-width="2"></path>
      <path d="M7.131,0L9.509,2.227" fill="transparent" stroke="black" stroke-width="2"></path>
    </g>
    <g transform="translate(55.36,48.6144)">
      <path d="M7.131,0C7.131,0,4.516,0.725,3.566,1.67C2.438,2.793,1.787,4.979,1.189,6.682C0.612,8.322,0.177,10.182,0,11.693C-0.142,12.91,-0.142,13.817,0,15.034C0.177,16.545,0.65,18.857,1.189,20.045C1.528,20.794,1.788,21.223,2.377,21.715C3.194,22.397,4.723,23.114,5.943,23.386C7.103,23.644,8.348,23.644,9.509,23.386C10.728,23.114,12.124,22.661,13.074,21.715C14.202,20.593,14.853,18.407,15.451,16.704C16.028,15.063,16.463,13.204,16.64,11.693C16.782,10.476,16.782,9.569,16.64,8.352C16.463,6.841,15.99,4.528,15.451,3.341C15.112,2.592,14.852,2.162,14.263,1.67C13.446,0.989,11.917,0.271,10.697,0C9.537,-0.258,7.131,0,7.131,0" fill="transparent" stroke="black" stroke-width="2"></path>
      <path d="M3.566,3.341C3.566,3.341,2.743,5.444,2.377,6.682C1.937,8.173,1.385,10.011,1.189,11.693C0.995,13.352,0.933,15.222,1.189,16.704C1.404,17.951,2.377,20.045,2.377,20.045" fill="transparent" stroke="black" stroke-width="2"></path>
      <path d="M13.074,20.045C13.074,20.045,13.897,17.941,14.263,16.704C14.703,15.213,15.255,13.375,15.451,11.693C15.645,10.034,15.707,8.164,15.451,6.682C15.236,5.435,14.263,3.341,14.263,3.341" fill="transparent" stroke="black" stroke-width="2"></path>
      <path d="M7.131,0C7.131,0,5.357,2.184,4.754,3.341C4.194,4.417,3.931,5.444,3.566,6.682C3.125,8.173,2.574,10.011,2.377,11.693C2.183,13.352,2.183,15.045,2.377,16.704C2.574,18.386,2.793,20.575,3.566,21.715C4.146,22.571,5.943,23.386,5.943,23.386" fill="transparent" stroke="black" stroke-width="2"></path>
      <path d="M9.509,23.386C9.509,23.386,11.283,21.202,11.886,20.045C12.446,18.969,12.709,17.941,13.074,16.704C13.515,15.213,14.066,13.375,14.263,11.693C14.457,10.034,14.457,8.341,14.263,6.682C14.066,5,13.847,2.81,13.074,1.67C12.494,0.814,10.697,0,10.697,0" fill="transparent" stroke="black" stroke-width="2"></path>
    </g>
  </g>
  <g transform="translate(80,0)">
    <g transform="translate(8,8)">
      <path d="M2.444,0L5.702,64" fill="transparent" stroke="black" stroke-width="2"></path>
      <path d="M3.258,0C3.258,0,5.41,37.103,5.702,48.762C5.865,55.275,5.702,64,5.702,64" fill="transparent" stroke="black" stroke-width="2"></path>
      <path d="M4.073,0L6.516,48.762" fill="transparent" stroke="black" stroke-width="2"></path>
      <path d="M8.96,0C8.96,0,7.12,37.106,6.516,48.762C6.179,55.278,5.702,64,5.702,64" fill="transparent" stroke="black" stroke-width="2"></path>
      <path d="M8.96,0L12.218,64" fill="transparent" stroke="black" stroke-width="2"></path>
      <path d="M9.775,0C9.775,0,11.926,37.103,12.218,48.762C12.381,55.275,12.218,64,12.218,64" fill="transparent" stroke="black" stroke-width="2"></path>
      <path d="M10.589,0L13.033,48.762" fill="transparent" stroke="black" stroke-width="2"></path>
      <path d="M15.476,3.048C15.476,3.048,13.629,37.607,13.033,48.762C12.688,55.202,12.218,64,12.218,64" fill="transparent" stroke="black" stroke-width="2"></path>
      <path d="M0,0L6.516,0" fill="transparent" stroke="black" stroke-width="2"></path>
      <path d="M8.96,0L10.589,0" fill="transparent" stroke="black" stroke-width="2"></path>
      <path d="M13.033,0L17.92,0" fill="transparent" stroke="black" stroke-width="2"></path>
      <path d="M0.815,0L3.258,3.048" fill="transparent" stroke="black" stroke-width="2"></path>
      <path d="M1.629,0L3.258,6.095" fill="transparent" stroke="black" stroke-width="2"></path>
      <path d="M4.887,0L4.073,6.095" fill="transparent" stroke="black" stroke-width="2"></path>
      <path d="M5.702,0L4.073,3.048" fill="transparent" stroke="black" stroke-width="2"></path>
      <path d="M13.847,0L15.476,3.048" fill="transparent" stroke="black" stroke-width="2"></path>
      <path d="M17.105,0L15.476,3.048" fill="transparent" stroke="black" stroke-width="2"></path>
    </g>
    <g transform="translate(32.32,8)">
      <path d="M17.006,0C17.006,0,10.958,0.321,8.503,1.28C6.312,2.136,4.311,3.702,2.834,5.12C1.602,6.304,0.399,7.746,0,8.96C-0.293,9.849,-0.293,10.631,0,11.52C0.399,12.734,1.765,14.496,2.834,15.36C3.698,16.058,4.438,16.277,5.669,16.64C7.714,17.243,11.329,17.707,14.171,17.92C16.998,18.132,19.848,18.132,22.674,17.92C25.517,17.707,28.722,17.599,31.177,16.64C33.368,15.784,35.369,14.218,36.846,12.8C38.078,11.616,39.281,10.174,39.68,8.96C39.973,8.071,39.973,7.289,39.68,6.4C39.281,5.186,37.915,3.424,36.846,2.56C35.982,1.862,35.242,1.643,34.011,1.28C31.966,0.677,28.351,0.213,25.509,0C22.682,-0.212,17.006,0,17.006,0" fill="transparent" stroke="black" stroke-width="2"></path>
      <path d="M8.503,2.56C8.503,2.56,6.566,4.129,5.669,5.12C4.665,6.228,3.281,7.603,2.834,8.96C2.434,10.178,2.36,11.732,2.834,12.8C3.307,13.865,5.669,15.36,5.669,15.36" fill="transparent" stroke="black" stroke-width="2"></path>
      <path d="M31.177,15.36C31.177,15.36,33.114,13.791,34.011,12.8C35.015,11.692,36.399,10.317,36.846,8.96C37.246,7.742,37.32,6.188,36.846,5.12C36.373,4.055,34.011,2.56,34.011,2.56" fill="transparent" stroke="black" stroke-width="2"></path>
      <path d="M17.006,0C17.006,0,12.843,1.575,11.337,2.56C10.157,3.332,9.401,4.129,8.503,5.12C7.499,6.228,6.115,7.603,5.669,8.96C5.268,10.178,5.268,11.582,5.669,12.8C6.115,14.157,7.193,15.785,8.503,16.64C9.948,17.584,14.171,17.92,14.171,17.92" fill="transparent" stroke="black" stroke-width="2"></path>
      <path d="M22.674,17.92C22.674,17.92,26.837,16.345,28.343,15.36C29.523,14.588,30.279,13.791,31.177,12.8C32.181,11.692,33.565,10.317,34.011,8.96C34.412,7.742,34.412,6.338,34.011,5.12C33.565,3.763,32.487,2.135,31.177,1.28C29.732,0.336,25.509,0,25.509,0" fill="transparent" stroke="black" stroke-width="2"></path>
    </g>
    <g transform="translate(32.32,32.32)">
      <path d="M0,2.827C0,2.827,1.481,1.833,2.48,1.413C3.822,0.849,5.77,0.233,7.44,0C9.078,-0.229,11.041,-0.19,12.4,0C13.38,0.137,14.073,0.368,14.88,0.707C15.729,1.063,16.948,1.411,17.36,2.12C17.77,2.826,17.768,3.964,17.36,4.947C16.718,6.495,12.4,9.894,12.4,9.894" fill="transparent" stroke="black" stroke-width="2"></path>
      <path d="M14.88,0.707C14.88,0.707,15.443,3.591,14.88,4.947C14.157,6.691,9.92,9.894,9.92,9.894" fill="transparent" stroke="black" stroke-width="2"></path>
      <path d="M14.88,2.12C14.88,2.12,13.389,3.892,12.4,4.947C11.05,6.387,7.128,9.141,7.44,9.894C7.702,10.528,12.4,9.894,12.4,9.894" fill="transparent" stroke="black" stroke-width="2"></path>
      <path d="M37.2,1.413C37.2,1.413,37.354,0.86,37.2,0.707C36.912,0.419,35.076,0.351,34.72,0.707C34.452,0.975,34.413,1.813,34.72,2.12C35.295,2.696,39.105,2.696,39.68,2.12C39.987,1.813,39.94,1.052,39.68,0.707C39.328,0.241,38.18,0.137,37.2,0C35.841,-0.19,33.889,-0.117,32.24,0C30.582,0.117,28.922,0.358,27.28,0.707C25.615,1.061,23.933,1.442,22.32,2.12C20.622,2.834,17.36,4.947,17.36,4.947" fill="transparent" stroke="black" stroke-width="2"></path>
    </g>
    <g transform="translate(32.32,48.6144)">
      <path d="M22.674,0C22.674,0,9.814,3.315,5.669,4.449C3.268,5.105,0.59,5.285,0,6.066C-0.268,6.421,-0.274,6.963,0,7.28C0.596,7.966,3.775,7.886,5.669,8.088C7.555,8.29,9.122,8.414,11.337,8.493C14.466,8.604,18.898,8.627,22.674,8.493C26.456,8.358,30.886,8.018,34.011,7.684C36.23,7.447,39.68,6.875,39.68,6.875" fill="transparent" stroke="black" stroke-width="2"></path>
      <path d="M28.343,0C28.343,0,15.482,3.315,11.337,4.449C8.937,5.105,6.366,5.141,5.669,6.066C5.26,6.608,5.669,8.088,5.669,8.088" fill="transparent" stroke="black" stroke-width="2"></path>
      <path d="M5.669,0C5.669,0,33.877,-1.089,34.011,0C34.133,0.989,16.368,4.316,11.337,5.662C8.81,6.338,5.669,7.28,5.669,7.28" fill="transparent" stroke="black" stroke-width="2"></path>
      <path d="M11.337,0L28.343,0.404" fill="transparent" stroke="black" stroke-width="2"></path>
      <path d="M17.006,0L22.674,0.809" fill="transparent" stroke="black" stroke-width="2"></path>
    </g>
    <g transform="translate(32.32,63.507200000000005)">
      <path d="M33.067,0C33.067,0,28.059,3.32,26.453,4.449C25.513,5.109,24.543,5.486,24.249,6.066C24.053,6.453,24.028,6.963,24.249,7.28C24.556,7.72,25.71,7.885,26.453,8.088C27.18,8.287,27.793,8.414,28.658,8.493C29.871,8.603,31.603,8.626,33.067,8.493C34.542,8.359,36.27,8.013,37.476,7.684C38.348,7.446,39.68,6.875,39.68,6.875" fill="transparent" stroke="black" stroke-width="2"></path>
      <path d="M35.271,0C35.271,0,30.263,3.32,28.658,4.449C27.717,5.109,26.793,5.396,26.453,6.066C26.161,6.643,26.453,8.088,26.453,8.088" fill="transparent" stroke="black" stroke-width="2"></path>
      <path d="M26.453,0C26.453,0,37.188,-0.98,37.476,0C37.756,0.956,30.604,4.325,28.658,5.662C27.664,6.345,26.453,7.28,26.453,7.28" fill="transparent" stroke="black" stroke-width="2"></path>
      <path d="M24.249,5.662C24.249,5.662,24.458,4.802,24.249,4.449C23.948,3.939,22.94,3.51,22.044,3.235C20.857,2.872,19.107,2.898,17.636,2.831C16.167,2.764,14.844,2.782,13.227,2.831C11.244,2.891,8.58,2.908,6.613,3.235C4.98,3.507,3.399,3.963,2.204,4.449C1.318,4.809,0.266,5.212,0,5.662C-0.151,5.917,-0.151,6.216,0,6.471C0.266,6.921,1.447,7.414,2.204,7.684C2.919,7.939,3.545,7.97,4.409,8.088C5.623,8.255,7.347,8.425,8.818,8.493C10.286,8.56,11.759,8.56,13.227,8.493C14.698,8.425,16.421,8.255,17.636,8.088C18.5,7.97,19.114,7.882,19.84,7.684C20.584,7.481,21.322,7.204,22.044,6.875C22.792,6.534,24.249,5.662,24.249,5.662" fill="transparent" stroke="black" stroke-width="2"></path>
      <path d="M6.613,3.64C6.613,3.64,5.131,4.12,4.409,4.449C3.661,4.789,2.506,5.152,2.204,5.662C1.995,6.016,1.984,6.559,2.204,6.875C2.512,7.315,4.409,7.684,4.409,7.684" fill="transparent" stroke="black" stroke-width="2"></path>
      <path d="M13.227,2.831C13.227,2.831,10.024,3.31,8.818,3.64C7.945,3.878,7.336,4.12,6.613,4.449C5.865,4.789,4.71,5.152,4.409,5.662C4.2,6.016,4.2,6.521,4.409,6.875C4.71,7.385,5.856,7.819,6.613,8.088C7.328,8.343,8.818,8.493,8.818,8.493" fill="transparent" stroke="black" stroke-width="2"></path>
      <path d="M28.658,0L35.271,0.404" fill="transparent" stroke="black" stroke-width="2"></path>
      <path d="M30.862,0L33.067,0.809" fill="transparent" stroke="black" stroke-width="2"></path>
    </g>
  </g>
</svg>