<svg width="160" height="80" style="background: white;" xmlns="http://www.w3.org/2000/svg">
  <rect x="0" y="0" width="160" height="80" fill="transparent"></rect>
  <g transform="translate(0,0)">
    <rect x="16" y="16" width="13.439999999999998" height="48" stroke="#eee" fill="none"></rect>
    <rect x="34.24" y="16" width="29.759999999999998" height="13.439999999999998" stroke="#eee" fill="none"></rect>
    <rect x="34.24" y="34.24" width="29.759999999999998" height="7.4208" stroke="#eee" fill="none"></rect>
    <rect x="34.24" y="46.4608" width="12.480000000000004" height="17.5392" stroke="#eee" fill="none"></rect>
    <rect x="51.52" y="46.4608" width="12.479999999999997" height="17.5392" stroke="#eee" fill="none"></rect>
  </g>
  <g transform="translate(80,0)">
    <rect x="16" y="16" width="13.439999999999998" height="48" stroke="#eee" fill="none"></rect>
    <rect x="34.24" y="16" width="29.759999999999998" height="13.439999999999998" stroke="#eee" fill="none"></rect>
    <rect x="34.24" y="34.24" width="29.759999999999998" height="7.4208" stroke="#eee" fill="none"></rect>
    <rect x="34.24" y="46.4608" width="29.759999999999998" height="6.3696000000000055" stroke="#eee" fill="none"></rect>
    <rect x="34.24" y="57.6304" width="29.759999999999998" height="6.369599999999998" stroke="#eee" fill="none"></rect>
  </g>
  <g transform="translate(0,0)">
    <g transform="translate(16,16)">
      <path d="M0,0L0,48" fill="transparent" stroke="black" stroke-width="2"></path>
      <path d="M13.44,0L13.44,48" fill="transparent" stroke="black" stroke-width="2"></path>
      <path d="M0,22.857L13.44,22.857" fill="transparent" stroke="black" stroke-width="2"></path>
    </g>
    <g transform="translate(34.24,16)">
      <path d="M0,5.76C0,5.76,27.751,7.769,29.76,5.76C30.27,5.25,30.044,4.419,29.76,3.84C29.397,3.1,28.144,2.408,27.28,1.92C26.485,1.471,25.783,1.243,24.8,0.96C23.445,0.57,21.67,0.175,19.84,0C17.62,-0.213,14.62,-0.213,12.4,0C10.57,0.175,9.073,0.49,7.44,0.96C5.765,1.442,3.767,1.971,2.48,2.88C1.392,3.648,0.343,4.835,0,5.76C-0.244,6.418,-0.244,7.022,0,7.68C0.343,8.605,1.392,9.792,2.48,10.56C3.767,11.469,5.765,11.998,7.44,12.48C9.073,12.95,10.57,13.265,12.4,13.44C14.62,13.653,17.62,13.653,19.84,13.44C21.67,13.265,23.167,12.95,24.8,12.48C26.475,11.998,29.76,10.56,29.76,10.56" fill="transparent" stroke="black" stroke-width="2"></path>
    </g>
    <g transform="translate(34.24,34.24)">
      <path d="M14.88,0L14.88,7.421" fill="transparent" stroke="black" stroke-width="2"></path>
    </g>
    <g transform="translate(34.24,46.4608)">
      <path d="M6.24,0L6.24,17.539" fill="transparent" stroke="black" stroke-width="2"></path>
    </g>
    <g transform="translate(51.52,46.4608)">
      <path d="M4.8,0C4.8,0,3.476,0.7,2.88,1.253C2.18,1.902,1.433,2.783,0.96,3.758C0.435,4.839,0.143,6.382,0,7.517C-0.115,8.428,-0.115,9.111,0,10.022C0.143,11.157,0.435,12.7,0.96,13.781C1.433,14.756,2.18,15.638,2.88,16.286C3.476,16.839,4.058,17.319,4.8,17.539C5.632,17.787,6.848,17.787,7.68,17.539C8.422,17.319,9.004,16.839,9.6,16.286C10.3,15.638,11.047,14.756,11.52,13.781C12.045,12.7,12.337,11.157,12.48,10.022C12.595,9.111,12.595,8.428,12.48,7.517C12.337,6.382,12.045,4.839,11.52,3.758C11.047,2.783,10.3,1.902,9.6,1.253C9.004,0.7,8.422,0.221,7.68,0C6.848,-0.247,4.8,0,4.8,0" fill="transparent" stroke="black" stroke-width="2"></path>
    </g>
  </g>
  <g transform="translate(80,0)">
    <g transform="translate(16,16)">
      <path d="M0,0L3.36,48" fill="transparent" stroke="black" stroke-width="2"></path>
      <path d="M6.72,0L3.36,48" fill="transparent" stroke="black" stroke-width="2"></path>
      <path d="M6.72,0L10.08,48" fill="transparent" stroke="black" stroke-width="2"></path>
      <path d="M13.44,0L10.08,48" fill="transparent" stroke="black" stroke-width="2"></path>
    </g>
    <g transform="translate(34.24,16)">
      <path d="M11.446,0C11.446,0,8.372,0.492,6.868,0.96C5.318,1.443,3.472,1.985,2.289,2.88C1.271,3.651,0.32,4.843,0,5.76C-0.231,6.422,-0.231,7.018,0,7.68C0.32,8.597,1.271,9.789,2.289,10.56C3.472,11.455,5.318,11.997,6.868,12.48C8.372,12.948,9.756,13.265,11.446,13.44C13.494,13.652,16.266,13.652,18.314,13.44C20.004,13.265,21.388,12.948,22.892,12.48C24.442,11.997,26.288,11.455,27.471,10.56C28.489,9.789,29.44,8.597,29.76,7.68C29.991,7.018,29.991,6.422,29.76,5.76C29.44,4.843,28.489,3.651,27.471,2.88C26.288,1.985,24.442,1.443,22.892,0.96C21.388,0.492,20.004,0.175,18.314,0C16.266,-0.212,11.446,0,11.446,0" fill="transparent" stroke="black" stroke-width="2"></path>
    </g>
    <g transform="translate(34.24,34.24)">
      <path d="M0,0L0,7.421" fill="transparent" stroke="black" stroke-width="2"></path>
      <path d="M0,3.18C0,3.18,2.235,2.006,3.72,1.59C5.744,1.024,8.675,0.795,11.16,0.53C13.635,0.266,15.868,0.097,18.6,0C21.942,-0.119,29.76,0,29.76,0" fill="transparent" stroke="black" stroke-width="2"></path>
    </g>
    <g transform="translate(34.24,46.4608)">
      <path d="M14.88,0L14.88,6.37" fill="transparent" stroke="black" stroke-width="2"></path>
    </g>
    <g transform="translate(34.24,57.6304)">
      <path d="M29.76,0L29.76,6.37" fill="transparent" stroke="black" stroke-width="2"></path>
      <path d="M29.76,3.033C29.76,3.033,26.456,2.578,24.8,2.427C23.149,2.275,21.661,2.179,19.84,2.123C17.611,2.055,14.629,2.055,12.4,2.123C10.579,2.179,9.091,2.275,7.44,2.427C5.784,2.578,3.834,2.706,2.48,3.033C1.495,3.271,0.268,3.56,0,3.943C-0.128,4.127,-0.128,4.366,0,4.55C0.268,4.933,1.495,5.222,2.48,5.46C3.834,5.786,5.784,5.915,7.44,6.066C9.091,6.218,10.579,6.314,12.4,6.37C14.629,6.438,17.611,6.438,19.84,6.37C21.661,6.314,23.149,6.218,24.8,6.066C26.456,5.915,29.76,5.46,29.76,5.46" fill="transparent" stroke="black" stroke-width="2"></path>
    </g>
  </g>
</svg>