<svg width="400" height="200" style="background: white;" xmlns="http://www.w3.org/2000/svg">
  <rect x="0" y="0" width="400" height="200" fill="transparent"></rect>
  <g transform="translate(0,0)">
    <g transform="translate(20,20)">
      <path d="M0,0L0,160" fill="transparent" stroke="black" stroke-width="2"></path>
      <path d="M42.3,0L42.3,160" fill="transparent" stroke="black" stroke-width="2"></path>
      <path d="M0,76.19L42.3,76.19" fill="transparent" stroke="black" stroke-width="2"></path>
    </g>
    <g transform="translate(83.30000000000001,20)">
      <path d="M0,19.485C0,19.485,90.066,26.119,96.7,19.485C98.419,17.766,97.641,14.956,96.7,12.99C95.513,10.508,91.456,8.147,88.642,6.495C86.063,4.982,83.783,4.206,80.583,3.248C76.182,1.93,70.414,0.593,64.467,0C57.254,-0.719,47.504,-0.719,40.292,0C34.344,0.593,29.475,1.66,24.175,3.248C18.726,4.879,12.231,6.691,8.058,9.743C4.499,12.345,1.121,16.37,0,19.485C-0.804,21.718,-0.804,23.747,0,25.98C1.121,29.095,4.499,33.12,8.058,35.723C12.231,38.774,18.726,40.586,24.175,42.218C29.475,43.805,34.344,44.872,40.292,45.465C47.504,46.184,57.254,46.184,64.467,45.465C70.414,44.872,75.283,43.805,80.583,42.218C86.032,40.586,96.7,35.723,96.7,35.723" fill="transparent" stroke="black" stroke-width="2"></path>
    </g>
    <g transform="translate(83.30000000000001,80.135)">
      <path d="M48.35,0L48.35,25.62" fill="transparent" stroke="black" stroke-width="2"></path>
    </g>
    <g transform="translate(83.30000000000001,120.42545)">
      <path d="M20.508,0L20.508,59.575" fill="transparent" stroke="black" stroke-width="2"></path>
    </g>
    <g transform="translate(138.985,120.42545)">
      <path d="M15.775,0C15.775,0,11.421,2.385,9.465,4.255C7.157,6.463,4.71,9.464,3.155,12.766C1.423,16.444,0.469,21.681,0,25.532C-0.377,28.63,-0.377,30.944,0,34.043C0.469,37.894,1.423,43.13,3.155,46.809C4.71,50.11,7.157,53.112,9.465,55.319C11.421,57.19,13.329,58.827,15.775,59.575C18.503,60.409,22.512,60.409,25.24,59.575C27.686,58.827,29.594,57.19,31.55,55.319C33.858,53.112,36.305,50.11,37.86,46.809C39.592,43.13,40.546,37.894,41.015,34.043C41.392,30.944,41.392,28.63,41.015,25.532C40.546,21.681,39.592,16.444,37.86,12.766C36.305,9.464,33.858,6.463,31.55,4.255C29.594,2.385,27.686,0.748,25.24,0C22.512,-0.834,15.775,0,15.775,0" fill="transparent" stroke="black" stroke-width="2"></path>
    </g>
  </g>
  <g transform="translate(200,0)">
    <g transform="translate(20,20)">
      <path d="M0,0L10.575,160" fill="transparent" stroke="black" stroke-width="2"></path>
      <path d="M21.15,0L10.575,160" fill="transparent" stroke="black" stroke-width="2"></path>
      <path d="M21.15,0L31.725,160" fill="transparent" stroke="black" stroke-width="2"></path>
      <path d="M42.3,0L31.725,160" fill="transparent" stroke="black" stroke-width="2"></path>
    </g>
    <g transform="translate(83.30000000000001,20)">
      <path d="M37.192,0C37.192,0,27.198,1.666,22.315,3.248C17.275,4.88,11.271,6.736,7.438,9.743C4.108,12.355,1.045,16.396,0,19.485C-0.76,21.734,-0.76,23.731,0,25.98C1.045,29.069,4.108,33.11,7.438,35.723C11.271,38.729,17.275,40.585,22.315,42.218C27.198,43.799,31.697,44.872,37.192,45.465C43.845,46.183,52.855,46.183,59.508,45.465C65.003,44.872,69.502,43.799,74.385,42.218C79.425,40.585,85.429,38.729,89.262,35.723C92.592,33.11,95.655,29.069,96.7,25.98C97.46,23.731,97.46,21.734,96.7,19.485C95.655,16.396,92.592,12.355,89.262,9.743C85.429,6.736,79.425,4.88,74.385,3.248C69.502,1.666,65.003,0.593,59.508,0C52.855,-0.718,37.192,0,37.192,0" fill="transparent" stroke="black" stroke-width="2"></path>
    </g>
    <g transform="translate(83.30000000000001,80.135)">
      <path d="M0,0L0,25.62" fill="transparent" stroke="black" stroke-width="2"></path>
      <path d="M0,10.98C0,10.98,7.249,6.925,12.087,5.49C18.654,3.543,28.187,2.746,36.262,1.83C44.304,0.918,51.558,0.336,60.437,0C71.297,-0.41,96.7,0,96.7,0" fill="transparent" stroke="black" stroke-width="2"></path>
    </g>
    <g transform="translate(83.30000000000001,120.42545)">
      <path d="M48.35,0L48.35,22.452" fill="transparent" stroke="black" stroke-width="2"></path>
    </g>
    <g transform="translate(83.30000000000001,157.547725)">
      <path d="M96.7,0L96.7,22.452" fill="transparent" stroke="black" stroke-width="2"></path>
      <path d="M96.7,10.692C96.7,10.692,85.964,9.088,80.583,8.553C75.22,8.02,70.385,7.68,64.467,7.484C57.226,7.244,47.532,7.244,40.292,7.484C34.373,7.68,29.538,8.02,24.175,8.553C18.794,9.088,12.451,9.545,8.058,10.692C4.85,11.529,0.891,12.585,0,13.899C-0.443,14.551,-0.443,15.385,0,16.037C0.891,17.351,4.85,18.407,8.058,19.245C12.451,20.392,18.794,20.848,24.175,21.383C29.538,21.916,34.373,22.256,40.292,22.452C47.532,22.692,57.226,22.692,64.467,22.452C70.385,22.256,75.22,21.916,80.583,21.383C85.964,20.848,96.7,19.245,96.7,19.245" fill="transparent" stroke="black" stroke-width="2"></path>
    </g>
  </g>
</svg>