<svg width="160" height="80" style="background: white;" xmlns="http://www.w3.org/2000/svg">
  <g transform="translate(0,0)">
    <rect x="8" y="8" width="19.199999999999996" height="37.12" stroke="#eee" fill="none"></rect>
    <rect x="30.4" y="8" width="19.199999999999996" height="37.12" stroke="#eee" fill="none"></rect>
    <rect x="52.8" y="8" width="19.200000000000003" height="37.12" stroke="#eee" fill="none"></rect>
    <rect x="8" y="48.32" width="30.39999999999999" height="23.68" stroke="#eee" fill="none"></rect>
    <rect x="41.599999999999994" y="48.32" width="30.400000000000006" height="23.68" stroke="#eee" fill="none"></rect>
  </g>
  <g transform="translate(80,0)">
    <rect x="8" y="8" width="19.199999999999996" height="37.12" stroke="#eee" fill="none"></rect>
    <rect x="30.4" y="8" width="19.199999999999996" height="37.12" stroke="#eee" fill="none"></rect>
    <rect x="52.8" y="8" width="19.200000000000003" height="37.12" stroke="#eee" fill="none"></rect>
    <rect x="8" y="48.32" width="30.39999999999999" height="23.68" stroke="#eee" fill="none"></rect>
    <rect x="41.599999999999994" y="48.32" width="30.400000000000006" height="23.68" stroke="#eee" fill="none"></rect>
  </g>
  <g transform="translate(0,0)">
    <g transform="translate(8,8)">
      <path d="M0,0L0,37.12" fill="transparent" stroke="black" stroke-width="2"></path>
      <path d="M19.2,0L19.2,37.12" fill="transparent" stroke="black" stroke-width="2"></path>
      <path d="M0,17.676L19.2,17.676" fill="transparent" stroke="black" stroke-width="2"></path>
    </g>
    <g transform="translate(30.4,8)">
      <path d="M0,15.909C0,15.909,16.995,18.113,19.2,15.909C20.359,14.75,19.458,12.354,19.2,10.606C18.936,8.818,18.236,6.735,17.6,5.303C17.124,4.232,16.713,3.479,16,2.651C15.174,1.692,14.07,0.458,12.8,0C11.435,-0.492,9.365,-0.492,8,0C6.73,0.458,5.78,1.514,4.8,2.651C3.604,4.04,2.387,5.931,1.6,7.954C0.7,10.27,0.238,13.514,0,15.909C-0.193,17.844,-0.193,19.276,0,21.211C0.238,23.606,0.7,26.85,1.6,29.166C2.387,31.189,3.604,33.08,4.8,34.469C5.78,35.606,6.73,36.662,8,37.12C9.365,37.612,11.435,37.612,12.8,37.12C14.07,36.662,15.02,35.606,16,34.469C17.196,33.08,19.2,29.166,19.2,29.166" fill="transparent" stroke="black" stroke-width="2"></path>
    </g>
    <g transform="translate(52.8,8)">
      <path d="M9.6,0L9.6,37.12" fill="transparent" stroke="black" stroke-width="2"></path>
    </g>
    <g transform="translate(8,48.32)">
      <path d="M15.2,0L15.2,23.68" fill="transparent" stroke="black" stroke-width="2"></path>
    </g>
    <g transform="translate(41.599999999999994,48.32)">
      <path d="M11.692,0C11.692,0,8.521,0.895,7.015,1.691C5.394,2.549,3.511,3.648,2.338,5.074C1.185,6.477,0.341,8.593,0,10.149C-0.265,11.359,-0.265,12.321,0,13.531C0.341,15.087,1.185,17.203,2.338,18.606C3.511,20.032,5.394,21.131,7.015,21.989C8.521,22.785,9.946,23.374,11.692,23.68C13.766,24.044,16.634,24.044,18.708,23.68C20.454,23.374,21.879,22.785,23.385,21.989C25.006,21.131,26.889,20.032,28.062,18.606C29.215,17.203,30.059,15.087,30.4,13.531C30.665,12.321,30.665,11.359,30.4,10.149C30.059,8.593,29.215,6.477,28.062,5.074C26.889,3.648,25.006,2.549,23.385,1.691C21.879,0.895,20.454,0.306,18.708,0C16.634,-0.364,11.692,0,11.692,0" fill="transparent" stroke="black" stroke-width="2"></path>
    </g>
  </g>
  <g transform="translate(80,0)">
    <g transform="translate(8,8)">
      <path d="M0,0L4.8,37.12" fill="transparent" stroke="black" stroke-width="2"></path>
      <path d="M9.6,0L4.8,37.12" fill="transparent" stroke="black" stroke-width="2"></path>
      <path d="M9.6,0L14.4,37.12" fill="transparent" stroke="black" stroke-width="2"></path>
      <path d="M19.2,0L14.4,37.12" fill="transparent" stroke="black" stroke-width="2"></path>
    </g>
    <g transform="translate(30.4,8)">
      <path d="M7.385,0C7.385,0,5.331,1.524,4.431,2.651C3.317,4.046,2.202,5.941,1.477,7.954C0.639,10.278,0.22,13.516,0,15.909C-0.178,17.846,-0.178,19.274,0,21.211C0.22,23.604,0.639,26.842,1.477,29.166C2.202,31.179,3.317,33.074,4.431,34.469C5.331,35.596,6.199,36.666,7.385,37.12C8.637,37.6,10.563,37.6,11.815,37.12C13.001,36.666,13.869,35.596,14.769,34.469C15.883,33.074,16.998,31.179,17.723,29.166C18.561,26.842,18.98,23.604,19.2,21.211C19.378,19.274,19.378,17.846,19.2,15.909C18.98,13.516,18.561,10.278,17.723,7.954C16.998,5.941,15.883,4.046,14.769,2.651C13.869,1.524,13.001,0.454,11.815,0C10.563,-0.48,7.385,0,7.385,0" fill="transparent" stroke="black" stroke-width="2"></path>
    </g>
    <g transform="translate(52.8,8)">
      <path d="M0,0L0,37.12" fill="transparent" stroke="black" stroke-width="2"></path>
      <path d="M0,15.909C0,15.909,1.12,10.219,2.4,7.954C3.587,5.853,5.479,4.015,7.2,2.651C8.707,1.458,10.17,0.472,12,0C14.097,-0.541,19.2,0,19.2,0" fill="transparent" stroke="black" stroke-width="2"></path>
    </g>
    <g transform="translate(8,48.32)">
      <path d="M15.2,0L15.2,23.68" fill="transparent" stroke="black" stroke-width="2"></path>
    </g>
    <g transform="translate(41.599999999999994,48.32)">
      <path d="M30.4,0L30.4,23.68" fill="transparent" stroke="black" stroke-width="2"></path>
      <path d="M30.4,11.276C30.4,11.276,27.051,9.588,25.333,9.021C23.671,8.472,22.139,8.099,20.267,7.893C18.001,7.644,14.932,7.644,12.667,7.893C10.795,8.099,9.262,8.472,7.6,9.021C5.882,9.588,3.837,10.236,2.533,11.276C1.395,12.184,0.356,13.588,0,14.659C-0.26,15.441,-0.26,16.132,0,16.914C0.356,17.985,1.395,19.389,2.533,20.297C3.837,21.337,5.882,21.985,7.6,22.552C9.262,23.101,10.795,23.474,12.667,23.68C14.932,23.929,18.001,23.929,20.267,23.68C22.139,23.474,23.671,23.101,25.333,22.552C27.051,21.985,30.4,20.297,30.4,20.297" fill="transparent" stroke="black" stroke-width="2"></path>
    </g>
  </g>
</svg>