<svg width="160" height="80" style="background: white;" xmlns="http://www.w3.org/2000/svg">
  <g transform="translate(0,0)">
    <g transform="translate(8,8)">
      <path d="M2.868,0L2.868,64" fill="transparent" stroke="black" stroke-width="2"></path>
      <path d="M3.824,3.048L3.824,60.952" fill="transparent" stroke="black" stroke-width="2"></path>
      <path d="M4.78,0L4.78,64" fill="transparent" stroke="black" stroke-width="2"></path>
      <path d="M14.34,0L14.34,64" fill="transparent" stroke="black" stroke-width="2"></path>
      <path d="M15.296,3.048L15.296,60.952" fill="transparent" stroke="black" stroke-width="2"></path>
      <path d="M16.252,0L16.252,64" fill="transparent" stroke="black" stroke-width="2"></path>
      <path d="M0,0L7.648,0" fill="transparent" stroke="black" stroke-width="2"></path>
      <path d="M11.472,0L19.12,0" fill="transparent" stroke="black" stroke-width="2"></path>
      <path d="M4.78,30.476L14.34,30.476" fill="transparent" stroke="black" stroke-width="2"></path>
      <path d="M0,64L7.648,64" fill="transparent" stroke="black" stroke-width="2"></path>
      <path d="M11.472,64L19.12,64" fill="transparent" stroke="black" stroke-width="2"></path>
      <path d="M0.956,0L2.868,3.048" fill="transparent" stroke="black" stroke-width="2"></path>
      <path d="M1.912,0L2.868,6.095" fill="transparent" stroke="black" stroke-width="2"></path>
      <path d="M5.736,0L4.78,6.095" fill="transparent" stroke="black" stroke-width="2"></path>
      <path d="M6.692,0L4.78,3.048" fill="transparent" stroke="black" stroke-width="2"></path>
      <path d="M12.428,0L14.34,3.048" fill="transparent" stroke="black" stroke-width="2"></path>
      <path d="M13.384,0L14.34,6.095" fill="transparent" stroke="black" stroke-width="2"></path>
      <path d="M17.208,0L16.252,6.095" fill="transparent" stroke="black" stroke-width="2"></path>
      <path d="M18.164,0L16.252,3.048" fill="transparent" stroke="black" stroke-width="2"></path>
      <path d="M2.868,60.952L0.956,64" fill="transparent" stroke="black" stroke-width="2"></path>
      <path d="M2.868,57.905L1.912,64" fill="transparent" stroke="black" stroke-width="2"></path>
      <path d="M4.78,57.905L5.736,64" fill="transparent" stroke="black" stroke-width="2"></path>
      <path d="M4.78,60.952L6.692,64" fill="transparent" stroke="black" stroke-width="2"></path>
      <path d="M14.34,60.952L12.428,64" fill="transparent" stroke="black" stroke-width="2"></path>
      <path d="M14.34,57.905L13.384,64" fill="transparent" stroke="black" stroke-width="2"></path>
      <path d="M16.252,57.905L17.208,64" fill="transparent" stroke="black" stroke-width="2"></path>
      <path d="M16.252,60.952L18.164,64" fill="transparent" stroke="black" stroke-width="2"></path>
    </g>
    <g transform="translate(31.12,8)">
      <path d="M3.407,12.291C3.407,12.291,12.821,11.418,17.033,10.926C20.688,10.498,23.868,10.236,27.253,9.56C30.682,8.876,35.065,8.048,37.473,6.829C39.021,6.045,40.88,5.008,40.88,4.097C40.88,3.187,38.903,2.033,37.473,1.366C35.67,0.524,33.174,0.25,30.66,0C27.611,-0.303,23.839,-0.226,20.44,0C17.026,0.227,13.19,0.325,10.22,1.366C7.612,2.28,5.192,3.931,3.407,5.463C1.945,6.717,0.474,8.249,0,9.56C-0.339,10.499,-0.339,11.353,0,12.291C0.474,13.602,2.144,15.469,3.407,16.389C4.455,17.151,5.461,17.351,6.813,17.754C8.674,18.309,11.344,18.894,13.627,19.12C15.887,19.344,17.946,19.286,20.44,19.12C23.509,18.916,27.641,18.548,30.66,17.754C33.207,17.085,37.473,15.023,37.473,15.023" fill="transparent" stroke="black" stroke-width="2"></path>
      <path d="M10.22,2.731C10.22,2.731,7.898,4.398,6.813,5.463C5.615,6.64,3.937,8.092,3.407,9.56C2.941,10.847,2.865,12.529,3.407,13.657C3.965,14.821,6.813,16.389,6.813,16.389" fill="transparent" stroke="black" stroke-width="2"></path>
      <path d="M20.44,0C20.44,0,15.447,1.669,13.627,2.731C12.223,3.551,11.304,4.398,10.22,5.463C9.022,6.64,7.344,8.092,6.813,9.56C6.348,10.847,6.348,12.37,6.813,13.657C7.344,15.125,8.957,16.835,10.22,17.754C11.268,18.517,13.627,19.12,13.627,19.12" fill="transparent" stroke="black" stroke-width="2"></path>
    </g>
    <g transform="translate(31.12,31.12)">
      <path d="M23.36,0C23.36,0,10.107,4.486,5.84,6.019C3.364,6.908,0.66,7.255,0,8.207C-0.339,8.696,-0.353,9.424,0,9.849C0.671,10.657,3.887,10.669,5.84,10.943C7.78,11.215,9.396,11.384,11.68,11.49C14.902,11.641,19.471,11.672,23.36,11.49C27.258,11.308,31.823,10.847,35.04,10.396C37.329,10.075,40.88,9.302,40.88,9.302" fill="transparent" stroke="black" stroke-width="2"></path>
      <path d="M29.2,0C29.2,0,15.947,4.486,11.68,6.019C9.204,6.908,6.616,7.088,5.84,8.207C5.326,8.949,5.84,10.943,5.84,10.943" fill="transparent" stroke="black" stroke-width="2"></path>
      <path d="M5.84,0C5.84,0,34.808,-1.451,35.04,0C35.253,1.332,16.859,5.842,11.68,7.66C9.072,8.576,5.84,9.849,5.84,9.849" fill="transparent" stroke="black" stroke-width="2"></path>
      <path d="M11.68,0L29.2,0.547" fill="transparent" stroke="black" stroke-width="2"></path>
      <path d="M17.52,0L23.36,1.094" fill="transparent" stroke="black" stroke-width="2"></path>
    </g>
    <g transform="translate(31.12,46.6104)">
      <path d="M10.537,0C10.537,0,4.54,9.951,2.634,13.299C1.497,15.297,0.393,16.591,0,18.135C-0.319,19.389,-0.444,20.753,0,21.763C0.441,22.765,1.705,23.563,2.634,24.181C3.471,24.736,4.21,25.158,5.269,25.39C6.696,25.702,8.821,25.765,10.537,25.39C12.337,24.996,14.407,23.901,15.806,22.972C16.904,22.242,18.44,20.553,18.44,20.553" fill="transparent" stroke="black" stroke-width="2"></path>
      <path d="M13.171,0C13.171,0,7.175,9.951,5.269,13.299C4.131,15.297,3.084,16.371,2.634,18.135C2.164,19.984,2.634,24.181,2.634,24.181" fill="transparent" stroke="black" stroke-width="2"></path>
      <path d="M2.634,0C2.634,0,14.664,-2.056,15.806,0C17.211,2.53,7.574,12.972,5.269,16.926C4.057,19.005,2.634,21.763,2.634,21.763" fill="transparent" stroke="black" stroke-width="2"></path>
      <path d="M5.269,0L13.171,1.209" fill="transparent" stroke="black" stroke-width="2"></path>
      <path d="M7.903,0L10.537,2.418" fill="transparent" stroke="black" stroke-width="2"></path>
    </g>
    <g transform="translate(53.56,46.6104)">
      <path d="M7.903,0C7.903,0,5.006,0.781,3.951,1.814C2.708,3.031,1.98,5.404,1.317,7.254C0.679,9.034,0.196,11.054,0,12.695C-0.158,14.016,-0.158,15.001,0,16.322C0.196,17.963,0.722,20.475,1.317,21.763C1.694,22.577,1.983,23.043,2.634,23.576C3.541,24.319,5.236,25.095,6.586,25.39C7.873,25.671,9.25,25.671,10.537,25.39C11.887,25.095,13.434,24.609,14.489,23.576C15.732,22.358,16.46,19.985,17.123,18.135C17.761,16.355,18.244,14.336,18.44,12.695C18.598,11.374,18.598,10.389,18.44,9.068C18.244,7.427,17.718,4.915,17.123,3.627C16.746,2.812,16.457,2.347,15.806,1.814C14.899,1.071,13.204,0.295,11.854,0C10.567,-0.281,7.903,0,7.903,0" fill="transparent" stroke="black" stroke-width="2"></path>
      <path d="M3.951,3.627C3.951,3.627,3.04,5.911,2.634,7.254C2.146,8.872,1.535,10.868,1.317,12.695C1.102,14.496,1.034,16.527,1.317,18.135C1.555,19.49,2.634,21.763,2.634,21.763" fill="transparent" stroke="black" stroke-width="2"></path>
      <path d="M14.489,21.763C14.489,21.763,15.4,19.479,15.806,18.135C16.294,16.517,16.905,14.521,17.123,12.695C17.338,10.894,17.406,8.863,17.123,7.254C16.885,5.9,15.806,3.627,15.806,3.627" fill="transparent" stroke="black" stroke-width="2"></path>
      <path d="M7.903,0C7.903,0,5.937,2.369,5.269,3.627C4.649,4.794,4.357,5.911,3.951,7.254C3.463,8.872,2.852,10.868,2.634,12.695C2.419,14.496,2.419,16.335,2.634,18.135C2.852,19.962,3.101,22.34,3.951,23.576C4.594,24.51,6.586,25.39,6.586,25.39" fill="transparent" stroke="black" stroke-width="2"></path>
      <path d="M10.537,25.39C10.537,25.39,12.503,23.02,13.171,21.763C13.791,20.595,14.083,19.479,14.489,18.135C14.977,16.517,15.588,14.521,15.806,12.695C16.021,10.894,16.021,9.055,15.806,7.254C15.588,5.428,15.339,3.05,14.489,1.814C13.846,0.879,11.854,0,11.854,0" fill="transparent" stroke="black" stroke-width="2"></path>
    </g>
  </g>
  <g transform="translate(80,0)">
    <g transform="translate(8,8)">
      <path d="M2.607,0L6.084,64" fill="transparent" stroke="black" stroke-width="2"></path>
      <path d="M3.476,0C3.476,0,5.772,37.103,6.084,48.762C6.258,55.275,6.084,64,6.084,64" fill="transparent" stroke="black" stroke-width="2"></path>
      <path d="M4.345,0L6.953,48.762" fill="transparent" stroke="black" stroke-width="2"></path>
      <path d="M9.56,0C9.56,0,7.597,37.106,6.953,48.762C6.593,55.278,6.084,64,6.084,64" fill="transparent" stroke="black" stroke-width="2"></path>
      <path d="M9.56,0L13.036,64" fill="transparent" stroke="black" stroke-width="2"></path>
      <path d="M10.429,0C10.429,0,12.725,37.103,13.036,48.762C13.21,55.275,13.036,64,13.036,64" fill="transparent" stroke="black" stroke-width="2"></path>
      <path d="M11.298,0L13.905,48.762" fill="transparent" stroke="black" stroke-width="2"></path>
      <path d="M16.513,3.048C16.513,3.048,14.542,37.607,13.905,48.762C13.538,55.202,13.036,64,13.036,64" fill="transparent" stroke="black" stroke-width="2"></path>
      <path d="M0,0L6.953,0" fill="transparent" stroke="black" stroke-width="2"></path>
      <path d="M9.56,0L11.298,0" fill="transparent" stroke="black" stroke-width="2"></path>
      <path d="M13.905,0L19.12,0" fill="transparent" stroke="black" stroke-width="2"></path>
      <path d="M0.869,0L3.476,3.048" fill="transparent" stroke="black" stroke-width="2"></path>
      <path d="M1.738,0L3.476,6.095" fill="transparent" stroke="black" stroke-width="2"></path>
      <path d="M5.215,0L4.345,6.095" fill="transparent" stroke="black" stroke-width="2"></path>
      <path d="M6.084,0L4.345,3.048" fill="transparent" stroke="black" stroke-width="2"></path>
      <path d="M14.775,0L16.513,3.048" fill="transparent" stroke="black" stroke-width="2"></path>
      <path d="M18.251,0L16.513,3.048" fill="transparent" stroke="black" stroke-width="2"></path>
    </g>
    <g transform="translate(31.12,8)">
      <path d="M17.52,0C17.52,0,11.285,0.348,8.76,1.366C6.495,2.279,4.439,3.956,2.92,5.463C1.645,6.729,0.413,8.269,0,9.56C-0.304,10.511,-0.304,11.34,0,12.291C0.413,13.582,1.812,15.466,2.92,16.389C3.807,17.127,4.57,17.367,5.84,17.754C7.945,18.397,11.671,18.893,14.6,19.12C17.511,19.346,20.449,19.346,23.36,19.12C26.289,18.893,29.595,18.772,32.12,17.754C34.385,16.841,36.441,15.164,37.96,13.657C39.235,12.391,40.467,10.851,40.88,9.56C41.184,8.609,41.184,7.78,40.88,6.829C40.467,5.538,39.068,3.654,37.96,2.731C37.073,1.993,36.31,1.753,35.04,1.366C32.935,0.723,29.209,0.227,26.28,0C23.369,-0.226,17.52,0,17.52,0" fill="transparent" stroke="black" stroke-width="2"></path>
      <path d="M8.76,2.731C8.76,2.731,6.764,4.408,5.84,5.463C4.804,6.646,3.382,8.117,2.92,9.56C2.503,10.862,2.424,12.515,2.92,13.657C3.41,14.786,5.84,16.389,5.84,16.389" fill="transparent" stroke="black" stroke-width="2"></path>
      <path d="M32.12,16.389C32.12,16.389,34.116,14.712,35.04,13.657C36.076,12.474,37.498,11.003,37.96,9.56C38.377,8.258,38.456,6.605,37.96,5.463C37.47,4.334,35.04,2.731,35.04,2.731" fill="transparent" stroke="black" stroke-width="2"></path>
      <path d="M17.52,0C17.52,0,13.229,1.684,11.68,2.731C10.46,3.557,9.684,4.408,8.76,5.463C7.724,6.646,6.302,8.117,5.84,9.56C5.423,10.862,5.423,12.355,5.84,13.657C6.302,15.1,7.4,16.842,8.76,17.754C10.245,18.75,14.6,19.12,14.6,19.12" fill="transparent" stroke="black" stroke-width="2"></path>
      <path d="M23.36,19.12C23.36,19.12,27.651,17.436,29.2,16.389C30.42,15.563,31.196,14.712,32.12,13.657C33.156,12.474,34.578,11.003,35.04,9.56C35.457,8.258,35.457,6.765,35.04,5.463C34.578,4.02,33.48,2.278,32.12,1.366C30.635,0.37,26.28,0,26.28,0" fill="transparent" stroke="black" stroke-width="2"></path>
    </g>
    <g transform="translate(31.12,31.12)">
      <path d="M0,3.283C0,3.283,1.519,2.13,2.555,1.641C3.932,0.991,5.94,0.27,7.665,0C9.348,-0.264,11.378,-0.219,12.775,0C13.787,0.159,14.503,0.43,15.33,0.821C16.21,1.236,17.451,1.667,17.885,2.462C18.336,3.289,18.325,4.589,17.885,5.745C17.212,7.515,12.775,11.49,12.775,11.49" fill="transparent" stroke="black" stroke-width="2"></path>
      <path d="M15.33,0.821C15.33,0.821,15.936,4.152,15.33,5.745C14.573,7.736,10.22,11.49,10.22,11.49" fill="transparent" stroke="black" stroke-width="2"></path>
      <path d="M15.33,2.462C15.33,2.462,13.797,4.518,12.775,5.745C11.386,7.414,7.279,10.63,7.665,11.49C7.98,12.192,12.775,11.49,12.775,11.49" fill="transparent" stroke="black" stroke-width="2"></path>
      <path d="M38.325,1.641C38.325,1.641,38.5,0.995,38.325,0.821C38.017,0.513,36.149,0.442,35.77,0.821C35.466,1.124,35.421,2.113,35.77,2.462C36.386,3.078,40.264,3.078,40.88,2.462C41.229,2.113,41.172,1.222,40.88,0.821C40.506,0.308,39.337,0.159,38.325,0C36.928,-0.219,34.913,-0.135,33.215,0C31.506,0.136,29.793,0.417,28.105,0.821C26.386,1.232,24.649,1.682,22.995,2.462C21.236,3.293,17.885,5.745,17.885,5.745" fill="transparent" stroke="black" stroke-width="2"></path>
    </g>
    <g transform="translate(31.12,46.6104)">
      <path d="M23.36,0C23.36,0,10.108,4.175,5.84,5.602C3.365,6.429,0.646,6.729,0,7.639C-0.321,8.091,-0.333,8.771,0,9.167C0.655,9.947,3.888,9.931,5.84,10.186C7.781,10.439,9.397,10.595,11.68,10.695C14.903,10.835,19.47,10.864,23.36,10.695C27.257,10.525,31.822,10.096,35.04,9.676C37.328,9.377,40.88,8.658,40.88,8.658" fill="transparent" stroke="black" stroke-width="2"></path>
      <path d="M29.2,0C29.2,0,15.948,4.175,11.68,5.602C9.205,6.429,6.601,6.568,5.84,7.639C5.352,8.326,5.84,10.186,5.84,10.186" fill="transparent" stroke="black" stroke-width="2"></path>
      <path d="M5.84,0C5.84,0,34.837,-1.357,35.04,0C35.225,1.241,16.86,5.437,11.68,7.13C9.073,7.982,5.84,9.167,5.84,9.167" fill="transparent" stroke="black" stroke-width="2"></path>
      <path d="M11.68,0L29.2,0.509" fill="transparent" stroke="black" stroke-width="2"></path>
      <path d="M17.52,0L23.36,1.019" fill="transparent" stroke="black" stroke-width="2"></path>
    </g>
    <g transform="translate(31.12,61.3052)">
      <path d="M34.067,0C34.067,0,28.905,4.183,27.253,5.602C26.282,6.436,25.296,6.936,24.982,7.639C24.76,8.137,24.722,8.765,24.982,9.167C25.315,9.681,26.483,9.929,27.253,10.186C27.998,10.433,28.631,10.596,29.524,10.695C30.772,10.833,32.562,10.861,34.067,10.695C35.59,10.526,37.371,10.088,38.609,9.676C39.514,9.375,40.88,8.658,40.88,8.658" fill="transparent" stroke="black" stroke-width="2"></path>
      <path d="M36.338,0C36.338,0,31.176,4.183,29.524,5.602C28.553,6.436,27.615,6.829,27.253,7.639C26.923,8.379,27.253,10.186,27.253,10.186" fill="transparent" stroke="black" stroke-width="2"></path>
      <path d="M27.253,0C27.253,0,38.203,-1.173,38.609,0C39.018,1.183,31.525,5.45,29.524,7.13C28.496,7.993,27.253,9.167,27.253,9.167" fill="transparent" stroke="black" stroke-width="2"></path>
      <path d="M24.982,7.13C24.982,7.13,25.224,6.056,24.982,5.602C24.658,4.994,23.649,4.419,22.711,4.074C21.499,3.629,19.685,3.65,18.169,3.565C16.657,3.48,15.292,3.503,13.627,3.565C11.584,3.641,8.832,3.666,6.813,4.074C5.122,4.416,3.493,4.999,2.271,5.602C1.347,6.058,0.287,6.591,0,7.13C-0.175,7.458,-0.175,7.82,0,8.148C0.287,8.687,1.481,9.336,2.271,9.676C3,9.99,3.651,10.036,4.542,10.186C5.792,10.395,7.568,10.61,9.084,10.695C10.596,10.779,12.115,10.779,13.627,10.695C15.143,10.61,16.919,10.395,18.169,10.186C19.061,10.036,19.695,9.924,20.44,9.676C21.21,9.42,21.971,9.069,22.711,8.658C23.487,8.227,24.982,7.13,24.982,7.13" fill="transparent" stroke="black" stroke-width="2"></path>
      <path d="M6.813,4.583C6.813,4.583,5.282,5.191,4.542,5.602C3.766,6.033,2.595,6.522,2.271,7.13C2.029,7.584,2.011,8.255,2.271,8.658C2.604,9.171,4.542,9.676,4.542,9.676" fill="transparent" stroke="black" stroke-width="2"></path>
      <path d="M13.627,3.565C13.627,3.565,10.322,4.172,9.084,4.583C8.18,4.884,7.553,5.191,6.813,5.602C6.037,6.033,4.866,6.522,4.542,7.13C4.3,7.584,4.3,8.203,4.542,8.658C4.866,9.266,6.023,9.845,6.813,10.186C7.542,10.499,9.084,10.695,9.084,10.695" fill="transparent" stroke="black" stroke-width="2"></path>
      <path d="M29.524,0L36.338,0.509" fill="transparent" stroke="black" stroke-width="2"></path>
      <path d="M31.796,0L34.067,1.019" fill="transparent" stroke="black" stroke-width="2"></path>
    </g>
  </g>
</svg>