<svg width="160" height="80" style="background: white;" xmlns="http://www.w3.org/2000/svg">
  <g transform="translate(0,0)">
    <rect x="16" y="16" width="11.84" height="48" stroke="#eee" fill="none"></rect>
    <rect x="35.84" y="16" width="28.159999999999997" height="11.84" stroke="#eee" fill="none"></rect>
    <rect x="35.84" y="35.84" width="28.159999999999997" height="5.2928" stroke="#eee" fill="none"></rect>
    <rect x="35.84" y="49.1328" width="10.079999999999998" height="14.867199999999997" stroke="#eee" fill="none"></rect>
    <rect x="53.92" y="49.1328" width="10.079999999999998" height="14.867199999999997" stroke="#eee" fill="none"></rect>
  </g>
  <g transform="translate(80,0)">
    <rect x="16" y="16" width="11.84" height="48" stroke="#eee" fill="none"></rect>
    <rect x="35.84" y="16" width="28.159999999999997" height="11.84" stroke="#eee" fill="none"></rect>
    <rect x="35.84" y="35.84" width="28.159999999999997" height="5.2928" stroke="#eee" fill="none"></rect>
    <rect x="35.84" y="49.1328" width="28.159999999999997" height="3.4335999999999984" stroke="#eee" fill="none"></rect>
    <rect x="35.84" y="60.5664" width="28.159999999999997" height="3.4335999999999984" stroke="#eee" fill="none"></rect>
  </g>
  <g transform="translate(0,0)">
    <g transform="translate(16,16)">
      <path d="M0,0L0,48" fill="transparent" stroke="black" stroke-width="2"></path>
      <path d="M11.84,0L11.84,48" fill="transparent" stroke="black" stroke-width="2"></path>
      <path d="M0,22.857L11.84,22.857" fill="transparent" stroke="black" stroke-width="2"></path>
    </g>
    <g transform="translate(35.84,16)">
      <path d="M0,5.074C0,5.074,26.312,6.922,28.16,5.074C28.613,4.621,28.419,3.889,28.16,3.383C27.821,2.721,26.627,2.12,25.813,1.691C25.058,1.293,24.395,1.095,23.467,0.846C22.182,0.501,20.503,0.155,18.773,0C16.671,-0.188,13.835,-0.188,11.733,0C10.003,0.155,8.587,0.431,7.04,0.846C5.458,1.27,3.57,1.726,2.347,2.537C1.328,3.212,0.322,4.252,0,5.074C-0.225,5.65,-0.225,6.19,0,6.766C0.322,7.588,1.328,8.628,2.347,9.303C3.57,10.114,5.458,10.57,7.04,10.994C8.587,11.409,10.003,11.685,11.733,11.84C13.835,12.028,16.671,12.028,18.773,11.84C20.503,11.685,21.919,11.409,23.467,10.994C25.049,10.57,28.16,9.303,28.16,9.303" fill="transparent" stroke="black" stroke-width="2"></path>
    </g>
    <g transform="translate(35.84,35.84)">
      <path d="M14.08,0L14.08,5.293" fill="transparent" stroke="black" stroke-width="2"></path>
    </g>
    <g transform="translate(35.84,49.1328)">
      <path d="M5.04,0L5.04,14.867" fill="transparent" stroke="black" stroke-width="2"></path>
    </g>
    <g transform="translate(53.92,49.1328)">
      <path d="M3.877,0C3.877,0,2.806,0.596,2.326,1.062C1.758,1.613,1.157,2.363,0.775,3.186C0.349,4.105,0.115,5.411,0,6.372C-0.093,7.145,-0.093,7.722,0,8.496C0.115,9.456,0.349,10.763,0.775,11.681C1.157,12.504,1.758,13.254,2.326,13.805C2.806,14.271,3.275,14.681,3.877,14.867C4.547,15.075,5.533,15.075,6.203,14.867C6.805,14.681,7.274,14.271,7.754,13.805C8.322,13.254,8.923,12.504,9.305,11.681C9.731,10.763,9.965,9.456,10.08,8.496C10.173,7.722,10.173,7.145,10.08,6.372C9.965,5.411,9.731,4.105,9.305,3.186C8.923,2.363,8.322,1.613,7.754,1.062C7.274,0.596,6.805,0.186,6.203,0C5.533,-0.207,3.877,0,3.877,0" fill="transparent" stroke="black" stroke-width="2"></path>
    </g>
  </g>
  <g transform="translate(80,0)">
    <g transform="translate(16,16)">
      <path d="M0,0L2.96,48" fill="transparent" stroke="black" stroke-width="2"></path>
      <path d="M5.92,0L2.96,48" fill="transparent" stroke="black" stroke-width="2"></path>
      <path d="M5.92,0L8.88,48" fill="transparent" stroke="black" stroke-width="2"></path>
      <path d="M11.84,0L8.88,48" fill="transparent" stroke="black" stroke-width="2"></path>
    </g>
    <g transform="translate(35.84,16)">
      <path d="M10.831,0C10.831,0,7.924,0.432,6.498,0.846C5.035,1.271,3.29,1.738,2.166,2.537C1.214,3.214,0.3,4.26,0,5.074C-0.214,5.654,-0.214,6.186,0,6.766C0.3,7.58,1.214,8.626,2.166,9.303C3.29,10.102,5.035,10.569,6.498,10.994C7.924,11.408,9.233,11.685,10.831,11.84C12.77,12.028,15.39,12.028,17.329,11.84C18.927,11.685,20.236,11.408,21.662,10.994C23.125,10.569,24.87,10.102,25.994,9.303C26.946,8.626,27.86,7.58,28.16,6.766C28.374,6.186,28.374,5.654,28.16,5.074C27.86,4.26,26.946,3.214,25.994,2.537C24.87,1.738,23.125,1.271,21.662,0.846C20.236,0.432,18.927,0.155,17.329,0C15.39,-0.188,10.831,0,10.831,0" fill="transparent" stroke="black" stroke-width="2"></path>
    </g>
    <g transform="translate(35.84,35.84)">
      <path d="M0,0L0,5.293" fill="transparent" stroke="black" stroke-width="2"></path>
      <path d="M0,2.268C0,2.268,2.127,1.43,3.52,1.134C5.447,0.725,8.211,0.567,10.56,0.378C12.904,0.189,15.015,0.069,17.6,0C20.763,-0.085,28.16,0,28.16,0" fill="transparent" stroke="black" stroke-width="2"></path>
    </g>
    <g transform="translate(35.84,49.1328)">
      <path d="M14.08,0L14.08,3.434" fill="transparent" stroke="black" stroke-width="2"></path>
    </g>
    <g transform="translate(35.84,60.5664)">
      <path d="M28.16,0L28.16,3.434" fill="transparent" stroke="black" stroke-width="2"></path>
      <path d="M28.16,1.635C28.16,1.635,25.032,1.39,23.467,1.308C21.903,1.226,20.496,1.175,18.773,1.145C16.664,1.108,13.843,1.108,11.733,1.145C10.011,1.175,8.604,1.226,7.04,1.308C5.475,1.39,3.638,1.456,2.347,1.635C1.425,1.763,0.211,1.866,0,2.126C-0.078,2.221,-0.078,2.357,0,2.453C0.211,2.712,1.425,2.815,2.347,2.943C3.638,3.122,5.475,3.188,7.04,3.27C8.604,3.352,10.011,3.404,11.733,3.434C13.843,3.47,16.664,3.47,18.773,3.434C20.496,3.404,21.903,3.352,23.467,3.27C25.032,3.188,28.16,2.943,28.16,2.943" fill="transparent" stroke="black" stroke-width="2"></path>
    </g>
  </g>
</svg>