<svg width="400" height="200" style="background: white;" xmlns="http://www.w3.org/2000/svg">
  <g transform="translate(0,0)">
    <g transform="translate(20,20)">
      <path d="M0,0L0,160" fill="transparent" stroke="black" stroke-width="2"></path>
      <path d="M44.8,0L44.8,160" fill="transparent" stroke="black" stroke-width="2"></path>
      <path d="M0,76.19L44.8,76.19" fill="transparent" stroke="black" stroke-width="2"></path>
    </g>
    <g transform="translate(80.80000000000001,20)">
      <path d="M0,19.2C0,19.2,92.502,25.898,99.2,19.2C100.901,17.499,100.146,14.73,99.2,12.8C97.99,10.334,93.812,8.026,90.933,6.4C88.282,4.903,85.945,4.144,82.667,3.2C78.148,1.899,72.232,0.585,66.133,0C58.732,-0.71,48.734,-0.71,41.333,0C35.235,0.585,30.242,1.634,24.8,3.2C19.216,4.807,12.558,6.571,8.267,9.6C4.639,12.16,1.145,16.116,0,19.2C-0.814,21.392,-0.814,23.408,0,25.6C1.145,28.684,4.639,32.64,8.267,35.2C12.558,38.229,19.216,39.993,24.8,41.6C30.242,43.166,35.235,44.215,41.333,44.8C48.734,45.51,58.732,45.51,66.133,44.8C72.232,44.215,77.225,43.166,82.667,41.6C88.25,39.993,99.2,35.2,99.2,35.2" fill="transparent" stroke="black" stroke-width="2"></path>
    </g>
    <g transform="translate(80.80000000000001,80.80000000000001)">
      <path d="M49.6,0L49.6,24.736" fill="transparent" stroke="black" stroke-width="2"></path>
    </g>
    <g transform="translate(80.80000000000001,121.536)">
      <path d="M20.8,0L20.8,58.464" fill="transparent" stroke="black" stroke-width="2"></path>
    </g>
    <g transform="translate(138.4,121.536)">
      <path d="M16,0C16,0,11.588,2.333,9.6,4.176C7.267,6.339,4.778,9.278,3.2,12.528C1.451,16.131,0.475,21.275,0,25.056C-0.382,28.095,-0.382,30.369,0,33.408C0.475,37.189,1.451,42.333,3.2,45.936C4.778,49.186,7.267,52.125,9.6,54.288C11.588,56.131,13.526,57.728,16,58.464C18.772,59.289,22.828,59.289,25.6,58.464C28.074,57.728,30.012,56.131,32,54.288C34.333,52.125,36.822,49.186,38.4,45.936C40.149,42.333,41.125,37.189,41.6,33.408C41.982,30.369,41.982,28.095,41.6,25.056C41.125,21.275,40.149,16.131,38.4,12.528C36.822,9.278,34.333,6.339,32,4.176C30.012,2.333,28.074,0.736,25.6,0C22.828,-0.825,16,0,16,0" fill="transparent" stroke="black" stroke-width="2"></path>
    </g>
  </g>
  <g transform="translate(200,0)">
    <g transform="translate(20,20)">
      <path d="M0,0L11.2,160" fill="transparent" stroke="black" stroke-width="2"></path>
      <path d="M22.4,0L11.2,160" fill="transparent" stroke="black" stroke-width="2"></path>
      <path d="M22.4,0L33.6,160" fill="transparent" stroke="black" stroke-width="2"></path>
      <path d="M44.8,0L33.6,160" fill="transparent" stroke="black" stroke-width="2"></path>
    </g>
    <g transform="translate(80.80000000000001,20)">
      <path d="M38.154,0C38.154,0,27.906,1.639,22.892,3.2C17.727,4.808,11.572,6.615,7.631,9.6C4.238,12.169,1.067,16.143,0,19.2C-0.771,21.408,-0.771,23.392,0,25.6C1.067,28.657,4.238,32.631,7.631,35.2C11.572,38.185,17.727,39.992,22.892,41.6C27.906,43.161,32.519,44.216,38.154,44.8C44.981,45.508,54.219,45.508,61.046,44.8C66.681,44.216,71.294,43.161,76.308,41.6C81.473,39.992,87.628,38.185,91.569,35.2C94.962,32.631,98.133,28.657,99.2,25.6C99.971,23.392,99.971,21.408,99.2,19.2C98.133,16.143,94.962,12.169,91.569,9.6C87.628,6.615,81.473,4.808,76.308,3.2C71.294,1.639,66.681,0.584,61.046,0C54.219,-0.708,38.154,0,38.154,0" fill="transparent" stroke="black" stroke-width="2"></path>
    </g>
    <g transform="translate(80.80000000000001,80.80000000000001)">
      <path d="M0,0L0,24.736" fill="transparent" stroke="black" stroke-width="2"></path>
      <path d="M0,10.601C0,10.601,7.449,6.685,12.4,5.301C19.148,3.413,28.918,2.651,37.2,1.767C45.451,0.886,52.892,0.324,62,0C73.141,-0.396,99.2,0,99.2,0" fill="transparent" stroke="black" stroke-width="2"></path>
    </g>
    <g transform="translate(80.80000000000001,121.536)">
      <path d="M49.6,0L49.6,21.232" fill="transparent" stroke="black" stroke-width="2"></path>
    </g>
    <g transform="translate(80.80000000000001,158.768)">
      <path d="M99.2,0L99.2,21.232" fill="transparent" stroke="black" stroke-width="2"></path>
      <path d="M99.2,10.11C99.2,10.11,88.185,8.594,82.667,8.088C77.163,7.584,72.204,7.263,66.133,7.077C58.705,6.85,48.762,6.85,41.333,7.077C35.262,7.263,30.303,7.584,24.8,8.088C19.281,8.594,12.781,9.022,8.267,10.11C4.984,10.902,0.893,11.865,0,13.144C-0.428,13.756,-0.428,14.553,0,15.166C0.893,16.444,4.984,17.407,8.267,18.199C12.781,19.288,19.281,19.715,24.8,20.221C30.303,20.725,35.262,21.047,41.333,21.232C48.762,21.459,58.705,21.459,66.133,21.232C72.204,21.047,77.163,20.725,82.667,20.221C88.185,19.715,99.2,18.199,99.2,18.199" fill="transparent" stroke="black" stroke-width="2"></path>
    </g>
  </g>
</svg>