<svg width="640" height="320" style="background: rgb(241, 187, 77);" xmlns="http://www.w3.org/2000/svg">
  <rect x="0" y="0" width="640" height="320" fill="transparent"></rect>
  <g transform="translate(0,0)">
    <g transform="translate(32,32)">
      <path d="M21.846,0C21.846,0,-11.291,243.704,0,256C1.901,258.07,7.282,256,7.282,256" fill="transparent" stroke="#492577" stroke-width="10"></path>
      <path d="M25.487,0L3.641,256" fill="transparent" stroke="#492577" stroke-width="10"></path>
      <path d="M10.923,0C10.923,0,24.743,-4.775,29.128,0C45.602,17.94,7.282,256,7.282,256" fill="transparent" stroke="#492577" stroke-width="10"></path>
      <path d="M14.564,170.667C14.564,170.667,18.865,135.283,21.846,121.905C23.988,112.294,26.231,104.112,29.128,97.524C31.293,92.602,33.422,87.029,36.411,85.333C38.55,84.119,41.553,84.119,43.693,85.333C46.681,87.029,49.197,92.552,50.975,97.524C53.317,104.074,53.949,112.929,54.616,121.905C55.428,132.837,55.432,144.765,54.616,158.476C53.558,176.241,47.334,219.429,47.334,219.429" fill="transparent" stroke="#492577" stroke-width="10"></path>
      <path d="M50.975,97.524C50.975,97.524,51.58,130.043,50.975,146.286C50.368,162.551,47.94,178.782,47.334,195.048C46.728,211.29,47.334,243.81,47.334,243.81" fill="transparent" stroke="#492577" stroke-width="10"></path>
      <path d="M50.975,121.905C50.975,121.905,44.75,165.093,43.693,182.857C42.876,196.569,42.881,208.497,43.693,219.429C44.359,228.404,45.843,237.12,47.334,243.81C48.404,248.615,48.625,254.25,50.975,256C52.752,257.324,56.223,257.515,58.257,256C62.059,253.168,63.713,239.811,65.539,231.619C67.336,223.555,69.18,207.238,69.18,207.238" fill="transparent" stroke="#492577" stroke-width="10"></path>
      <path d="M14.564,0L25.487,12.19" fill="transparent" stroke="#492577" stroke-width="10"></path>
      <path d="M18.205,0L21.846,24.381" fill="transparent" stroke="#492577" stroke-width="10"></path>
    </g>
    <g transform="translate(131.78,32)">
      <path d="M13.018,47.68C13.018,47.68,48.995,44.292,65.092,42.382C79.06,40.725,91.213,39.705,104.147,37.085C117.252,34.43,134.003,31.208,143.202,26.489C149.126,23.45,156.22,19.425,156.22,15.893C156.22,12.362,148.674,7.887,143.202,5.298C136.316,2.04,126.775,0.968,117.165,0C105.515,-1.173,91.099,-0.877,78.11,0C65.062,0.881,50.396,1.268,39.055,5.298C29.078,8.843,19.835,15.258,13.018,21.191C7.424,26.061,1.814,32.008,0,37.085C-1.303,40.73,-1.303,44.034,0,47.68C1.814,52.757,8.182,60.007,13.018,63.573C17.018,66.524,20.867,67.308,26.037,68.871C33.145,71.02,43.35,73.291,52.073,74.169C60.709,75.039,68.578,74.813,78.11,74.169C89.837,73.377,105.633,71.947,117.165,68.871C126.904,66.274,143.202,58.276,143.202,58.276" fill="transparent" stroke="#492577" stroke-width="10"></path>
      <path d="M39.055,10.596C39.055,10.596,30.178,17.063,26.037,21.191C21.455,25.759,15.049,31.401,13.018,37.085C11.232,42.084,10.936,48.598,13.018,52.978C15.158,57.479,26.037,63.573,26.037,63.573" fill="transparent" stroke="#492577" stroke-width="10"></path>
      <path d="M78.11,0C78.11,0,59.024,6.478,52.073,10.596C46.702,13.778,43.196,17.063,39.055,21.191C34.473,25.759,28.067,31.401,26.037,37.085C24.251,42.084,24.251,47.979,26.037,52.978C28.067,58.662,34.219,65.304,39.055,68.871C43.055,71.821,52.073,74.169,52.073,74.169" fill="transparent" stroke="#492577" stroke-width="10"></path>
    </g>
    <g transform="translate(131.78,126.791)">
      <path d="M89.269,0C89.269,0,38.626,16.745,22.317,22.465C12.856,25.783,2.505,27.05,0,30.634C-1.272,32.454,-1.322,35.175,0,36.761C2.544,39.813,14.855,39.823,22.317,40.846C29.733,41.862,35.908,42.49,44.634,42.888C56.949,43.45,74.406,43.567,89.269,42.888C104.162,42.208,121.609,40.488,133.903,38.803C142.65,37.605,156.22,34.719,156.22,34.719" fill="transparent" stroke="#492577" stroke-width="10"></path>
      <path d="M111.586,0C111.586,0,60.943,16.745,44.634,22.465C35.173,25.783,25.263,26.419,22.317,30.634C20.386,33.397,22.317,40.846,22.317,40.846" fill="transparent" stroke="#492577" stroke-width="10"></path>
      <path d="M22.317,0C22.317,0,133.055,-5.426,133.903,0C134.68,4.973,64.426,21.803,44.634,28.592C34.669,32.01,22.317,36.761,22.317,36.761" fill="transparent" stroke="#492577" stroke-width="10"></path>
      <path d="M44.634,0L111.586,2.042" fill="transparent" stroke="#492577" stroke-width="10"></path>
      <path d="M66.951,0L89.269,4.085" fill="transparent" stroke="#492577" stroke-width="10"></path>
    </g>
    <g transform="translate(131.78,190.30097)">
      <path d="M38.742,0C38.742,0,16.692,38.293,9.686,51.176C5.502,58.867,1.45,63.857,0,69.785C-1.183,74.62,-1.661,79.842,0,83.742C1.63,87.568,6.256,90.667,9.686,93.047C12.753,95.175,15.468,96.81,19.371,97.699C24.612,98.892,32.444,99.133,38.742,97.699C45.376,96.188,52.982,91.955,58.113,88.394C62.17,85.58,67.799,79.09,67.799,79.09" fill="transparent" stroke="#492577" stroke-width="10"></path>
      <path d="M48.428,0C48.428,0,26.378,38.293,19.371,51.176C15.188,58.867,11.342,63.017,9.686,69.785C7.942,76.912,9.686,93.047,9.686,93.047" fill="transparent" stroke="#492577" stroke-width="10"></path>
      <path d="M9.686,0C9.686,0,53.728,-7.71,58.113,0C63.599,9.645,27.844,49.923,19.371,65.133C14.913,73.135,9.686,83.742,9.686,83.742" fill="transparent" stroke="#492577" stroke-width="10"></path>
      <path d="M19.371,0L48.428,4.652" fill="transparent" stroke="#492577" stroke-width="10"></path>
      <path d="M29.057,0L38.742,9.305" fill="transparent" stroke="#492577" stroke-width="10"></path>
    </g>
    <g transform="translate(220.201,190.30097)">
      <path d="M29.057,0C29.057,0,18.395,3.056,14.528,6.979C9.903,11.672,7.28,20.807,4.843,27.914C2.491,34.773,0.72,42.539,0,48.85C-0.581,53.936,-0.581,57.72,0,62.807C0.72,69.117,2.643,78.777,4.843,83.742C6.226,86.864,7.272,88.662,9.686,90.721C13.011,93.555,19.239,96.566,24.214,97.699C28.937,98.775,34.019,98.775,38.742,97.699C43.717,96.566,49.404,94.643,53.271,90.721C57.896,86.027,60.519,76.892,62.956,69.785C65.308,62.926,67.079,55.16,67.799,48.85C68.38,43.763,68.38,39.979,67.799,34.893C67.079,28.582,65.156,18.922,62.956,13.957C61.573,10.835,60.527,9.037,58.113,6.979C54.788,4.144,48.56,1.133,43.585,0C38.862,-1.076,29.057,0,29.057,0" fill="transparent" stroke="#492577" stroke-width="10"></path>
      <path d="M14.528,13.957C14.528,13.957,11.175,22.748,9.686,27.914C7.889,34.145,5.645,41.825,4.843,48.85C4.051,55.783,3.798,63.589,4.843,69.785C5.72,74.99,9.686,83.742,9.686,83.742" fill="transparent" stroke="#492577" stroke-width="10"></path>
      <path d="M53.271,83.742C53.271,83.742,56.624,74.951,58.113,69.785C59.91,63.554,62.154,55.874,62.956,48.85C63.748,41.916,64.001,34.11,62.956,27.914C62.079,22.709,58.113,13.957,58.113,13.957" fill="transparent" stroke="#492577" stroke-width="10"></path>
      <path d="M29.057,0C29.057,0,21.825,9.13,19.371,13.957C17.083,18.458,16.018,22.748,14.528,27.914C12.732,34.145,10.487,41.825,9.686,48.85C8.894,55.783,8.894,62.851,9.686,69.785C10.487,76.81,11.357,85.952,14.528,90.721C16.892,94.275,24.214,97.699,24.214,97.699" fill="transparent" stroke="#492577" stroke-width="10"></path>
      <path d="M38.742,97.699C38.742,97.699,45.974,88.569,48.428,83.742C50.716,79.241,51.781,74.951,53.271,69.785C55.067,63.554,57.312,55.874,58.113,48.85C58.905,41.916,58.905,34.848,58.113,27.914C57.312,20.889,56.442,11.747,53.271,6.979C50.907,3.424,43.585,0,43.585,0" fill="transparent" stroke="#492577" stroke-width="10"></path>
    </g>
  </g>
  <g transform="translate(320,0)">
    <g transform="translate(32,32)">
      <path d="M0,73.143C0,73.143,1.335,48.738,2.661,36.571C3.992,24.357,4.106,3.353,7.982,0C9.453,-1.272,11.983,-1.142,13.304,0C15.765,2.129,15.185,11.128,15.965,18.286C17.064,28.368,18.137,41.425,18.625,54.857C19.222,71.286,19.224,89.116,18.625,109.714C17.851,136.329,13.304,201.143,13.304,201.143" fill="transparent" stroke="#492577" stroke-width="10"></path>
      <path d="M15.965,18.286C15.965,18.286,16.408,67.052,15.965,91.429C15.521,115.814,13.747,140.186,13.304,164.571C12.861,188.948,13.304,237.714,13.304,237.714" fill="transparent" stroke="#492577" stroke-width="10"></path>
      <path d="M15.965,54.857C15.965,54.857,11.417,119.671,10.643,146.286C10.044,166.884,10.046,184.714,10.643,201.143C11.131,214.575,11.502,227.693,13.304,237.714C14.602,244.936,15.817,253.892,18.625,256C20.11,257.114,22.462,257.114,23.947,256C26.756,253.892,27.704,244.919,29.268,237.714C31.448,227.677,33.288,214.599,34.59,201.143C36.178,184.739,37.251,146.286,37.251,146.286" fill="transparent" stroke="#492577" stroke-width="10"></path>
      <path d="M42.572,0C42.572,0,37.924,109.242,37.251,146.286C36.838,168.963,36.654,184.714,37.251,201.143C37.739,214.575,38.11,227.693,39.912,237.714C41.21,244.936,42.424,253.892,45.233,256C46.718,257.114,49.07,257.114,50.555,256C53.363,253.892,54.311,244.919,55.876,237.714C58.056,227.677,59.569,214.586,61.198,201.143C63.187,184.726,65.212,165.905,66.519,146.286C68.026,123.676,68.737,97.528,69.18,73.143C69.623,48.766,73.085,3.905,69.18,0C68.435,-0.745,67.161,-0.642,66.519,0C64.836,1.683,66.26,11.15,66.519,18.286C66.886,28.39,69.18,54.857,69.18,54.857" fill="transparent" stroke="#492577" stroke-width="10"></path>
      <path d="M45.233,0C45.233,0,40.695,103.221,39.912,146.286C39.293,180.32,39.912,237.714,39.912,237.714" fill="transparent" stroke="#492577" stroke-width="10"></path>
      <path d="M42.572,0C42.572,0,46.482,-1.472,47.894,0C54.823,7.224,44.004,91.262,42.572,128C41.49,155.768,39.912,201.143,39.912,201.143" fill="transparent" stroke="#492577" stroke-width="10"></path>
    </g>
    <g transform="translate(131.78,32)">
      <path d="M66.951,0C66.951,0,43.115,1.359,33.476,5.298C24.809,8.839,16.957,15.353,11.159,21.191C6.277,26.106,1.58,32.084,0,37.085C-1.167,40.778,-1.167,43.986,0,47.68C1.58,52.681,6.914,59.991,11.159,63.573C14.544,66.431,17.462,67.369,22.317,68.871C30.36,71.36,44.6,73.289,55.793,74.169C66.917,75.044,78.144,75.044,89.269,74.169C100.462,73.289,113.105,72.81,122.744,68.871C131.411,65.33,139.263,58.816,145.061,52.978C149.943,48.063,154.64,42.085,156.22,37.085C157.387,33.391,157.387,30.183,156.22,26.489C154.64,21.488,149.306,14.178,145.061,10.596C141.676,7.738,138.758,6.8,133.903,5.298C125.86,2.809,111.62,0.88,100.427,0C89.303,-0.875,66.951,0,66.951,0" fill="transparent" stroke="#492577" stroke-width="10"></path>
      <path d="M33.476,10.596C33.476,10.596,25.844,17.102,22.317,21.191C18.355,25.785,12.925,31.494,11.159,37.085C9.56,42.142,9.253,48.541,11.159,52.978C13.033,57.343,22.317,63.573,22.317,63.573" fill="transparent" stroke="#492577" stroke-width="10"></path>
      <path d="M122.744,63.573C122.744,63.573,130.376,57.067,133.903,52.978C137.865,48.384,143.295,42.675,145.061,37.085C146.66,32.027,146.967,25.628,145.061,21.191C143.187,16.826,133.903,10.596,133.903,10.596" fill="transparent" stroke="#492577" stroke-width="10"></path>
      <path d="M66.951,0C66.951,0,50.55,6.537,44.634,10.596C39.966,13.799,37.003,17.102,33.476,21.191C29.513,25.785,24.084,31.494,22.317,37.085C20.719,42.142,20.719,47.92,22.317,52.978C24.084,58.569,28.259,65.333,33.476,68.871C39.146,72.716,55.793,74.169,55.793,74.169" fill="transparent" stroke="#492577" stroke-width="10"></path>
      <path d="M89.269,74.169C89.269,74.169,105.67,67.632,111.586,63.573C116.254,60.37,119.217,57.067,122.744,52.978C126.707,48.384,132.136,42.675,133.903,37.085C135.501,32.027,135.501,26.249,133.903,21.191C132.136,15.6,127.961,8.836,122.744,5.298C117.074,1.453,100.427,0,100.427,0" fill="transparent" stroke="#492577" stroke-width="10"></path>
    </g>
    <g transform="translate(131.78,126.791)">
      <path d="M0,12.254C0,12.254,5.81,7.951,9.764,6.127C15.032,3.697,22.704,1.009,29.291,0C35.726,-0.986,43.477,-0.818,48.819,0C52.685,0.592,55.419,1.604,58.582,3.063C61.94,4.612,66.694,6.203,68.346,9.19C70.05,12.27,70.013,17.138,68.346,21.444C65.782,28.068,48.819,42.888,48.819,42.888" fill="transparent" stroke="#492577" stroke-width="10"></path>
      <path d="M58.582,3.063C58.582,3.063,60.879,15.511,58.582,21.444C55.697,28.897,39.055,42.888,39.055,42.888" fill="transparent" stroke="#492577" stroke-width="10"></path>
      <path d="M58.582,9.19C58.582,9.19,52.721,16.864,48.819,21.444C43.509,27.675,27.868,39.666,29.291,42.888C30.459,45.532,48.819,42.888,48.819,42.888" fill="transparent" stroke="#492577" stroke-width="10"></path>
      <path d="M146.456,6.127C146.456,6.127,147.111,3.718,146.456,3.063C145.288,1.895,138.131,1.625,136.693,3.063C135.553,4.203,135.383,7.881,136.693,9.19C139.029,11.527,153.883,11.527,156.22,9.19C157.529,7.881,157.319,4.559,156.22,3.063C154.8,1.13,150.323,0.592,146.456,0C141.115,-0.818,133.418,-0.506,126.929,0C120.4,0.509,113.855,1.554,107.401,3.063C100.834,4.6,94.2,6.272,87.874,9.19C81.159,12.288,68.346,21.444,68.346,21.444" fill="transparent" stroke="#492577" stroke-width="10"></path>
    </g>
    <g transform="translate(131.78,190.30097)">
      <path d="M89.269,0C89.269,0,38.631,15.045,22.317,20.187C12.861,23.167,2.427,24.175,0,27.528C-1.175,29.15,-1.213,31.605,0,33.033C2.458,35.928,14.859,35.785,22.317,36.703C29.738,37.617,35.91,38.18,44.634,38.539C56.951,39.044,74.403,39.149,89.269,38.539C104.159,37.927,121.603,36.383,133.903,34.868C142.644,33.792,156.22,31.198,156.22,31.198" fill="transparent" stroke="#492577" stroke-width="10"></path>
      <path d="M111.586,0C111.586,0,60.948,15.045,44.634,20.187C35.178,23.167,25.178,23.575,22.317,27.528C20.529,29.998,22.317,36.703,22.317,36.703" fill="transparent" stroke="#492577" stroke-width="10"></path>
      <path d="M22.317,0C22.317,0,133.211,-4.908,133.903,0C134.534,4.478,64.434,19.589,44.634,25.692C34.677,28.762,22.317,33.033,22.317,33.033" fill="transparent" stroke="#492577" stroke-width="10"></path>
      <path d="M44.634,0L111.586,1.835" fill="transparent" stroke="#492577" stroke-width="10"></path>
      <path d="M66.951,0L89.269,3.67" fill="transparent" stroke="#492577" stroke-width="10"></path>
    </g>
    <g transform="translate(131.78,249.461485)">
      <path d="M130.183,0C130.183,0,110.461,15.073,104.147,20.187C100.438,23.191,96.655,24.969,95.468,27.528C94.642,29.308,94.51,31.588,95.468,33.033C96.721,34.924,101.209,35.781,104.147,36.703C106.997,37.598,109.414,38.182,112.826,38.539C117.597,39.037,124.429,39.14,130.183,38.539C136.001,37.93,142.806,36.355,147.541,34.868C150.992,33.785,156.22,31.198,156.22,31.198" fill="transparent" stroke="#492577" stroke-width="10"></path>
      <path d="M138.862,0C138.862,0,119.14,15.073,112.826,20.187C109.117,23.191,105.516,24.576,104.147,27.528C102.917,30.179,104.147,36.703,104.147,36.703" fill="transparent" stroke="#492577" stroke-width="10"></path>
      <path d="M104.147,0C104.147,0,146.124,-4.297,147.541,0C148.955,4.287,120.476,19.636,112.826,25.692C108.901,28.799,104.147,33.033,104.147,33.033" fill="transparent" stroke="#492577" stroke-width="10"></path>
      <path d="M95.468,25.692C95.468,25.692,96.363,21.814,95.468,20.187C94.245,17.964,90.353,15.924,86.789,14.681C82.144,13.063,75.225,13.152,69.431,12.846C63.653,12.542,58.439,12.622,52.073,12.846C44.267,13.121,33.761,13.206,26.037,14.681C19.585,15.914,13.36,18.005,8.679,20.187C5.162,21.826,1.082,23.724,0,25.692C-0.647,26.868,-0.647,28.187,0,29.363C1.082,31.331,5.671,33.643,8.679,34.868C11.473,36.006,13.952,36.165,17.358,36.703C22.135,37.459,28.922,38.233,34.716,38.539C40.493,38.843,46.295,38.843,52.073,38.539C57.867,38.233,64.654,37.459,69.431,36.703C72.837,36.165,75.259,35.763,78.11,34.868C81.048,33.946,83.956,32.682,86.789,31.198C89.747,29.647,95.468,25.692,95.468,25.692" fill="transparent" stroke="#492577" stroke-width="10"></path>
      <path d="M26.037,16.517C26.037,16.517,20.191,18.702,17.358,20.187C14.399,21.737,9.901,23.469,8.679,25.692C7.784,27.32,7.721,29.753,8.679,31.198C9.932,33.089,17.358,34.868,17.358,34.868" fill="transparent" stroke="#492577" stroke-width="10"></path>
      <path d="M52.073,12.846C52.073,12.846,39.451,15.03,34.716,16.517C31.265,17.6,28.87,18.702,26.037,20.187C23.078,21.737,18.58,23.469,17.358,25.692C16.463,27.32,16.463,29.571,17.358,31.198C18.58,33.421,23.029,35.478,26.037,36.703C28.831,37.842,34.716,38.539,34.716,38.539" fill="transparent" stroke="#492577" stroke-width="10"></path>
      <path d="M112.826,0L138.862,1.835" fill="transparent" stroke="#492577" stroke-width="10"></path>
      <path d="M121.504,0L130.183,3.67" fill="transparent" stroke="#492577" stroke-width="10"></path>
    </g>
  </g>
</svg>