<svg width="160" height="80" style="background: white;" xmlns="http://www.w3.org/2000/svg">
  <rect x="0" y="0" width="160" height="80" fill="transparent"></rect>
  <g transform="translate(0,0)">
    <rect x="16" y="16" width="10.939999999999998" height="48" stroke="#eee" fill="none"></rect>
    <rect x="36.74" y="16" width="27.259999999999998" height="11.977" stroke="#eee" fill="none"></rect>
    <rect x="36.74" y="35.703" width="27.259999999999998" height="5.4750099999999975" stroke="#eee" fill="none"></rect>
    <rect x="36.74" y="48.90401" width="9.767000000000003" height="15.09599" stroke="#eee" fill="none"></rect>
    <rect x="54.233000000000004" y="48.90401" width="9.766999999999996" height="15.09599" stroke="#eee" fill="none"></rect>
  </g>
  <g transform="translate(80,0)">
    <rect x="16" y="16" width="10.939999999999998" height="48" stroke="#eee" fill="none"></rect>
    <rect x="36.74" y="16" width="27.259999999999998" height="11.977" stroke="#eee" fill="none"></rect>
    <rect x="36.74" y="35.703" width="27.259999999999998" height="5.4750099999999975" stroke="#eee" fill="none"></rect>
    <rect x="36.74" y="48.90401" width="27.259999999999998" height="3.6849950000000007" stroke="#eee" fill="none"></rect>
    <rect x="36.74" y="60.315005" width="27.259999999999998" height="3.6849950000000007" stroke="#eee" fill="none"></rect>
  </g>
  <g transform="translate(0,0)">
    <g transform="translate(16,16)">
      <path d="M0,0L0,48" fill="transparent" stroke="black" stroke-width="2"></path>
      <path d="M10.94,0L10.94,48" fill="transparent" stroke="black" stroke-width="2"></path>
      <path d="M0,22.857L10.94,22.857" fill="transparent" stroke="black" stroke-width="2"></path>
    </g>
    <g transform="translate(36.74,16)">
      <path d="M0,5.133C0,5.133,25.44,6.953,27.26,5.133C27.716,4.677,27.517,3.936,27.26,3.422C26.929,2.759,25.778,2.145,24.988,1.711C24.259,1.31,23.617,1.108,22.717,0.855C21.474,0.507,19.849,0.156,18.173,0C16.139,-0.19,13.393,-0.19,11.358,0C9.683,0.156,8.311,0.436,6.815,0.855C5.282,1.285,3.453,1.753,2.272,2.567C1.279,3.25,0.314,4.306,0,5.133C-0.222,5.717,-0.222,6.26,0,6.844C0.314,7.671,1.279,8.727,2.272,9.411C3.453,10.224,5.282,10.692,6.815,11.122C8.311,11.541,9.683,11.821,11.358,11.977C13.393,12.167,16.139,12.167,18.173,11.977C19.849,11.821,21.22,11.541,22.717,11.122C24.25,10.692,27.26,9.411,27.26,9.411" fill="transparent" stroke="black" stroke-width="2"></path>
    </g>
    <g transform="translate(36.74,35.703)">
      <path d="M13.63,0L13.63,5.475" fill="transparent" stroke="black" stroke-width="2"></path>
    </g>
    <g transform="translate(36.74,48.90401)">
      <path d="M4.884,0L4.884,15.096" fill="transparent" stroke="black" stroke-width="2"></path>
    </g>
    <g transform="translate(54.233000000000004,48.90401)">
      <path d="M3.757,0C3.757,0,2.718,0.608,2.254,1.078C1.701,1.639,1.121,2.403,0.751,3.235C0.335,4.17,0.112,5.495,0,6.47C-0.09,7.256,-0.09,7.84,0,8.626C0.112,9.601,0.335,10.926,0.751,11.861C1.121,12.693,1.701,13.457,2.254,14.018C2.718,14.488,3.17,14.907,3.757,15.096C4.404,15.304,5.363,15.304,6.01,15.096C6.597,14.907,7.049,14.488,7.513,14.018C8.066,13.457,8.646,12.693,9.016,11.861C9.432,10.926,9.655,9.601,9.767,8.626C9.857,7.84,9.857,7.256,9.767,6.47C9.655,5.495,9.432,4.17,9.016,3.235C8.646,2.403,8.066,1.639,7.513,1.078C7.049,0.608,6.597,0.189,6.01,0C5.363,-0.208,3.757,0,3.757,0" fill="transparent" stroke="black" stroke-width="2"></path>
    </g>
  </g>
  <g transform="translate(80,0)">
    <g transform="translate(16,16)">
      <path d="M0,0L2.735,48" fill="transparent" stroke="black" stroke-width="2"></path>
      <path d="M5.47,0L2.735,48" fill="transparent" stroke="black" stroke-width="2"></path>
      <path d="M5.47,0L8.205,48" fill="transparent" stroke="black" stroke-width="2"></path>
      <path d="M10.94,0L8.205,48" fill="transparent" stroke="black" stroke-width="2"></path>
    </g>
    <g transform="translate(36.74,16)">
      <path d="M10.485,0C10.485,0,7.669,0.438,6.291,0.855C4.872,1.285,3.182,1.765,2.097,2.567C1.169,3.253,0.292,4.313,0,5.133C-0.21,5.722,-0.21,6.255,0,6.844C0.292,7.664,1.169,8.724,2.097,9.411C3.182,10.212,4.872,10.692,6.291,11.122C7.669,11.539,8.937,11.821,10.485,11.977C12.361,12.166,14.899,12.166,16.775,11.977C18.323,11.821,19.591,11.539,20.969,11.122C22.388,10.692,24.078,10.212,25.163,9.411C26.091,8.724,26.968,7.664,27.26,6.844C27.47,6.255,27.47,5.722,27.26,5.133C26.968,4.313,26.091,3.253,25.163,2.567C24.078,1.765,22.388,1.285,20.969,0.855C19.591,0.438,18.323,0.156,16.775,0C14.899,-0.189,10.485,0,10.485,0" fill="transparent" stroke="black" stroke-width="2"></path>
    </g>
    <g transform="translate(36.74,35.703)">
      <path d="M0,0L0,5.475" fill="transparent" stroke="black" stroke-width="2"></path>
      <path d="M0,2.346C0,2.346,2.057,1.479,3.407,1.173C5.271,0.751,7.948,0.587,10.223,0.391C12.491,0.196,14.535,0.072,17.037,0C20.1,-0.088,27.26,0,27.26,0" fill="transparent" stroke="black" stroke-width="2"></path>
    </g>
    <g transform="translate(36.74,48.90401)">
      <path d="M13.63,0L13.63,3.685" fill="transparent" stroke="black" stroke-width="2"></path>
    </g>
    <g transform="translate(36.74,60.315005)">
      <path d="M27.26,0L27.26,3.685" fill="transparent" stroke="black" stroke-width="2"></path>
      <path d="M27.26,1.755C27.26,1.755,24.232,1.492,22.717,1.404C21.203,1.316,19.841,1.261,18.173,1.228C16.131,1.189,13.4,1.189,11.358,1.228C9.691,1.261,8.329,1.316,6.815,1.404C5.3,1.492,3.52,1.563,2.272,1.755C1.378,1.892,0.212,2.015,0,2.281C-0.082,2.385,-0.082,2.529,0,2.632C0.212,2.898,1.378,3.021,2.272,3.159C3.52,3.35,5.3,3.422,6.815,3.51C8.329,3.597,9.691,3.653,11.358,3.685C13.4,3.724,16.131,3.724,18.173,3.685C19.841,3.653,21.203,3.597,22.717,3.51C24.232,3.422,27.26,3.159,27.26,3.159" fill="transparent" stroke="black" stroke-width="2"></path>
    </g>
  </g>
</svg>