<svg width="160" height="80" style="background: white;" xmlns="http://www.w3.org/2000/svg">
  <rect x="0" y="0" width="160" height="80" fill="transparent"></rect>
  <g transform="translate(0,0)">
    <g transform="translate(8,8)">
      <path d="M2.313,0L2.313,64" fill="transparent" stroke="black" stroke-width="2"></path>
      <path d="M3.084,3.048L3.084,60.952" fill="transparent" stroke="black" stroke-width="2"></path>
      <path d="M3.855,0L3.855,64" fill="transparent" stroke="black" stroke-width="2"></path>
      <path d="M11.565,0L11.565,64" fill="transparent" stroke="black" stroke-width="2"></path>
      <path d="M12.336,3.048L12.336,60.952" fill="transparent" stroke="black" stroke-width="2"></path>
      <path d="M13.107,0L13.107,64" fill="transparent" stroke="black" stroke-width="2"></path>
      <path d="M0,0L6.168,0" fill="transparent" stroke="black" stroke-width="2"></path>
      <path d="M9.252,0L15.42,0" fill="transparent" stroke="black" stroke-width="2"></path>
      <path d="M3.855,30.476L11.565,30.476" fill="transparent" stroke="black" stroke-width="2"></path>
      <path d="M0,64L6.168,64" fill="transparent" stroke="black" stroke-width="2"></path>
      <path d="M9.252,64L15.42,64" fill="transparent" stroke="black" stroke-width="2"></path>
      <path d="M0.771,0L2.313,3.048" fill="transparent" stroke="black" stroke-width="2"></path>
      <path d="M1.542,0L2.313,6.095" fill="transparent" stroke="black" stroke-width="2"></path>
      <path d="M4.626,0L3.855,6.095" fill="transparent" stroke="black" stroke-width="2"></path>
      <path d="M5.397,0L3.855,3.048" fill="transparent" stroke="black" stroke-width="2"></path>
      <path d="M10.023,0L11.565,3.048" fill="transparent" stroke="black" stroke-width="2"></path>
      <path d="M10.794,0L11.565,6.095" fill="transparent" stroke="black" stroke-width="2"></path>
      <path d="M13.878,0L13.107,6.095" fill="transparent" stroke="black" stroke-width="2"></path>
      <path d="M14.649,0L13.107,3.048" fill="transparent" stroke="black" stroke-width="2"></path>
      <path d="M2.313,60.952L0.771,64" fill="transparent" stroke="black" stroke-width="2"></path>
      <path d="M2.313,57.905L1.542,64" fill="transparent" stroke="black" stroke-width="2"></path>
      <path d="M3.855,57.905L4.626,64" fill="transparent" stroke="black" stroke-width="2"></path>
      <path d="M3.855,60.952L5.397,64" fill="transparent" stroke="black" stroke-width="2"></path>
      <path d="M11.565,60.952L10.023,64" fill="transparent" stroke="black" stroke-width="2"></path>
      <path d="M11.565,57.905L10.794,64" fill="transparent" stroke="black" stroke-width="2"></path>
      <path d="M13.107,57.905L13.878,64" fill="transparent" stroke="black" stroke-width="2"></path>
      <path d="M13.107,60.952L14.649,64" fill="transparent" stroke="black" stroke-width="2"></path>
    </g>
    <g transform="translate(34.82,8)">
      <path d="M3.098,10.775C3.098,10.775,11.66,10.009,15.492,9.578C18.816,9.203,21.707,8.973,24.787,8.381C27.904,7.781,31.887,7.06,34.082,5.986C35.483,5.3,37.18,4.39,37.18,3.592C37.18,2.794,35.376,1.782,34.082,1.197C32.438,0.455,30.171,0.219,27.885,0C25.111,-0.266,21.682,-0.198,18.59,0C15.485,0.199,12.001,0.28,9.295,1.197C6.93,1.999,4.725,3.441,3.098,4.789C1.775,5.886,0.429,7.226,0,8.381C-0.305,9.2,-0.305,9.955,0,10.775C0.429,11.929,1.956,13.562,3.098,14.367C4.054,15.04,4.968,15.211,6.197,15.564C7.89,16.05,10.318,16.562,12.393,16.761C14.45,16.958,16.321,16.907,18.59,16.761C21.381,16.582,25.137,16.261,27.885,15.564C30.199,14.977,34.082,13.169,34.082,13.169" fill="transparent" stroke="black" stroke-width="2"></path>
      <path d="M9.295,2.394C9.295,2.394,7.184,3.853,6.197,4.789C5.109,5.819,3.579,7.088,3.098,8.381C2.68,9.505,2.614,10.987,3.098,11.972C3.604,13.001,6.197,14.367,6.197,14.367" fill="transparent" stroke="black" stroke-width="2"></path>
      <path d="M18.59,0C18.59,0,14.051,1.46,12.393,2.394C11.12,3.112,10.283,3.853,9.295,4.789C8.208,5.819,6.677,7.088,6.197,8.381C5.779,9.505,5.779,10.847,6.197,11.972C6.677,13.265,8.153,14.759,9.295,15.564C10.251,16.237,12.393,16.761,12.393,16.761" fill="transparent" stroke="black" stroke-width="2"></path>
    </g>
    <g transform="translate(34.82,33.479)">
      <path d="M21.246,0C21.246,0,9.195,3.261,5.311,4.375C3.062,5.021,0.561,5.213,0,5.966C-0.26,6.316,-0.267,6.849,0,7.16C0.567,7.818,3.537,7.756,5.311,7.955C7.078,8.153,8.547,8.275,10.623,8.353C13.555,8.463,17.707,8.485,21.246,8.353C24.789,8.22,28.94,7.886,31.869,7.557C33.948,7.324,37.18,6.762,37.18,6.762" fill="transparent" stroke="black" stroke-width="2"></path>
      <path d="M26.557,0C26.557,0,14.506,3.261,10.623,4.375C8.373,5.021,5.975,5.075,5.311,5.966C4.914,6.5,5.311,7.955,5.311,7.955" fill="transparent" stroke="black" stroke-width="2"></path>
      <path d="M5.311,0C5.311,0,31.731,-1.069,31.869,0C31.994,0.972,15.337,4.245,10.623,5.569C8.255,6.233,5.311,7.16,5.311,7.16" fill="transparent" stroke="black" stroke-width="2"></path>
      <path d="M10.623,0L26.557,0.398" fill="transparent" stroke="black" stroke-width="2"></path>
      <path d="M15.934,0L21.246,0.796" fill="transparent" stroke="black" stroke-width="2"></path>
    </g>
    <g transform="translate(34.82,50.54993)">
      <path d="M8.132,0C8.132,0,3.503,8.408,2.033,11.236C1.154,12.925,0.305,14.023,0,15.321C-0.25,16.385,-0.355,17.526,0,18.386C0.344,19.219,1.31,19.905,2.033,20.429C2.675,20.894,3.244,21.255,4.066,21.45C5.164,21.71,6.813,21.763,8.132,21.45C9.528,21.119,11.123,20.185,12.198,19.407C13.053,18.788,14.231,17.364,14.231,17.364" fill="transparent" stroke="black" stroke-width="2"></path>
      <path d="M10.165,0C10.165,0,5.536,8.408,4.066,11.236C3.187,12.925,2.381,13.839,2.033,15.321C1.664,16.889,2.033,20.429,2.033,20.429" fill="transparent" stroke="black" stroke-width="2"></path>
      <path d="M2.033,0C2.033,0,11.239,-1.649,12.198,0C13.418,2.098,5.844,10.962,4.066,14.3C3.13,16.058,2.033,18.386,2.033,18.386" fill="transparent" stroke="black" stroke-width="2"></path>
      <path d="M4.066,0L10.165,1.021" fill="transparent" stroke="black" stroke-width="2"></path>
      <path d="M6.099,0L8.132,2.043" fill="transparent" stroke="black" stroke-width="2"></path>
    </g>
    <g transform="translate(57.769,50.54993)">
      <path d="M6.099,0C6.099,0,3.859,0.682,3.05,1.532C2.067,2.564,1.528,4.571,1.017,6.129C0.522,7.636,0.151,9.34,0,10.725C-0.122,11.842,-0.122,12.672,0,13.789C0.151,15.174,0.553,17.294,1.017,18.386C1.306,19.068,1.522,19.465,2.033,19.918C2.73,20.535,4.036,21.202,5.083,21.45C6.072,21.685,7.143,21.685,8.132,21.45C9.179,21.202,10.372,20.768,11.182,19.918C12.164,18.886,12.703,16.88,13.215,15.321C13.709,13.814,14.08,12.11,14.231,10.725C14.353,9.608,14.353,8.778,14.231,7.661C14.08,6.276,13.678,4.156,13.215,3.064C12.925,2.382,12.709,1.985,12.198,1.532C11.501,0.915,10.195,0.248,9.149,0C8.159,-0.235,6.099,0,6.099,0" fill="transparent" stroke="black" stroke-width="2"></path>
      <path d="M3.05,3.064C3.05,3.064,2.345,4.995,2.033,6.129C1.656,7.497,1.185,9.184,1.017,10.725C0.85,12.248,0.797,13.96,1.017,15.321C1.201,16.463,2.033,18.386,2.033,18.386" fill="transparent" stroke="black" stroke-width="2"></path>
      <path d="M11.182,18.386C11.182,18.386,11.886,16.455,12.198,15.321C12.575,13.953,13.046,12.266,13.215,10.725C13.381,9.202,13.434,7.49,13.215,6.129C13.03,4.987,12.198,3.064,12.198,3.064" fill="transparent" stroke="black" stroke-width="2"></path>
      <path d="M6.099,0C6.099,0,4.581,2.007,4.066,3.064C3.584,4.055,3.362,4.995,3.05,6.129C2.672,7.497,2.201,9.184,2.033,10.725C1.867,12.248,1.867,13.798,2.033,15.321C2.201,16.863,2.375,18.868,3.05,19.918C3.546,20.69,5.083,21.45,5.083,21.45" fill="transparent" stroke="black" stroke-width="2"></path>
      <path d="M8.132,21.45C8.132,21.45,9.65,19.443,10.165,18.386C10.647,17.395,10.869,16.455,11.182,15.321C11.559,13.953,12.03,12.266,12.198,10.725C12.364,9.202,12.364,7.652,12.198,6.129C12.03,4.587,11.856,2.582,11.182,1.532C10.685,0.76,9.149,0,9.149,0" fill="transparent" stroke="black" stroke-width="2"></path>
    </g>
  </g>
  <g transform="translate(80,0)">
    <g transform="translate(8,8)">
      <path d="M2.103,0L4.906,64" fill="transparent" stroke="black" stroke-width="2"></path>
      <path d="M2.804,0C2.804,0,4.655,37.104,4.906,48.762C5.047,55.276,4.906,64,4.906,64" fill="transparent" stroke="black" stroke-width="2"></path>
      <path d="M3.505,0L5.607,48.762" fill="transparent" stroke="black" stroke-width="2"></path>
      <path d="M7.71,0C7.71,0,6.127,37.106,5.607,48.762C5.317,55.278,4.906,64,4.906,64" fill="transparent" stroke="black" stroke-width="2"></path>
      <path d="M7.71,0L10.514,64" fill="transparent" stroke="black" stroke-width="2"></path>
      <path d="M8.411,0C8.411,0,10.262,37.104,10.514,48.762C10.654,55.276,10.514,64,10.514,64" fill="transparent" stroke="black" stroke-width="2"></path>
      <path d="M9.112,0L11.215,48.762" fill="transparent" stroke="black" stroke-width="2"></path>
      <path d="M13.317,3.048C13.317,3.048,11.728,37.607,11.215,48.762C10.918,55.202,10.514,64,10.514,64" fill="transparent" stroke="black" stroke-width="2"></path>
      <path d="M0,0L5.607,0" fill="transparent" stroke="black" stroke-width="2"></path>
      <path d="M7.71,0L9.112,0" fill="transparent" stroke="black" stroke-width="2"></path>
      <path d="M11.215,0L15.42,0" fill="transparent" stroke="black" stroke-width="2"></path>
      <path d="M0.701,0L2.804,3.048" fill="transparent" stroke="black" stroke-width="2"></path>
      <path d="M1.402,0L2.804,6.095" fill="transparent" stroke="black" stroke-width="2"></path>
      <path d="M4.205,0L3.505,6.095" fill="transparent" stroke="black" stroke-width="2"></path>
      <path d="M4.906,0L3.505,3.048" fill="transparent" stroke="black" stroke-width="2"></path>
      <path d="M11.915,0L13.317,3.048" fill="transparent" stroke="black" stroke-width="2"></path>
      <path d="M14.719,0L13.317,3.048" fill="transparent" stroke="black" stroke-width="2"></path>
    </g>
    <g transform="translate(34.82,8)">
      <path d="M15.934,0C15.934,0,10.268,0.3,7.967,1.197C5.914,1.998,4.039,3.462,2.656,4.789C1.501,5.896,0.374,7.245,0,8.381C-0.274,9.212,-0.274,9.944,0,10.775C0.374,11.91,1.654,13.558,2.656,14.367C3.465,15.019,4.159,15.224,5.311,15.564C7.228,16.128,10.615,16.562,13.279,16.761C15.927,16.959,18.597,16.959,21.246,16.761C23.909,16.562,26.912,16.461,29.213,15.564C31.266,14.763,33.141,13.299,34.524,11.972C35.679,10.865,36.806,9.516,37.18,8.381C37.454,7.549,37.454,6.817,37.18,5.986C36.806,4.851,35.526,3.203,34.524,2.394C33.715,1.742,33.021,1.537,31.869,1.197C29.952,0.633,26.565,0.199,23.901,0C21.253,-0.198,15.934,0,15.934,0" fill="transparent" stroke="black" stroke-width="2"></path>
      <path d="M7.967,2.394C7.967,2.394,6.153,3.862,5.311,4.789C4.371,5.825,3.074,7.111,2.656,8.381C2.28,9.519,2.212,10.974,2.656,11.972C3.099,12.968,5.311,14.367,5.311,14.367" fill="transparent" stroke="black" stroke-width="2"></path>
      <path d="M29.213,14.367C29.213,14.367,31.027,12.899,31.869,11.972C32.809,10.936,34.106,9.65,34.524,8.381C34.9,7.242,34.968,5.787,34.524,4.789C34.081,3.793,31.869,2.394,31.869,2.394" fill="transparent" stroke="black" stroke-width="2"></path>
      <path d="M15.934,0C15.934,0,12.034,1.473,10.623,2.394C9.517,3.117,8.808,3.862,7.967,4.789C7.027,5.825,5.73,7.111,5.311,8.381C4.936,9.519,4.936,10.833,5.311,11.972C5.73,13.242,6.74,14.764,7.967,15.564C9.321,16.447,13.279,16.761,13.279,16.761" fill="transparent" stroke="black" stroke-width="2"></path>
      <path d="M21.246,16.761C21.246,16.761,25.146,15.288,26.557,14.367C27.663,13.644,28.372,12.899,29.213,11.972C30.153,10.936,31.45,9.65,31.869,8.381C32.244,7.242,32.244,5.928,31.869,4.789C31.45,3.519,30.44,1.997,29.213,1.197C27.859,0.314,23.901,0,23.901,0" fill="transparent" stroke="black" stroke-width="2"></path>
    </g>
    <g transform="translate(34.82,33.479)">
      <path d="M0,2.387C0,2.387,1.393,1.547,2.324,1.193C3.586,0.714,5.41,0.197,6.971,0C8.508,-0.194,10.344,-0.161,11.619,0C12.535,0.116,13.184,0.309,13.942,0.597C14.734,0.897,15.888,1.17,16.266,1.79C16.628,2.382,16.632,3.356,16.266,4.176C15.675,5.504,11.619,8.353,11.619,8.353" fill="transparent" stroke="black" stroke-width="2"></path>
      <path d="M13.942,0.597C13.942,0.597,14.448,3.043,13.942,4.176C13.275,5.674,9.295,8.353,9.295,8.353" fill="transparent" stroke="black" stroke-width="2"></path>
      <path d="M13.942,1.79C13.942,1.79,12.544,3.288,11.619,4.176C10.352,5.394,6.724,7.708,6.971,8.353C7.184,8.909,11.619,8.353,11.619,8.353" fill="transparent" stroke="black" stroke-width="2"></path>
      <path d="M34.856,1.193C34.856,1.193,34.988,0.729,34.856,0.597C34.596,0.336,32.856,0.273,32.533,0.597C32.301,0.828,32.269,1.526,32.533,1.79C33.053,2.311,36.659,2.311,37.18,1.79C37.444,1.526,37.406,0.888,37.18,0.597C36.86,0.184,35.772,0.116,34.856,0C33.581,-0.161,31.755,-0.099,30.209,0C28.656,0.099,27.101,0.301,25.561,0.597C24.003,0.896,22.431,1.214,20.914,1.79C19.33,2.391,16.266,4.176,16.266,4.176" fill="transparent" stroke="black" stroke-width="2"></path>
    </g>
    <g transform="translate(34.82,50.54993)">
      <path d="M21.246,0C21.246,0,9.197,2.485,5.311,3.335C3.064,3.826,0.514,3.903,0,4.547C-0.21,4.81,-0.213,5.218,0,5.457C0.517,6.036,3.539,5.911,5.311,6.063C7.08,6.214,8.548,6.307,10.623,6.366C13.555,6.45,17.706,6.467,21.246,6.366C24.788,6.265,28.938,6.01,31.869,5.76C33.946,5.582,37.18,5.153,37.18,5.153" fill="transparent" stroke="black" stroke-width="2"></path>
      <path d="M26.557,0C26.557,0,14.508,2.485,10.623,3.335C8.375,3.826,5.923,3.78,5.311,4.547C4.989,4.952,5.311,6.063,5.311,6.063" fill="transparent" stroke="black" stroke-width="2"></path>
      <path d="M5.311,0C5.311,0,31.787,-0.823,31.869,0C31.942,0.743,15.34,3.235,10.623,4.244C8.258,4.75,5.311,5.457,5.311,5.457" fill="transparent" stroke="black" stroke-width="2"></path>
      <path d="M10.623,0L26.557,0.303" fill="transparent" stroke="black" stroke-width="2"></path>
      <path d="M15.934,0L21.246,0.606" fill="transparent" stroke="black" stroke-width="2"></path>
    </g>
    <g transform="translate(34.82,65.633965)">
      <path d="M30.983,0C30.983,0,26.293,2.488,24.787,3.335C23.908,3.829,22.984,4.089,22.721,4.547C22.559,4.83,22.545,5.221,22.721,5.457C22.992,5.819,24.093,5.911,24.787,6.063C25.47,6.213,26.043,6.307,26.852,6.366C27.99,6.449,29.61,6.466,30.983,6.366C32.364,6.265,33.981,6.008,35.114,5.76C35.928,5.581,37.18,5.153,37.18,5.153" fill="transparent" stroke="black" stroke-width="2"></path>
      <path d="M33.049,0C33.049,0,28.359,2.488,26.852,3.335C25.973,3.829,25.092,4.014,24.787,4.547C24.544,4.971,24.787,6.063,24.787,6.063" fill="transparent" stroke="black" stroke-width="2"></path>
      <path d="M24.787,0C24.787,0,34.929,-0.766,35.114,0C35.29,0.726,28.679,3.24,26.852,4.244C25.925,4.754,24.787,5.457,24.787,5.457" fill="transparent" stroke="black" stroke-width="2"></path>
      <path d="M22.721,4.244C22.721,4.244,22.891,3.595,22.721,3.335C22.454,2.925,21.483,2.631,20.656,2.425C19.534,2.146,17.902,2.173,16.524,2.122C15.148,2.072,13.909,2.085,12.393,2.122C10.536,2.167,8.044,2.178,6.197,2.425C4.671,2.629,3.192,2.967,2.066,3.335C1.243,3.603,0.235,3.884,0,4.244C-0.122,4.431,-0.122,4.664,0,4.85C0.235,5.211,1.363,5.558,2.066,5.76C2.741,5.954,3.323,5.974,4.131,6.063C5.27,6.188,6.884,6.316,8.262,6.366C9.638,6.416,11.017,6.416,12.393,6.366C13.771,6.316,15.386,6.188,16.524,6.063C17.333,5.974,17.907,5.909,18.59,5.76C19.284,5.608,19.975,5.402,20.656,5.153C21.352,4.899,22.721,4.244,22.721,4.244" fill="transparent" stroke="black" stroke-width="2"></path>
      <path d="M6.197,2.728C6.197,2.728,4.812,3.086,4.131,3.335C3.434,3.589,2.333,3.834,2.066,4.244C1.896,4.504,1.889,4.918,2.066,5.153C2.337,5.516,4.131,5.76,4.131,5.76" fill="transparent" stroke="black" stroke-width="2"></path>
      <path d="M12.393,2.122C12.393,2.122,9.396,2.48,8.262,2.728C7.448,2.907,6.877,3.086,6.197,3.335C5.5,3.589,4.398,3.834,4.131,4.244C3.961,4.504,3.961,4.893,4.131,5.153C4.398,5.563,5.494,5.861,6.197,6.063C6.872,6.257,8.262,6.366,8.262,6.366" fill="transparent" stroke="black" stroke-width="2"></path>
      <path d="M26.852,0L33.049,0.303" fill="transparent" stroke="black" stroke-width="2"></path>
      <path d="M28.918,0L30.983,0.606" fill="transparent" stroke="black" stroke-width="2"></path>
    </g>
  </g>
</svg>