<svg width="640" height="320" style="background: rgb(241, 187, 77);" xmlns="http://www.w3.org/2000/svg">
  <g transform="translate(0,0)">
    <g transform="translate(32,32)">
      <path d="M22.636,0C22.636,0,-11.428,243.517,0,256C1.958,258.139,7.545,256,7.545,256" fill="transparent" stroke="#492577" stroke-width="10"></path>
      <path d="M26.408,0L3.773,256" fill="transparent" stroke="#492577" stroke-width="10"></path>
      <path d="M11.318,0C11.318,0,25.669,-4.928,30.181,0C46.834,18.19,7.545,256,7.545,256" fill="transparent" stroke="#492577" stroke-width="10"></path>
      <path d="M15.091,170.667C15.091,170.667,19.55,135.277,22.636,121.905C24.855,112.287,27.185,104.104,30.181,97.524C32.426,92.592,34.66,87.042,37.726,85.333C39.951,84.094,43.047,84.094,45.272,85.333C48.338,87.042,50.975,92.538,52.817,97.524C55.233,104.064,55.899,112.927,56.589,121.905C57.43,132.835,57.435,144.767,56.589,158.476C55.494,176.243,49.044,219.429,49.044,219.429" fill="transparent" stroke="#492577" stroke-width="10"></path>
      <path d="M52.817,97.524C52.817,97.524,53.444,130.044,52.817,146.286C52.189,162.552,49.673,178.782,49.044,195.048C48.417,211.289,49.044,243.81,49.044,243.81" fill="transparent" stroke="#492577" stroke-width="10"></path>
      <path d="M52.817,121.905C52.817,121.905,46.367,165.091,45.272,182.857C44.426,196.567,44.431,208.499,45.272,219.429C45.962,228.406,47.501,237.123,49.044,243.81C50.154,248.618,50.421,254.234,52.817,256C54.659,257.358,58.251,257.556,60.362,256C64.244,253.138,66.016,239.816,67.907,231.619C69.767,223.56,71.68,207.238,71.68,207.238" fill="transparent" stroke="#492577" stroke-width="10"></path>
      <path d="M15.091,0L26.408,12.19" fill="transparent" stroke="#492577" stroke-width="10"></path>
      <path d="M18.863,0L22.636,24.381" fill="transparent" stroke="#492577" stroke-width="10"></path>
    </g>
    <g transform="translate(129.28,32)">
      <path d="M13.227,46.08C13.227,46.08,49.778,42.806,66.133,40.96C80.323,39.358,92.665,38.375,105.813,35.84C119.12,33.275,136.126,30.191,145.493,25.6C151.478,22.667,158.72,18.773,158.72,15.36C158.72,11.947,151.021,7.622,145.493,5.12C138.478,1.945,128.798,0.936,119.04,0C107.198,-1.135,92.559,-0.848,79.36,0C66.106,0.852,51.23,1.2,39.68,5.12C29.581,8.548,20.169,14.715,13.227,20.48C7.575,25.173,1.832,30.906,0,35.84C-1.302,39.347,-1.302,42.573,0,46.08C1.832,51.014,8.348,57.997,13.227,61.44C17.307,64.32,21.208,65.05,26.453,66.56C33.683,68.641,44.048,70.831,52.907,71.68C61.684,72.522,69.673,72.302,79.36,71.68C91.273,70.915,107.309,69.541,119.04,66.56C128.918,64.05,145.493,56.32,145.493,56.32" fill="transparent" stroke="#492577" stroke-width="10"></path>
      <path d="M39.68,10.24C39.68,10.24,30.67,16.477,26.453,20.48C21.812,24.886,15.278,30.313,13.227,35.84C11.441,40.651,11.159,46.985,13.227,51.2C15.384,55.599,26.453,61.44,26.453,61.44" fill="transparent" stroke="#492577" stroke-width="10"></path>
      <path d="M79.36,0C79.36,0,59.984,6.243,52.907,10.24C47.472,13.309,43.897,16.477,39.68,20.48C35.038,24.886,28.505,30.313,26.453,35.84C24.667,40.651,24.667,46.389,26.453,51.2C28.505,56.727,34.802,63.117,39.68,66.56C43.761,69.44,52.907,71.68,52.907,71.68" fill="transparent" stroke="#492577" stroke-width="10"></path>
    </g>
    <g transform="translate(129.28,129.28)">
      <path d="M90.697,0C90.697,0,39.249,15.451,22.674,20.731C13.067,23.792,2.473,24.841,0,28.27C-1.203,29.938,-1.243,32.457,0,33.924C2.506,36.88,15.097,36.75,22.674,37.693C30.213,38.631,36.485,39.21,45.349,39.578C57.862,40.097,75.594,40.204,90.697,39.578C105.826,38.95,123.549,37.364,136.046,35.808C144.927,34.703,158.72,32.039,158.72,32.039" fill="transparent" stroke="#492577" stroke-width="10"></path>
      <path d="M113.371,0C113.371,0,61.923,15.451,45.349,20.731C35.741,23.792,25.59,24.228,22.674,28.27C20.843,30.808,22.674,37.693,22.674,37.693" fill="transparent" stroke="#492577" stroke-width="10"></path>
      <path d="M22.674,0C22.674,0,135.328,-5.037,136.046,0C136.701,4.598,65.464,20.118,45.349,26.385C35.231,29.537,22.674,33.924,22.674,33.924" fill="transparent" stroke="#492577" stroke-width="10"></path>
      <path d="M45.349,0L113.371,1.885" fill="transparent" stroke="#492577" stroke-width="10"></path>
      <path d="M68.023,0L90.697,3.769" fill="transparent" stroke="#492577" stroke-width="10"></path>
    </g>
    <g transform="translate(129.28,194.4576)">
      <path d="M38.034,0C38.034,0,16.388,36.662,9.509,48.998C5.403,56.361,1.422,61.132,0,66.816C-1.156,71.439,-1.615,76.453,0,80.179C1.595,83.859,6.149,86.812,9.509,89.088C12.525,91.131,15.191,92.691,19.017,93.542C24.167,94.689,31.845,94.92,38.034,93.542C44.539,92.094,52.007,88.051,57.051,84.634C61.025,81.942,66.56,75.725,66.56,75.725" fill="transparent" stroke="#492577" stroke-width="10"></path>
      <path d="M47.543,0C47.543,0,25.897,36.662,19.017,48.998C14.911,56.361,11.132,60.325,9.509,66.816C7.804,73.632,9.509,89.088,9.509,89.088" fill="transparent" stroke="#492577" stroke-width="10"></path>
      <path d="M9.509,0C9.509,0,52.847,-7.488,57.051,0C62.262,9.282,27.337,47.795,19.017,62.362C14.643,70.021,9.509,80.179,9.509,80.179" fill="transparent" stroke="#492577" stroke-width="10"></path>
      <path d="M19.017,0L47.543,4.454" fill="transparent" stroke="#492577" stroke-width="10"></path>
      <path d="M28.526,0L38.034,8.909" fill="transparent" stroke="#492577" stroke-width="10"></path>
    </g>
    <g transform="translate(221.44,194.4576)">
      <path d="M28.526,0C28.526,0,18.064,2.898,14.263,6.682C9.751,11.172,7.147,19.916,4.754,26.726C2.448,33.289,0.707,40.727,0,46.771C-0.569,51.639,-0.569,55.266,0,60.134C0.707,66.179,2.601,75.43,4.754,80.179C6.113,83.176,7.15,84.894,9.509,86.861C12.777,89.587,18.893,92.456,23.771,93.542C28.414,94.576,33.392,94.576,38.034,93.542C42.912,92.456,48.496,90.644,52.297,86.861C56.809,82.371,59.413,73.626,61.806,66.816C64.112,60.254,65.853,52.815,66.56,46.771C67.129,41.903,67.129,38.276,66.56,33.408C65.853,27.364,63.959,18.112,61.806,13.363C60.447,10.367,59.41,8.649,57.051,6.682C53.783,3.955,47.667,1.086,42.789,0C38.146,-1.033,28.526,0,28.526,0" fill="transparent" stroke="#492577" stroke-width="10"></path>
      <path d="M14.263,13.363C14.263,13.363,10.971,21.778,9.509,26.726C7.746,32.69,5.541,40.043,4.754,46.771C3.978,53.408,3.731,60.887,4.754,66.816C5.615,71.803,9.509,80.179,9.509,80.179" fill="transparent" stroke="#492577" stroke-width="10"></path>
      <path d="M52.297,80.179C52.297,80.179,55.589,71.765,57.051,66.816C58.814,60.852,61.019,53.499,61.806,46.771C62.582,40.135,62.829,32.655,61.806,26.726C60.945,21.739,57.051,13.363,57.051,13.363" fill="transparent" stroke="#492577" stroke-width="10"></path>
      <path d="M28.526,0C28.526,0,21.427,8.735,19.017,13.363C16.776,17.667,15.725,21.778,14.263,26.726C12.5,32.69,10.296,40.043,9.509,46.771C8.732,53.408,8.732,60.179,9.509,66.816C10.296,73.544,11.173,82.301,14.263,86.861C16.583,90.285,23.771,93.542,23.771,93.542" fill="transparent" stroke="#492577" stroke-width="10"></path>
      <path d="M38.034,93.542C38.034,93.542,45.133,84.807,47.543,80.179C49.784,75.875,50.835,71.765,52.297,66.816C54.06,60.852,56.264,53.499,57.051,46.771C57.828,40.135,57.828,33.363,57.051,26.726C56.264,19.998,55.387,11.241,52.297,6.682C49.977,3.257,42.789,0,42.789,0" fill="transparent" stroke="#492577" stroke-width="10"></path>
    </g>
  </g>
  <g transform="translate(320,0)">
    <g transform="translate(32,32)">
      <path d="M0,73.143C0,73.143,1.383,48.736,2.757,36.571C4.136,24.355,4.325,3.396,8.271,0C9.794,-1.311,12.419,-1.176,13.785,0C16.286,2.153,15.733,11.127,16.542,18.286C17.68,28.367,18.793,41.425,19.298,54.857C19.917,71.285,19.919,89.117,19.298,109.714C18.497,136.33,13.785,201.143,13.785,201.143" fill="transparent" stroke="#492577" stroke-width="10"></path>
      <path d="M16.542,18.286C16.542,18.286,17.001,67.052,16.542,91.429C16.082,115.814,14.244,140.186,13.785,164.571C13.325,188.948,13.785,237.714,13.785,237.714" fill="transparent" stroke="#492577" stroke-width="10"></path>
      <path d="M16.542,54.857C16.542,54.857,11.83,119.67,11.028,146.286C10.407,166.883,10.409,184.715,11.028,201.143C11.533,214.575,11.92,227.699,13.785,237.714C15.13,244.942,16.431,253.87,19.298,256C20.839,257.145,23.272,257.145,24.812,256C27.68,253.87,28.704,244.924,30.326,237.714C32.583,227.682,34.491,214.602,35.84,201.143C37.484,184.741,38.597,146.286,38.597,146.286" fill="transparent" stroke="#492577" stroke-width="10"></path>
      <path d="M44.111,0C44.111,0,39.295,109.242,38.597,146.286C38.17,168.962,37.979,184.715,38.597,201.143C39.103,214.575,39.489,227.699,41.354,237.714C42.699,244.942,44,253.87,46.868,256C48.408,257.145,50.841,257.145,52.382,256C55.249,253.87,56.274,244.924,57.895,237.714C60.152,227.682,61.721,214.588,63.409,201.143C65.47,184.727,67.569,165.907,68.923,146.286C70.484,123.678,71.221,97.528,71.68,73.143C72.139,48.766,75.644,3.964,71.68,0C70.91,-0.77,69.585,-0.662,68.923,0C67.218,1.705,68.655,11.151,68.923,18.286C69.303,28.391,71.68,54.857,71.68,54.857" fill="transparent" stroke="#492577" stroke-width="10"></path>
      <path d="M46.868,0C46.868,0,42.165,103.22,41.354,146.286C40.713,180.32,41.354,237.714,41.354,237.714" fill="transparent" stroke="#492577" stroke-width="10"></path>
      <path d="M44.111,0C44.111,0,48.168,-1.521,49.625,0C56.646,7.331,45.594,91.262,44.111,128C42.989,155.768,41.354,201.143,41.354,201.143" fill="transparent" stroke="#492577" stroke-width="10"></path>
    </g>
    <g transform="translate(129.28,32)">
      <path d="M68.023,0C68.023,0,43.833,1.283,34.011,5.12C25.247,8.544,17.243,14.808,11.337,20.48C6.406,25.215,1.598,30.985,0,35.84C-1.17,39.396,-1.17,42.524,0,46.08C1.598,50.935,7.059,57.983,11.337,61.44C14.791,64.23,17.754,65.109,22.674,66.56C30.856,68.973,45.317,70.829,56.686,71.68C67.991,72.526,79.392,72.526,90.697,71.68C102.066,70.829,114.887,70.397,124.709,66.56C133.473,63.136,141.477,56.872,147.383,51.2C152.314,46.465,157.122,40.695,158.72,35.84C159.89,32.284,159.89,29.156,158.72,25.6C157.122,20.745,151.661,13.697,147.383,10.24C143.929,7.45,140.966,6.571,136.046,5.12C127.864,2.707,113.403,0.851,102.034,0C90.729,-0.846,68.023,0,68.023,0" fill="transparent" stroke="#492577" stroke-width="10"></path>
      <path d="M34.011,10.24C34.011,10.24,26.265,16.516,22.674,20.48C18.66,24.912,13.124,30.41,11.337,35.84C9.734,40.711,9.44,46.93,11.337,51.2C13.229,55.459,22.674,61.44,22.674,61.44" fill="transparent" stroke="#492577" stroke-width="10"></path>
      <path d="M124.709,61.44C124.709,61.44,132.455,55.164,136.046,51.2C140.06,46.768,145.596,41.27,147.383,35.84C148.986,30.969,149.28,24.75,147.383,20.48C145.491,16.221,136.046,10.24,136.046,10.24" fill="transparent" stroke="#492577" stroke-width="10"></path>
      <path d="M68.023,0C68.023,0,51.373,6.298,45.349,10.24C40.628,13.329,37.602,16.516,34.011,20.48C29.997,24.912,24.461,30.41,22.674,35.84C21.071,40.711,21.071,46.329,22.674,51.2C24.461,56.63,28.773,63.139,34.011,66.56C39.792,70.335,56.686,71.68,56.686,71.68" fill="transparent" stroke="#492577" stroke-width="10"></path>
      <path d="M90.697,71.68C90.697,71.68,107.347,65.382,113.371,61.44C118.092,58.351,121.118,55.164,124.709,51.2C128.723,46.768,134.259,41.27,136.046,35.84C137.649,30.969,137.649,25.351,136.046,20.48C134.259,15.05,129.947,8.541,124.709,5.12C118.928,1.345,102.034,0,102.034,0" fill="transparent" stroke="#492577" stroke-width="10"></path>
    </g>
    <g transform="translate(129.28,129.28)">
      <path d="M0,11.308C0,11.308,5.925,7.333,9.92,5.654C15.29,3.397,23.081,0.933,29.76,0C36.31,-0.915,44.165,-0.759,49.6,0C53.519,0.548,56.293,1.471,59.52,2.827C62.915,4.254,67.791,5.642,69.44,8.481C71.081,11.306,71.072,15.856,69.44,19.789C66.871,25.98,49.6,39.578,49.6,39.578" fill="transparent" stroke="#492577" stroke-width="10"></path>
      <path d="M59.52,2.827C59.52,2.827,61.771,14.363,59.52,19.789C56.626,26.762,39.68,39.578,39.68,39.578" fill="transparent" stroke="#492577" stroke-width="10"></path>
      <path d="M59.52,8.481C59.52,8.481,53.557,15.57,49.6,19.789C44.199,25.547,28.514,36.563,29.76,39.578C30.809,42.114,49.6,39.578,49.6,39.578" fill="transparent" stroke="#492577" stroke-width="10"></path>
      <path d="M148.8,5.654C148.8,5.654,149.414,3.441,148.8,2.827C147.649,1.676,140.302,1.404,138.88,2.827C137.806,3.901,137.651,7.252,138.88,8.481C141.182,10.783,156.418,10.783,158.72,8.481C159.949,7.252,159.761,4.207,158.72,2.827C157.313,0.963,152.719,0.548,148.8,0C143.365,-0.759,135.557,-0.468,128.96,0C122.33,0.47,115.686,1.43,109.12,2.827C102.458,4.244,95.734,5.769,89.28,8.481C82.49,11.334,69.44,19.789,69.44,19.789" fill="transparent" stroke="#492577" stroke-width="10"></path>
    </g>
    <g transform="translate(129.28,194.4576)">
      <path d="M90.697,0C90.697,0,39.255,13.261,22.674,17.794C13.073,20.42,2.359,21.139,0,24.265C-1.07,25.683,-1.097,27.854,0,29.118C2.382,31.865,15.102,31.544,22.674,32.354C30.218,33.16,36.487,33.655,45.349,33.971C57.865,34.417,75.591,34.509,90.697,33.971C105.823,33.432,123.543,32.072,136.046,30.736C144.92,29.787,158.72,27.5,158.72,27.5" fill="transparent" stroke="#492577" stroke-width="10"></path>
      <path d="M113.371,0C113.371,0,61.929,13.261,45.349,17.794C35.747,20.42,25.466,20.565,22.674,24.265C21.039,26.432,22.674,32.354,22.674,32.354" fill="transparent" stroke="#492577" stroke-width="10"></path>
      <path d="M22.674,0C22.674,0,135.51,-4.357,136.046,0C136.532,3.956,65.474,17.265,45.349,22.647C35.241,25.351,22.674,29.118,22.674,29.118" fill="transparent" stroke="#492577" stroke-width="10"></path>
      <path d="M45.349,0L113.371,1.618" fill="transparent" stroke="#492577" stroke-width="10"></path>
      <path d="M68.023,0L90.697,3.235" fill="transparent" stroke="#492577" stroke-width="10"></path>
    </g>
    <g transform="translate(129.28,254.02880000000002)">
      <path d="M132.267,0C132.267,0,112.235,13.281,105.813,17.794C102.052,20.438,98.171,21.945,96.996,24.265C96.213,25.81,96.112,27.853,96.996,29.118C98.225,30.879,102.839,31.541,105.813,32.354C108.719,33.147,111.171,33.656,114.631,33.971C119.484,34.413,126.412,34.504,132.267,33.971C138.17,33.434,145.078,32.053,149.902,30.736C153.394,29.782,158.72,27.5,158.72,27.5" fill="transparent" stroke="#492577" stroke-width="10"></path>
      <path d="M141.084,0C141.084,0,121.053,13.281,114.631,17.794C110.87,20.438,107.172,21.582,105.813,24.265C104.645,26.572,105.813,32.354,105.813,32.354" fill="transparent" stroke="#492577" stroke-width="10"></path>
      <path d="M105.813,0C105.813,0,148.752,-3.92,149.902,0C151.024,3.822,122.415,17.3,114.631,22.647C110.655,25.379,105.813,29.118,105.813,29.118" fill="transparent" stroke="#492577" stroke-width="10"></path>
      <path d="M96.996,22.647C96.996,22.647,97.832,19.21,96.996,17.794C95.791,15.757,91.759,14.038,88.178,12.941C83.428,11.486,76.427,11.593,70.542,11.324C64.67,11.055,59.376,11.126,52.907,11.324C44.976,11.566,34.32,11.633,26.453,12.941C19.918,14.028,13.596,15.853,8.818,17.794C5.273,19.234,1.063,20.848,0,22.647C-0.603,23.668,-0.603,24.863,0,25.883C1.063,27.682,5.788,29.656,8.818,30.736C11.677,31.755,14.179,31.879,17.636,32.354C22.493,33.021,29.386,33.702,35.271,33.971C41.143,34.24,47.034,34.24,52.907,33.971C58.791,33.702,65.685,33.021,70.542,32.354C73.998,31.879,76.454,31.529,79.36,30.736C82.334,29.924,85.288,28.817,88.178,27.5C91.17,26.138,96.996,22.647,96.996,22.647" fill="transparent" stroke="#492577" stroke-width="10"></path>
      <path d="M26.453,14.559C26.453,14.559,20.526,16.478,17.636,17.794C14.644,19.157,10.022,20.61,8.818,22.647C7.981,24.063,7.934,26.235,8.818,27.5C10.047,29.261,17.636,30.736,17.636,30.736" fill="transparent" stroke="#492577" stroke-width="10"></path>
      <path d="M52.907,11.324C52.907,11.324,40.095,13.242,35.271,14.559C31.78,15.512,29.344,16.478,26.453,17.794C23.461,19.157,18.84,20.61,17.636,22.647C16.799,24.063,16.799,26.085,17.636,27.5C18.84,29.538,23.424,31.274,26.453,32.354C29.312,33.372,35.271,33.971,35.271,33.971" fill="transparent" stroke="#492577" stroke-width="10"></path>
      <path d="M114.631,0L141.084,1.618" fill="transparent" stroke="#492577" stroke-width="10"></path>
      <path d="M123.449,0L132.267,3.235" fill="transparent" stroke="#492577" stroke-width="10"></path>
    </g>
  </g>
</svg>