<svg width="400" height="200" style="background: white;" xmlns="http://www.w3.org/2000/svg">
  <g transform="translate(0,0)">
    <g transform="translate(20,20)">
      <path d="M0,0L0,160" fill="transparent" stroke="black" stroke-width="2"></path>
      <path d="M47.8,0L47.8,160" fill="transparent" stroke="black" stroke-width="2"></path>
      <path d="M0,76.19L47.8,76.19" fill="transparent" stroke="black" stroke-width="2"></path>
    </g>
    <g transform="translate(77.80000000000001,20)">
      <path d="M0,20.486C0,20.486,95.203,27.483,102.2,20.486C104.009,18.677,103.192,15.723,102.2,13.657C100.946,11.045,96.657,8.565,93.683,6.829C90.957,5.237,88.547,4.421,85.167,3.414C80.515,2.028,74.419,0.624,68.133,0C60.511,-0.756,50.206,-0.756,42.583,0C36.298,0.624,31.152,1.745,25.55,3.414C19.792,5.13,12.928,7.032,8.517,10.243C4.758,12.979,1.184,17.208,0,20.486C-0.848,22.832,-0.848,24.968,0,27.314C1.184,30.592,4.758,34.821,8.517,37.557C12.928,40.768,19.792,42.67,25.55,44.386C31.152,46.055,36.298,47.176,42.583,47.8C50.206,48.556,60.511,48.556,68.133,47.8C74.419,47.176,79.565,46.055,85.167,44.386C90.924,42.67,102.2,37.557,102.2,37.557" fill="transparent" stroke="black" stroke-width="2"></path>
    </g>
    <g transform="translate(77.80000000000001,77.80000000000001)">
      <path d="M51.1,0L51.1,28.726" fill="transparent" stroke="black" stroke-width="2"></path>
    </g>
    <g transform="translate(77.80000000000001,116.52600000000001)">
      <path d="M23.05,0L23.05,63.474" fill="transparent" stroke="black" stroke-width="2"></path>
    </g>
    <g transform="translate(133.9,116.52600000000001)">
      <path d="M17.731,0C17.731,0,12.845,2.528,10.638,4.534C8.058,6.88,5.295,10.066,3.546,13.602C1.613,17.509,0.527,23.097,0,27.203C-0.423,30.501,-0.423,32.973,0,36.271C0.527,40.377,1.613,45.965,3.546,49.872C5.295,53.408,8.058,56.594,10.638,58.94C12.845,60.946,14.995,62.674,17.731,63.474C20.807,64.373,25.293,64.373,28.369,63.474C31.105,62.674,33.255,60.946,35.462,58.94C38.042,56.594,40.805,53.408,42.554,49.872C44.487,45.965,45.573,40.377,46.1,36.271C46.523,32.973,46.523,30.501,46.1,27.203C45.573,23.097,44.487,17.509,42.554,13.602C40.805,10.066,38.042,6.88,35.462,4.534C33.255,2.528,31.105,0.8,28.369,0C25.293,-0.899,17.731,0,17.731,0" fill="transparent" stroke="black" stroke-width="2"></path>
    </g>
  </g>
  <g transform="translate(200,0)">
    <g transform="translate(20,20)">
      <path d="M0,0L11.95,160" fill="transparent" stroke="black" stroke-width="2"></path>
      <path d="M23.9,0L11.95,160" fill="transparent" stroke="black" stroke-width="2"></path>
      <path d="M23.9,0L35.85,160" fill="transparent" stroke="black" stroke-width="2"></path>
      <path d="M47.8,0L35.85,160" fill="transparent" stroke="black" stroke-width="2"></path>
    </g>
    <g transform="translate(77.80000000000001,20)">
      <path d="M39.308,0C39.308,0,28.745,1.751,23.585,3.414C18.258,5.131,11.913,7.079,7.862,10.243C4.345,12.989,1.103,17.236,0,20.486C-0.802,22.849,-0.802,24.951,0,27.314C1.103,30.564,4.345,34.811,7.862,37.557C11.913,40.721,18.258,42.669,23.585,44.386C28.745,46.049,33.5,47.177,39.308,47.8C46.339,48.555,55.861,48.555,62.892,47.8C68.7,47.177,73.455,46.049,78.615,44.386C83.942,42.669,90.287,40.721,94.338,37.557C97.855,34.811,101.097,30.564,102.2,27.314C103.002,24.951,103.002,22.849,102.2,20.486C101.097,17.236,97.855,12.989,94.338,10.243C90.287,7.079,83.942,5.131,78.615,3.414C73.455,1.751,68.7,0.623,62.892,0C55.861,-0.755,39.308,0,39.308,0" fill="transparent" stroke="black" stroke-width="2"></path>
    </g>
    <g transform="translate(77.80000000000001,77.80000000000001)">
      <path d="M0,0L0,28.726" fill="transparent" stroke="black" stroke-width="2"></path>
      <path d="M0,12.311C0,12.311,7.646,7.765,12.775,6.156C19.703,3.981,29.788,3.079,38.325,2.052C46.821,1.03,54.49,0.376,63.875,0C75.351,-0.46,102.2,0,102.2,0" fill="transparent" stroke="black" stroke-width="2"></path>
    </g>
    <g transform="translate(77.80000000000001,116.52600000000001)">
      <path d="M51.1,0L51.1,26.737" fill="transparent" stroke="black" stroke-width="2"></path>
    </g>
    <g transform="translate(77.80000000000001,153.263)">
      <path d="M102.2,0L102.2,26.737" fill="transparent" stroke="black" stroke-width="2"></path>
      <path d="M102.2,12.732C102.2,12.732,90.856,10.823,85.167,10.186C79.501,9.551,74.389,9.146,68.133,8.912C60.482,8.627,50.235,8.627,42.583,8.912C36.327,9.146,31.216,9.551,25.55,10.186C19.86,10.823,13.145,11.376,8.517,12.732C5.109,13.73,0.974,15.047,0,16.551C-0.509,17.337,-0.509,18.312,0,19.098C0.974,20.602,5.109,21.919,8.517,22.917C13.145,24.273,19.86,24.827,25.55,25.464C31.216,26.098,36.327,26.504,42.583,26.737C50.235,27.023,60.482,27.023,68.133,26.737C74.389,26.504,79.501,26.098,85.167,25.464C90.856,24.827,102.2,22.917,102.2,22.917" fill="transparent" stroke="black" stroke-width="2"></path>
    </g>
  </g>
</svg>