<svg width="160" height="80" style="background: white;" xmlns="http://www.w3.org/2000/svg">
  <g transform="translate(0,0)">
    <g transform="translate(8,8)">
      <path d="M0,0L0,64" fill="none" stroke="red" stroke-width="3"></path>
      <path d="M19.12,0L19.12,64" fill="none" stroke="red" stroke-width="3"></path>
      <path d="M0,30.476L19.12,30.476" fill="none" stroke="red" stroke-width="3"></path>
    </g>
    <g transform="translate(31.12,8)">
      <path d="M0,8.194C0,8.194,38.081,10.993,40.88,8.194C41.603,7.471,41.277,6.289,40.88,5.463C40.379,4.418,38.663,3.426,37.473,2.731C36.383,2.095,35.419,1.769,34.067,1.366C32.206,0.811,29.768,0.25,27.253,0C24.204,-0.303,20.082,-0.303,17.033,0C14.519,0.25,12.461,0.698,10.22,1.366C7.917,2.052,5.171,2.813,3.407,4.097C1.903,5.191,0.474,6.883,0,8.194C-0.339,9.133,-0.339,9.987,0,10.926C0.474,12.237,1.903,13.929,3.407,15.023C5.171,16.307,7.917,17.068,10.22,17.754C12.461,18.422,14.519,18.87,17.033,19.12C20.082,19.423,24.204,19.423,27.253,19.12C29.768,18.87,31.826,18.422,34.067,17.754C36.37,17.068,40.88,15.023,40.88,15.023" fill="none" stroke="red" stroke-width="3"></path>
    </g>
    <g transform="translate(31.12,31.12)">
      <path d="M20.44,0L20.44,11.49" fill="none" stroke="red" stroke-width="3"></path>
    </g>
    <g transform="translate(31.12,46.6104)">
      <path d="M9.22,0L9.22,25.39" fill="none" stroke="red" stroke-width="3"></path>
    </g>
    <g transform="translate(53.56,46.6104)">
      <path d="M7.092,0C7.092,0,5.138,1.011,4.255,1.814C3.223,2.752,2.118,4.026,1.418,5.441C0.645,7.003,0.211,9.239,0,10.881C-0.169,12.201,-0.169,13.189,0,14.508C0.211,16.151,0.645,18.386,1.418,19.949C2.118,21.363,3.223,22.638,4.255,23.576C5.138,24.378,5.998,25.07,7.092,25.39C8.323,25.749,10.117,25.749,11.348,25.39C12.442,25.07,13.302,24.378,14.185,23.576C15.217,22.638,16.322,21.363,17.022,19.949C17.795,18.386,18.229,16.151,18.44,14.508C18.609,13.189,18.609,12.201,18.44,10.881C18.229,9.239,17.795,7.003,17.022,5.441C16.322,4.026,15.217,2.752,14.185,1.814C13.302,1.011,12.442,0.32,11.348,0C10.117,-0.36,7.092,0,7.092,0" fill="none" stroke="red" stroke-width="3"></path>
    </g>
  </g>
  <g transform="translate(80,0)">
    <g transform="translate(8,8)">
      <path d="M0,0L4.78,64" fill="none" stroke="red" stroke-width="3"></path>
      <path d="M9.56,0L4.78,64" fill="none" stroke="red" stroke-width="3"></path>
      <path d="M9.56,0L14.34,64" fill="none" stroke="red" stroke-width="3"></path>
      <path d="M19.12,0L14.34,64" fill="none" stroke="red" stroke-width="3"></path>
    </g>
    <g transform="translate(31.12,8)">
      <path d="M15.723,0C15.723,0,11.498,0.7,9.434,1.366C7.303,2.052,4.765,2.832,3.145,4.097C1.738,5.195,0.441,6.894,0,8.194C-0.321,9.14,-0.321,9.98,0,10.926C0.441,12.226,1.738,13.925,3.145,15.023C4.765,16.288,7.303,17.068,9.434,17.754C11.498,18.42,13.4,18.871,15.723,19.12C18.536,19.422,22.344,19.422,25.157,19.12C27.48,18.871,29.382,18.42,31.446,17.754C33.577,17.068,36.115,16.288,37.735,15.023C39.142,13.925,40.439,12.226,40.88,10.926C41.201,9.98,41.201,9.14,40.88,8.194C40.439,6.894,39.142,5.195,37.735,4.097C36.115,2.832,33.577,2.052,31.446,1.366C29.382,0.7,27.48,0.249,25.157,0C22.344,-0.302,15.723,0,15.723,0" fill="none" stroke="red" stroke-width="3"></path>
    </g>
    <g transform="translate(31.12,31.12)">
      <path d="M0,0L0,11.49" fill="none" stroke="red" stroke-width="3"></path>
      <path d="M0,4.924C0,4.924,3.058,3.106,5.11,2.462C7.881,1.592,11.915,1.231,15.33,0.821C18.729,0.412,21.796,0.151,25.55,0C30.14,-0.184,40.88,0,40.88,0" fill="none" stroke="red" stroke-width="3"></path>
    </g>
    <g transform="translate(31.12,46.6104)">
      <path d="M20.44,0L20.44,10.695" fill="none" stroke="red" stroke-width="3"></path>
    </g>
    <g transform="translate(31.12,61.3052)">
      <path d="M40.88,0L40.88,10.695" fill="none" stroke="red" stroke-width="3"></path>
      <path d="M40.88,5.093C40.88,5.093,36.342,4.329,34.067,4.074C31.8,3.82,29.756,3.658,27.253,3.565C24.193,3.451,20.094,3.451,17.033,3.565C14.531,3.658,12.486,3.82,10.22,4.074C7.944,4.329,5.258,4.55,3.407,5.093C2.044,5.492,0.39,6.019,0,6.621C-0.203,6.935,-0.203,7.325,0,7.639C0.39,8.241,2.044,8.768,3.407,9.167C5.258,9.709,7.944,9.931,10.22,10.186C12.486,10.439,14.531,10.601,17.033,10.695C20.094,10.809,24.193,10.809,27.253,10.695C29.756,10.601,31.8,10.439,34.067,10.186C36.342,9.931,40.88,9.167,40.88,9.167" fill="none" stroke="red" stroke-width="3"></path>
    </g>
  </g>
</svg>