<svg width="240" height="80" style="background: white;" xmlns="http://www.w3.org/2000/svg">
  <rect x="0" y="0" width="240" height="80" fill="transparent"></rect>
  <g transform="translate(0,0)">
    <g transform="translate(8,8)">
      <path d="M0,0L0,64" fill="transparent" stroke="black" stroke-width="2"></path>
      <path d="M0,0L15.42,64" fill="transparent" stroke="black" stroke-width="2"></path>
      <path d="M15.42,0L15.42,64" fill="transparent" stroke="black" stroke-width="2"></path>
    </g>
    <g transform="translate(34.82,8)">
      <path d="M37.18,0L37.18,16.761" fill="transparent" stroke="black" stroke-width="2"></path>
      <path d="M37.18,3.592C37.18,3.592,33.076,1.799,30.983,1.197C28.944,0.611,27.072,0.219,24.787,0C22.013,-0.266,18.266,-0.266,15.492,0C13.206,0.219,11.335,0.611,9.295,1.197C7.202,1.799,4.707,2.458,3.098,3.592C1.739,4.549,0.429,6.029,0,7.183C-0.305,8.003,-0.305,8.758,0,9.578C0.429,10.732,1.739,12.212,3.098,13.169C4.707,14.303,7.202,14.962,9.295,15.564C11.335,16.15,13.206,16.542,15.492,16.761C18.266,17.027,22.013,17.027,24.787,16.761C27.072,16.542,28.944,16.15,30.983,15.564C33.076,14.962,37.18,13.169,37.18,13.169" fill="transparent" stroke="black" stroke-width="2"></path>
    </g>
    <g transform="translate(34.82,33.479)">
      <path d="M0,0L0,14.901" fill="transparent" stroke="black" stroke-width="2"></path>
      <path d="M0,4.258C0,4.258,3.507,1.788,5.07,1.064C6.272,0.508,7.193,0.193,8.45,0C9.954,-0.231,12.016,-0.231,13.52,0C14.777,0.193,16.056,0.362,16.9,1.064C17.752,1.774,18.234,2.824,18.59,4.258C19.201,6.718,18.59,14.901,18.59,14.901" fill="transparent" stroke="black" stroke-width="2"></path>
      <path d="M18.59,4.258C18.59,4.258,22.097,1.788,23.66,1.064C24.862,0.508,25.783,0.193,27.04,0C28.544,-0.231,30.606,-0.231,32.11,0C33.367,0.193,34.646,0.362,35.49,1.064C36.342,1.774,36.824,2.824,37.18,4.258C37.791,6.718,37.18,14.901,37.18,14.901" fill="transparent" stroke="black" stroke-width="2"></path>
    </g>
    <g transform="translate(34.82,57.0985)">
      <path d="M0,6.386C0,6.386,34.787,8.779,37.18,6.386C37.753,5.814,37.514,4.892,37.18,4.258C36.737,3.415,35.152,2.668,34.082,2.129C33.082,1.625,32.208,1.378,30.983,1.064C29.286,0.63,27.07,0.195,24.787,0C22.01,-0.237,18.268,-0.237,15.492,0C13.208,0.195,11.34,0.541,9.295,1.064C7.208,1.598,4.719,2.164,3.098,3.193C1.763,4.041,0.422,5.345,0,6.386C-0.292,7.107,-0.292,7.795,0,8.515C0.422,9.557,1.763,10.861,3.098,11.708C4.719,12.737,7.208,13.303,9.295,13.837C11.34,14.36,13.208,14.707,15.492,14.901C18.268,15.138,22.01,15.138,24.787,14.901C27.07,14.707,28.939,14.36,30.983,13.837C33.071,13.303,37.18,11.708,37.18,11.708" fill="transparent" stroke="black" stroke-width="2"></path>
    </g>
  </g>
  <g transform="translate(80,0)">
    <g transform="translate(8,8)">
      <path d="M15.42,9.143C15.42,9.143,14.272,4.636,13.217,3.048C12.338,1.724,11.206,0.505,9.913,0C8.632,-0.5,6.788,-0.5,5.507,0C4.214,0.505,3.082,1.724,2.203,3.048C1.148,4.636,0.362,7.079,0,9.143C-0.351,11.144,-0.181,13.214,0,15.238C0.183,17.278,0.653,19.666,1.101,21.333C1.426,22.54,1.684,23.4,2.203,24.381C2.761,25.438,3.4,26.296,4.406,27.429C5.96,29.18,9.46,31.772,11.014,33.524C12.02,34.657,12.659,35.515,13.217,36.571C13.736,37.552,13.994,38.413,14.319,39.619C14.767,41.287,15.219,43.467,15.42,45.714C15.665,48.444,15.893,52.154,15.42,54.857C15.021,57.133,14.272,59.364,13.217,60.952C12.338,62.276,11.206,63.495,9.913,64C8.632,64.5,6.788,64.5,5.507,64C4.214,63.495,3.082,62.276,2.203,60.952C1.148,59.364,0,54.857,0,54.857" fill="transparent" stroke="black" stroke-width="2"></path>
    </g>
    <g transform="translate(34.82,8)">
      <path d="M14.3,0C14.3,0,10.459,0.613,8.58,1.197C6.644,1.799,4.337,2.475,2.86,3.592C1.589,4.553,0.4,6.039,0,7.183C-0.289,8.009,-0.289,8.752,0,9.578C0.4,10.722,1.589,12.208,2.86,13.169C4.337,14.286,6.644,14.962,8.58,15.564C10.459,16.148,12.188,16.542,14.3,16.761C16.859,17.026,20.321,17.026,22.88,16.761C24.992,16.542,26.721,16.148,28.6,15.564C30.536,14.962,32.843,14.286,34.32,13.169C35.591,12.208,36.78,10.722,37.18,9.578C37.469,8.752,37.469,8.009,37.18,7.183C36.78,6.039,35.591,4.553,34.32,3.592C32.843,2.475,30.536,1.799,28.6,1.197C26.721,0.613,24.992,0.219,22.88,0C20.321,-0.265,14.3,0,14.3,0" fill="transparent" stroke="black" stroke-width="2"></path>
    </g>
    <g transform="translate(34.82,33.479)">
      <path d="M0,0L0,14.901" fill="transparent" stroke="black" stroke-width="2"></path>
      <path d="M0,4.258C0,4.258,3.507,1.788,5.07,1.064C6.272,0.508,7.193,0.193,8.45,0C9.954,-0.231,12.016,-0.231,13.52,0C14.777,0.193,16.056,0.362,16.9,1.064C17.752,1.774,18.234,2.824,18.59,4.258C19.201,6.718,18.59,14.901,18.59,14.901" fill="transparent" stroke="black" stroke-width="2"></path>
      <path d="M18.59,4.258C18.59,4.258,22.097,1.788,23.66,1.064C24.862,0.508,25.783,0.193,27.04,0C28.544,-0.231,30.606,-0.231,32.11,0C33.367,0.193,34.646,0.362,35.49,1.064C36.342,1.774,36.824,2.824,37.18,4.258C37.791,6.718,37.18,14.901,37.18,14.901" fill="transparent" stroke="black" stroke-width="2"></path>
    </g>
    <g transform="translate(34.82,57.0985)">
      <path d="M0,6.386C0,6.386,34.787,8.779,37.18,6.386C37.753,5.814,37.514,4.892,37.18,4.258C36.737,3.415,35.152,2.668,34.082,2.129C33.082,1.625,32.208,1.378,30.983,1.064C29.286,0.63,27.07,0.195,24.787,0C22.01,-0.237,18.268,-0.237,15.492,0C13.208,0.195,11.34,0.541,9.295,1.064C7.208,1.598,4.719,2.164,3.098,3.193C1.763,4.041,0.422,5.345,0,6.386C-0.292,7.107,-0.292,7.795,0,8.515C0.422,9.557,1.763,10.861,3.098,11.708C4.719,12.737,7.208,13.303,9.295,13.837C11.34,14.36,13.208,14.707,15.492,14.901C18.268,15.138,22.01,15.138,24.787,14.901C27.07,14.707,28.939,14.36,30.983,13.837C33.071,13.303,37.18,11.708,37.18,11.708" fill="transparent" stroke="black" stroke-width="2"></path>
    </g>
  </g>
  <g transform="translate(160,0)">
    <g transform="translate(8,8)">
      <path d="M0,0L0,64" fill="transparent" stroke="black" stroke-width="2"></path>
      <path d="M0,64L15.42,64" fill="transparent" stroke="black" stroke-width="2"></path>
    </g>
    <g transform="translate(34.82,8)">
      <path d="M0,0C0,0,-1.069,9.276,0,11.972C0.686,13.703,1.894,14.761,3.38,15.564C5.133,16.511,7.648,16.542,10.14,16.761C13.168,17.027,17.252,17.027,20.28,16.761C22.772,16.542,24.588,16.21,27.04,15.564C30.109,14.754,37.18,11.972,37.18,11.972" fill="transparent" stroke="black" stroke-width="2"></path>
      <path d="M37.18,0L37.18,16.761" fill="transparent" stroke="black" stroke-width="2"></path>
    </g>
    <g transform="translate(34.82,33.479)">
      <path d="M7.91,8.255C7.91,8.255,7.802,4.207,7.191,2.752C6.706,1.596,5.863,0.403,5.034,0C4.383,-0.317,3.528,-0.317,2.877,0C2.047,0.403,1.204,1.596,0.719,2.752C0.108,4.207,0,6.42,0,8.255C0,10.089,0.25,12.271,0.719,13.758C1.07,14.869,1.446,15.663,2.157,16.509C3.017,17.53,4.893,18.239,5.753,19.261C6.465,20.106,6.84,20.9,7.191,22.012C7.661,23.498,7.811,25.993,7.91,27.515C7.98,28.587,7.98,29.195,7.91,30.267C7.811,31.789,7.802,34.314,7.191,35.77C6.706,36.925,5.863,38.118,5.034,38.521C4.383,38.838,3.528,38.838,2.877,38.521C2.047,38.118,1.204,36.925,0.719,35.77C0.108,34.314,0,30.267,0,30.267" fill="transparent" stroke="black" stroke-width="2"></path>
    </g>
    <g transform="translate(51.4484,33.479)">
      <path d="M0,0.715C0,0.715,6.851,1.43,10.276,1.43C13.701,1.43,20.552,0.954,20.552,0.715C20.552,0.477,13.701,0,10.276,0C6.851,0,0,0.715,0,0.715" fill="transparent" stroke="black" stroke-width="2"></path>
      <path d="M10.276,5.721L10.276,15.733" fill="transparent" stroke="black" stroke-width="2"></path>
    </g>
    <g transform="translate(51.4484,56.26708)">
      <path d="M20.552,0L20.552,15.733" fill="transparent" stroke="black" stroke-width="2"></path>
      <path d="M20.552,3.371C20.552,3.371,18.307,1.692,17.126,1.124C16.019,0.59,14.976,0.204,13.701,0C12.179,-0.243,10.086,-0.243,8.563,0C7.288,0.204,6.245,0.59,5.138,1.124C3.957,1.692,2.575,2.408,1.713,3.371C0.884,4.297,0.249,5.705,0,6.743C-0.192,7.543,-0.192,8.19,0,8.99C0.249,10.028,0.884,11.436,1.713,12.362C2.575,13.325,3.957,14.04,5.138,14.609C6.245,15.143,7.288,15.529,8.563,15.733C10.086,15.976,12.179,15.976,13.701,15.733C14.976,15.529,16.019,15.143,17.126,14.609C18.307,14.04,20.552,12.362,20.552,12.362" fill="transparent" stroke="black" stroke-width="2"></path>
    </g>
  </g>
</svg>