<svg width="80" height="80" style="background: white;" xmlns="http://www.w3.org/2000/svg">
  <rect x="0" y="0" width="80" height="80" fill="transparent"></rect>
  <g transform="translate(0,0)">
    <g transform="translate(8,8)">
      <path d="M15.42,9.143C15.42,9.143,14.272,4.636,13.217,3.048C12.338,1.724,11.206,0.505,9.913,0C8.632,-0.5,6.788,-0.5,5.507,0C4.214,0.505,3.082,1.724,2.203,3.048C1.148,4.636,0.362,7.079,0,9.143C-0.351,11.144,-0.181,13.214,0,15.238C0.183,17.278,0.653,19.666,1.101,21.333C1.426,22.54,1.684,23.4,2.203,24.381C2.761,25.438,3.4,26.296,4.406,27.429C5.96,29.18,9.46,31.772,11.014,33.524C12.02,34.657,12.659,35.515,13.217,36.571C13.736,37.552,13.994,38.413,14.319,39.619C14.767,41.287,15.219,43.467,15.42,45.714C15.665,48.444,15.893,52.154,15.42,54.857C15.021,57.133,14.272,59.364,13.217,60.952C12.338,62.276,11.206,63.495,9.913,64C8.632,64.5,6.788,64.5,5.507,64C4.214,63.495,3.082,62.276,2.203,60.952C1.148,59.364,0,54.857,0,54.857" fill="transparent" stroke="black" stroke-width="2"></path>
    </g>
    <g transform="translate(34.82,8)">
      <path d="M14.231,0L14.231,64" fill="transparent" stroke="black" stroke-width="2"></path>
      <path d="M14.231,13.714C14.231,13.714,12.811,7.053,11.859,4.571C11.156,2.739,10.625,0.692,9.487,0C8.541,-0.575,6.875,-0.575,5.93,0C4.792,0.692,4.261,2.739,3.558,4.571C2.606,7.053,1.767,10.332,1.186,13.714C0.485,17.798,0.178,23.316,0,27.429C-0.145,30.781,-0.145,33.219,0,36.571C0.178,40.684,0.485,46.202,1.186,50.286C1.767,53.668,2.606,56.947,3.558,59.429C4.261,61.261,4.792,63.308,5.93,64C6.875,64.575,8.541,64.575,9.487,64C10.625,63.308,11.156,61.261,11.859,59.429C12.811,56.947,14.231,50.286,14.231,50.286" fill="transparent" stroke="black" stroke-width="2"></path>
    </g>
    <g transform="translate(57.769,8)">
      <path d="M0,2.909C0,2.909,4.744,5.818,7.116,5.818C9.487,5.818,14.231,3.879,14.231,2.909C14.231,1.939,9.487,0,7.116,0C4.744,0,0,2.909,0,2.909" fill="transparent" stroke="black" stroke-width="2"></path>
      <path d="M7.116,23.273L7.116,64" fill="transparent" stroke="black" stroke-width="2"></path>
    </g>
  </g>
</svg>