<svg width="80" height="80" style="background: white;" xmlns="http://www.w3.org/2000/svg">
  <rect x="0" y="0" width="80" height="80" fill="transparent"></rect>
  <g transform="translate(0,0)">
    <g transform="translate(8,8)">
      <path d="M17.92,9.143C17.92,9.143,16.553,4.622,15.36,3.048C14.332,1.692,12.993,0.513,11.52,0C10.015,-0.525,7.905,-0.525,6.4,0C4.927,0.513,3.588,1.692,2.56,3.048C1.367,4.622,0.418,7.068,0,9.143C-0.401,11.135,-0.21,13.217,0,15.238C0.212,17.281,0.761,19.67,1.28,21.333C1.658,22.545,1.966,23.408,2.56,24.381C3.212,25.449,3.964,26.304,5.12,27.429C6.934,29.193,10.986,31.759,12.8,33.524C13.956,34.648,14.708,35.504,15.36,36.571C15.954,37.544,16.262,38.407,16.64,39.619C17.159,41.282,17.686,43.464,17.92,45.714C18.203,48.441,18.462,52.165,17.92,54.857C17.459,57.146,16.553,59.378,15.36,60.952C14.332,62.308,12.993,63.487,11.52,64C10.015,64.525,7.905,64.525,6.4,64C4.927,63.487,3.588,62.308,2.56,60.952C1.367,59.378,0,54.857,0,54.857" fill="transparent" stroke="black" stroke-width="2"></path>
    </g>
    <g transform="translate(32.32,8)">
      <path d="M16.64,0L16.64,64" fill="transparent" stroke="black" stroke-width="2"></path>
      <path d="M16.64,13.714C16.64,13.714,14.969,7.041,13.867,4.571C13.042,2.724,12.362,0.714,11.093,0C9.974,-0.63,8.052,-0.63,6.933,0C5.665,0.714,4.985,2.724,4.16,4.571C3.057,7.041,2.066,10.322,1.387,13.714C0.571,17.789,0.207,23.314,0,27.429C-0.169,30.779,-0.169,33.221,0,36.571C0.207,40.686,0.571,46.211,1.387,50.286C2.066,53.678,3.057,56.959,4.16,59.429C4.985,61.276,5.665,63.286,6.933,64C8.052,64.63,9.974,64.63,11.093,64C12.362,63.286,13.042,61.276,13.867,59.429C14.969,56.959,16.64,50.286,16.64,50.286" fill="transparent" stroke="black" stroke-width="2"></path>
    </g>
    <g transform="translate(55.36,8)">
      <path d="M0,2.909C0,2.909,5.547,5.818,8.32,5.818C11.093,5.818,16.64,3.879,16.64,2.909C16.64,1.939,11.093,0,8.32,0C5.547,0,0,2.909,0,2.909" fill="transparent" stroke="black" stroke-width="2"></path>
      <path d="M8.32,23.273L8.32,64" fill="transparent" stroke="black" stroke-width="2"></path>
    </g>
  </g>
</svg>