<svg width="160" height="80" style="background: white;" xmlns="http://www.w3.org/2000/svg">
  <rect x="0" y="0" width="160" height="80" fill="transparent"></rect>
  <g transform="translate(0,0)">
    <g transform="translate(8,8)">
      <path d="M0,0L0,64" fill="transparent" stroke="red" stroke-width="2"></path>
      <path d="M15.42,0L15.42,64" fill="transparent" stroke="red" stroke-width="2"></path>
      <path d="M0,30.476L15.42,30.476" fill="transparent" stroke="red" stroke-width="2"></path>
    </g>
    <g transform="translate(34.82,8)">
      <path d="M0,7.183C0,7.183,34.671,9.692,37.18,7.183C37.817,6.547,37.534,5.511,37.18,4.789C36.727,3.866,35.161,3.003,34.082,2.394C33.088,1.834,32.212,1.55,30.983,1.197C29.29,0.711,27.072,0.219,24.787,0C22.013,-0.266,18.266,-0.266,15.492,0C13.206,0.219,11.335,0.611,9.295,1.197C7.202,1.799,4.707,2.458,3.098,3.592C1.739,4.549,0.429,6.029,0,7.183C-0.305,8.003,-0.305,8.758,0,9.578C0.429,10.732,1.739,12.212,3.098,13.169C4.707,14.303,7.202,14.962,9.295,15.564C11.335,16.15,13.206,16.542,15.492,16.761C18.266,17.027,22.013,17.027,24.787,16.761C27.072,16.542,28.944,16.15,30.983,15.564C33.076,14.962,37.18,13.169,37.18,13.169" fill="transparent" stroke="red" stroke-width="2"></path>
    </g>
    <g transform="translate(34.82,33.479)">
      <path d="M18.59,0L18.59,8.353" fill="transparent" stroke="red" stroke-width="2"></path>
    </g>
    <g transform="translate(34.82,50.54993)">
      <path d="M7.115,0L7.115,21.45" fill="transparent" stroke="red" stroke-width="2"></path>
    </g>
    <g transform="translate(57.769,50.54993)">
      <path d="M5.473,0C5.473,0,3.961,0.862,3.284,1.532C2.48,2.328,1.634,3.412,1.095,4.596C0.491,5.924,0.163,7.807,0,9.193C-0.131,10.309,-0.131,11.141,0,12.257C0.163,13.643,0.491,15.526,1.095,16.854C1.634,18.038,2.48,19.122,3.284,19.918C3.961,20.589,4.621,21.182,5.473,21.45C6.418,21.748,7.813,21.748,8.758,21.45C9.61,21.182,10.27,20.589,10.947,19.918C11.751,19.122,12.597,18.038,13.136,16.854C13.74,15.526,14.068,13.643,14.231,12.257C14.362,11.141,14.362,10.309,14.231,9.193C14.068,7.807,13.74,5.924,13.136,4.596C12.597,3.412,11.751,2.328,10.947,1.532C10.27,0.862,9.61,0.269,8.758,0C7.813,-0.298,5.473,0,5.473,0" fill="transparent" stroke="red" stroke-width="2"></path>
    </g>
  </g>
  <g transform="translate(80,0)">
    <g transform="translate(8,8)">
      <path d="M0,0L3.855,64" fill="transparent" stroke="red" stroke-width="2"></path>
      <path d="M7.71,0L3.855,64" fill="transparent" stroke="red" stroke-width="2"></path>
      <path d="M7.71,0L11.565,64" fill="transparent" stroke="red" stroke-width="2"></path>
      <path d="M15.42,0L11.565,64" fill="transparent" stroke="red" stroke-width="2"></path>
    </g>
    <g transform="translate(34.82,8)">
      <path d="M14.3,0C14.3,0,10.459,0.613,8.58,1.197C6.644,1.799,4.337,2.475,2.86,3.592C1.589,4.553,0.4,6.039,0,7.183C-0.289,8.009,-0.289,8.752,0,9.578C0.4,10.722,1.589,12.208,2.86,13.169C4.337,14.286,6.644,14.962,8.58,15.564C10.459,16.148,12.188,16.542,14.3,16.761C16.859,17.026,20.321,17.026,22.88,16.761C24.992,16.542,26.721,16.148,28.6,15.564C30.536,14.962,32.843,14.286,34.32,13.169C35.591,12.208,36.78,10.722,37.18,9.578C37.469,8.752,37.469,8.009,37.18,7.183C36.78,6.039,35.591,4.553,34.32,3.592C32.843,2.475,30.536,1.799,28.6,1.197C26.721,0.613,24.992,0.219,22.88,0C20.321,-0.265,14.3,0,14.3,0" fill="transparent" stroke="red" stroke-width="2"></path>
    </g>
    <g transform="translate(34.82,33.479)">
      <path d="M0,0L0,8.353" fill="transparent" stroke="red" stroke-width="2"></path>
      <path d="M0,3.58C0,3.58,2.799,2.257,4.648,1.79C7.183,1.149,10.839,0.895,13.942,0.597C17.036,0.299,19.824,0.109,23.238,0C27.414,-0.134,37.18,0,37.18,0" fill="transparent" stroke="red" stroke-width="2"></path>
    </g>
    <g transform="translate(34.82,50.54993)">
      <path d="M18.59,0L18.59,6.366" fill="transparent" stroke="red" stroke-width="2"></path>
    </g>
    <g transform="translate(34.82,65.633965)">
      <path d="M37.18,0L37.18,6.366" fill="transparent" stroke="red" stroke-width="2"></path>
      <path d="M37.18,3.031C37.18,3.031,33.051,2.577,30.983,2.425C28.92,2.274,27.062,2.178,24.787,2.122C22.002,2.054,18.276,2.054,15.492,2.122C13.217,2.178,11.359,2.274,9.295,2.425C7.228,2.577,4.797,2.702,3.098,3.031C1.875,3.269,0.312,3.524,0,3.941C-0.135,4.122,-0.135,4.366,0,4.547C0.312,4.964,1.875,5.219,3.098,5.457C4.797,5.786,7.228,5.911,9.295,6.063C11.359,6.214,13.217,6.31,15.492,6.366C18.276,6.434,22.002,6.434,24.787,6.366C27.062,6.31,28.92,6.214,30.983,6.063C33.051,5.911,37.18,5.457,37.18,5.457" fill="transparent" stroke="red" stroke-width="2"></path>
    </g>
  </g>
</svg>