<svg width="160" height="80" style="background: white;" xmlns="http://www.w3.org/2000/svg">
  <rect x="0" y="0" width="160" height="80" fill="transparent"></rect>
  <g transform="translate(0,0)">
    <g transform="translate(8,8)">
      <path d="M0,0L0,64" fill="transparent" stroke="black" stroke-width="2"></path>
      <path d="M17.92,0L17.92,64" fill="transparent" stroke="black" stroke-width="2"></path>
      <path d="M0,30.476L17.92,30.476" fill="transparent" stroke="black" stroke-width="2"></path>
    </g>
    <g transform="translate(32.32,8)">
      <path d="M0,7.68C0,7.68,37.001,10.359,39.68,7.68C40.36,7,40.059,5.892,39.68,5.12C39.196,4.134,37.525,3.21,36.373,2.56C35.313,1.961,34.378,1.657,33.067,1.28C31.259,0.76,28.893,0.234,26.453,0C23.493,-0.284,19.494,-0.284,16.533,0C14.094,0.234,12.097,0.653,9.92,1.28C7.686,1.923,5.023,2.629,3.307,3.84C1.856,4.864,0.458,6.446,0,7.68C-0.325,8.557,-0.325,9.363,0,10.24C0.458,11.474,1.856,13.056,3.307,14.08C5.023,15.291,7.686,15.997,9.92,16.64C12.097,17.267,14.094,17.686,16.533,17.92C19.494,18.204,23.493,18.204,26.453,17.92C28.893,17.686,30.89,17.267,33.067,16.64C35.3,15.997,39.68,14.08,39.68,14.08" fill="transparent" stroke="black" stroke-width="2"></path>
    </g>
    <g transform="translate(32.32,32.32)">
      <path d="M19.84,0L19.84,9.894" fill="transparent" stroke="black" stroke-width="2"></path>
    </g>
    <g transform="translate(32.32,48.6144)">
      <path d="M8.32,0L8.32,23.386" fill="transparent" stroke="black" stroke-width="2"></path>
    </g>
    <g transform="translate(55.36,48.6144)">
      <path d="M6.4,0C6.4,0,4.635,0.933,3.84,1.67C2.907,2.536,1.911,3.711,1.28,5.011C0.58,6.452,0.19,8.51,0,10.022C-0.153,11.238,-0.153,12.148,0,13.363C0.19,14.876,0.58,16.933,1.28,18.374C1.911,19.675,2.907,20.85,3.84,21.715C4.635,22.452,5.411,23.091,6.4,23.386C7.509,23.715,9.131,23.715,10.24,23.386C11.229,23.091,12.005,22.452,12.8,21.715C13.733,20.85,14.729,19.675,15.36,18.374C16.06,16.933,16.45,14.876,16.64,13.363C16.793,12.148,16.793,11.238,16.64,10.022C16.45,8.51,16.06,6.452,15.36,5.011C14.729,3.711,13.733,2.536,12.8,1.67C12.005,0.933,11.229,0.294,10.24,0C9.131,-0.33,6.4,0,6.4,0" fill="transparent" stroke="black" stroke-width="2"></path>
    </g>
  </g>
  <g transform="translate(80,0)">
    <g transform="translate(8,8)">
      <path d="M0,0L4.48,64" fill="transparent" stroke="black" stroke-width="2"></path>
      <path d="M8.96,0L4.48,64" fill="transparent" stroke="black" stroke-width="2"></path>
      <path d="M8.96,0L13.44,64" fill="transparent" stroke="black" stroke-width="2"></path>
      <path d="M17.92,0L13.44,64" fill="transparent" stroke="black" stroke-width="2"></path>
    </g>
    <g transform="translate(32.32,8)">
      <path d="M15.262,0C15.262,0,11.162,0.655,9.157,1.28C7.091,1.923,4.629,2.646,3.052,3.84C1.695,4.868,0.427,6.457,0,7.68C-0.308,8.563,-0.308,9.357,0,10.24C0.427,11.463,1.695,13.052,3.052,14.08C4.629,15.274,7.091,15.997,9.157,16.64C11.162,17.265,13.008,17.686,15.262,17.92C17.992,18.203,21.688,18.203,24.418,17.92C26.672,17.686,28.518,17.265,30.523,16.64C32.589,15.997,35.051,15.274,36.628,14.08C37.985,13.052,39.253,11.463,39.68,10.24C39.988,9.357,39.988,8.563,39.68,7.68C39.253,6.457,37.985,4.868,36.628,3.84C35.051,2.646,32.589,1.923,30.523,1.28C28.518,0.655,26.672,0.234,24.418,0C21.688,-0.283,15.262,0,15.262,0" fill="transparent" stroke="black" stroke-width="2"></path>
    </g>
    <g transform="translate(32.32,32.32)">
      <path d="M0,0L0,9.894" fill="transparent" stroke="black" stroke-width="2"></path>
      <path d="M0,4.24C0,4.24,2.98,2.674,4.96,2.12C7.659,1.365,11.567,1.06,14.88,0.707C18.18,0.354,21.157,0.13,24.8,0C29.256,-0.159,39.68,0,39.68,0" fill="transparent" stroke="black" stroke-width="2"></path>
    </g>
    <g transform="translate(32.32,48.6144)">
      <path d="M19.84,0L19.84,8.493" fill="transparent" stroke="black" stroke-width="2"></path>
    </g>
    <g transform="translate(32.32,63.507200000000005)">
      <path d="M39.68,0L39.68,8.493" fill="transparent" stroke="black" stroke-width="2"></path>
      <path d="M39.68,4.044C39.68,4.044,35.274,3.438,33.067,3.235C30.865,3.034,28.882,2.905,26.453,2.831C23.482,2.74,19.505,2.74,16.533,2.831C14.105,2.905,12.121,3.034,9.92,3.235C7.712,3.438,5.112,3.609,3.307,4.044C1.994,4.361,0.357,4.746,0,5.257C-0.171,5.502,-0.171,5.821,0,6.066C0.357,6.578,1.994,6.963,3.307,7.28C5.112,7.715,7.712,7.886,9.92,8.088C12.121,8.29,14.105,8.419,16.533,8.493C19.505,8.584,23.482,8.584,26.453,8.493C28.882,8.419,30.865,8.29,33.067,8.088C35.274,7.886,39.68,7.28,39.68,7.28" fill="transparent" stroke="black" stroke-width="2"></path>
    </g>
  </g>
</svg>